{
.appVersion = "3151";
.formatVersion = 3;
customParameters = (
{
name = vendorID;
value = COMM;
},
{
name = panose;
value = (
2,
13,
6,
4,
3,
5,
2,
12,
2,
3
);
},
{
name = unicodeRanges;
value = (
0,
1,
2
);
},
{
name = codePageRanges;
value = (
"1252",
"1250",
"1254",
"1257",
"bit 29"
);
},
{
name = fsType;
value = (
2
);
},
{
name = glyphOrder;
value = (
.notdef,
Eth,
eth,
Lslash,
lslash,
Scaron,
scaron,
Yacute,
yacute,
Thorn,
thorn,
Zcaron,
zcaron,
onehalf,
onequarter,
onesuperior,
threequarters,
threesuperior,
twosuperior,
brokenbar,
minus,
multiply,
space,
exclam,
quotedbl,
numbersign,
dollar,
percent,
ampersand,
quotesingle,
parenleft,
parenright,
asterisk,
plus,
comma,
hyphen,
period,
slash,
zero,
one,
two,
three,
four,
five,
six,
seven,
eight,
nine,
colon,
semicolon,
less,
equal,
greater,
question,
at,
A,
B,
C,
D,
E,
F,
G,
H,
I,
J,
K,
L,
M,
N,
O,
P,
Q,
R,
S,
T,
U,
V,
W,
X,
Y,
Z,
bracketleft,
backslash,
bracketright,
asciicircum,
underscore,
grave,
a,
b,
c,
d,
e,
f,
g,
h,
i,
j,
k,
l,
m,
n,
o,
p,
q,
r,
s,
t,
u,
v,
w,
x,
y,
z,
braceleft,
bar,
braceright,
asciitilde,
Adieresis,
Aring,
Ccedilla,
Eacute,
Ntilde,
Odieresis,
Udieresis,
aacute,
agrave,
acircumflex,
adieresis,
atilde,
aring,
ccedilla,
eacute,
egrave,
ecircumflex,
edieresis,
iacute,
igrave,
icircumflex,
idieresis,
ntilde,
oacute,
ograve,
ocircumflex,
odieresis,
otilde,
uacute,
ugrave,
ucircumflex,
udieresis,
dagger,
degree,
cent,
sterling,
section,
bullet,
paragraph,
germandbls,
registered,
copyright,
trademark,
acute,
dieresis,
notequal,
AE,
Oslash,
infinity,
plusminus,
lessequal,
greaterequal,
yen,
mu,
partialdiff,
summation,
product,
pi,
integral,
ordfeminine,
ordmasculine,
Omega,
ae,
oslash,
questiondown,
exclamdown,
logicalnot,
radical,
florin,
approxequal,
Delta,
guillemotleft,
guillemotright,
ellipsis,
uni00A0,
Agrave,
Atilde,
Otilde,
OE,
oe,
endash,
emdash,
quotedblleft,
quotedblright,
quoteleft,
quoteright,
divide,
lozenge,
ydieresis,
Ydieresis,
fraction,
Euro,
guilsinglleft,

glyphs = (
{
glyphname = Eth;
kernLeft = Eth;
kernRight = Eth;
layers = (
{
hints = (
{
horizontal = 1;
place = (0, 125);
place = (0, 125);
type = Stem;
},
{
horizontal = 1;
place = (305, 114);
place = (305, 114);
type = Stem;
},
{
horizontal = 1;
place = (591, 124);
place = (591, 124);
type = Stem;
},
{
place = (525, 145);
place = (525, 145);
type = Stem;
}
);
layerId = m01;
shapes = (
{
closed = 1;
nodes = (
(14,0,l),
(295,0,ls),
(403,0,o),
(504,39,o),
(566,105,cs),
(636,179,o),
(670,275,o),
(670,412,cs),
(670,612,o),
(555,715,o),
(379,715,cs),
(152,715,l),
(95,419,l),
(32,419,l),
(11,305,l),
(73,305,l)
);
},
{
closed = 1;
nodes = (
(181,125,l),
(216,305,l),
(379,305,l),
(400,419,l),
(238,419,l),
(271,591,l),
(361,591,ls),
(470,591,o),
(525,526,o),
(525,408,cs),
(525,232,o),
(446,125,o),
(296,125,cs)
);
}
);
width = 669;
}
);
note = Eth;
unicode = 208;
},
{
glyphname = eth;
kernLeft = eth;
kernRight = eth;
layers = (
{
hints = (
{
horizontal = 1;
place = (-15, 101);
place = (-15, 101);
type = Stem;
},
{
horizontal = 1;
place = (424, 95);
place = (424, 95);
type = Stem;
},
{
horizontal = 1;
place = (585, 130);
place = (585, 130);
type = Stem;
},
{
place = (17, 134);
place = (17, 134);
type = Stem;
},
{
place = (408, 135);
place = (408, 135);
type = Stem;
},
{
horizontal = 1;
place = (699, -20);
target = down;
type = TopGhost;
},
{
horizontal = 1;
place = (715, -20);
target = down;
type = TopGhost;
},
{
horizontal = 1;
place = (630, 85);
place = (630, 85);
type = Stem;
}
);
layerId = m01;
shapes = (
{
closed = 1;
nodes = (
(170,595,l),
(184,542,l),
(328,585,l),
(357,549,o),
(381,509,o),
(399,463,c),
(397,463,l),
(370,498,o),
(334,519,o),
(284,519,cs),
(131,519,o),
(18,387,o),
(17,225,cs),
(16,69,o),
(123,-15,o),
(259,-15,cs),
(432,-15,o),
(543,111,o),
(543,332,cs),
(543,461,o),
(502,554,o),
(448,622,c),
(526,646,l),
(512,699,l),
(408,667,l),
(390,685,o),
(371,701,o),
(352,715,c),
(191,715,l),
(224,689,o),
(257,661,o),
(287,630,c)
);
},
{
closed = 1;
nodes = (
(151,316,o),
(195,424,o),
(298,424,cs),
(375,424,o),
(408,364,o),
(408,297,cs),
(408,199,o),
(364,86,o),
(260,86,cs),
(181,86,o),
(151,147,o),
(151,217,cs)
);
}
);
width = 561;
}
);
note = eth;
unicode = 240;
},
{
glyphname = Lslash;
layers = (
{
hints = (
{
horizontal = 1;
place = (0, 120);
place = (0, 120);
type = Stem;
},
{
horizontal = 1;
place = (715, -20);
target = down;
type = TopGhost;
},
{
place = (-16, 511);
place = (-16, 511);
type = Stem;
}
);
layerId = m01;
shapes = (
{
closed = 1;
nodes = (
(-16,195,l),
(52,225,l),
(9,0,l),
(472,0,l),
(495,120,l),
(175,120,l),
(208,293,l),
(426,388,l),
(446,490,l),
(228,395,l),
(290,715,l),
(147,715,l),
(72,327,l),
(3,297,l)
);
}
);
width = 540;
}
);
note = Lslash;
unicode = 321;
},
{
glyphname = lslash;
layers = (
{
hints = (
{
horizontal = 1;
place = (0, 21);
target = up;
type = BottomGhost;
},
{
horizontal = 1;
place = (715, -20);
target = down;
type = TopGhost;
},
{
place = (-9, 313);
place = (-9, 313);
type = Stem;
}
);
layerId = m01;
shapes = (
{
closed = 1;
nodes = (
(-9,213,l),
(56,256,l),
(7,0,l),
(141,0,l),
(210,356,l),
(284,405,l),
(304,508,l),
(230,459,l),
(279,715,l),
(145,715,l),
(76,359,l),
(11,316,l)
);
}
);
width = 254;
}
);
note = lslash;
unicode = 322;
},
{
glyphname = Scaron;
kernLeft = Scaron;
kernRight = Scaron;
layers = (
{
hints = (
{
horizontal = 1;
place = (-16, 116);
place = (-16, 116);
type = Stem;
},
{
horizontal = 1;
place = (614, 114);
place = (614, 114);
type = Stem;
},
{
place = (76, 136);
place = (76, 136);
type = Stem;
},
{
place = (433, 142);
place = (433, 142);
type = Stem;
},
{
horizontal = 1;
place = (753, 114);
place = (753, 114);
type = Stem;
}
);
layerId = m01;
shapes = (
{
closed = 1;
nodes = (
(455,-16,o),
(575,61,o),
(575,212,cs),
(575,326,o),
(499,380,o),
(357,429,cs),
(244,468,o),
(211,482,o),
(212,530,cs),
(213,594,o),
(279,614,o),
(332,614,cs),
(421,614,o),
(469,575,o),
(466,505,c),
(603,505,l),
(610,666,o),
(483,728,o),
(337,728,cs),
(180,728,o),
(76,648,o),
(76,511,cs),
(76,399,o),
(151,355,o),
(278,309,cs),
(399,265,o),
(433,243,o),
(433,193,cs),
(433,127,o),
(367,100,o),
(296,100,cs),
(203,100,o),
(136,130,o),
(141,221,c),
(2,221,l),
(-7,56,o),
(127,-16,o),
(292,-16,cs)
);
},
{
closed = 1;
nodes = (
(549,867,l),
(429,867,l),
(371,808,l),
(369,808,l),
(332,867,l),
(219,867,l),
(294,753,l),
(438,753,l)
);
}
);
width = 612;
}
);
note = Scaron;
unicode = 352;
},
{
glyphname = scaron;
kernLeft = scaron;
kernRight = scaron;
layers = (
{
hints = (
{
horizontal = 1;
place = (-15, 98);
place = (-15, 98);
type = Stem;
},
{
horizontal = 1;
place = (431, 96);
place = (431, 96);
type = Stem;
},
{
horizontal = 1;
place = (576, 126);
place = (576, 126);
type = Stem;
},
{
place = (42, 119);
place = (42, 119);
type = Stem;
},
{
place = (308, 123);
place = (308, 123);
type = Stem;
}
);
layerId = m01;
shapes = (
{
closed = 1;
nodes = (
(354,-15,o),
(431,47,o),
(431,157,cs),
(431,247,o),
(360,285,o),
(286,310,cs),
(207,337,o),
(161,345,o),
(161,380,cs),
(161,419,o),
(202,431,o),
(238,431,cs),
(295,431,o),
(323,397,o),
(329,357,c),
(452,357,l),
(443,469,o),
(357,527,o),
(242,527,cs),
(125,527,o),
(42,469,o),
(42,365,cs),
(42,274,o),
(111,241,o),
(189,215,cs),
(264,190,o),
(308,176,o),
(308,139,cs),
(308,100,o),
(273,83,o),
(224,83,cs),
(154,83,o),
(124,122,o),
(119,166,c),
(-8,166,l),
(1,37,o),
(100,-15,o),
(224,-15,cs)
);
},
{
closed = 1;
nodes = (
(449,702,l),
(329,702,l),
(271,633,l),
(269,633,l),
(232,702,l),
(119,702,l),
(195,576,l),
(337,576,l)
);
}
);
width = 472;
}
);
note = scaron;
unicode = 353;
},
{
glyphname = Yacute;
kernLeft = Yacute;
kernRight = Yacute;
layers = (
{
hints = (
{
horizontal = 1;
place = (0, 21);
target = up;
type = BottomGhost;
},
{
horizontal = 1;
place = (715, -20);
target = down;
type = TopGhost;
},
{
horizontal = 1;
place = (753, 125);
place = (753, 125);
type = Stem;
},
{
place = (90, 601);
place = (90, 601);
type = Stem;
}
);
layerId = m01;
shapes = (
{
closed = 1;
nodes = (
(176,0,l),
(319,0,l),
(372,276,l),
(691,715,l),
(536,715,l),
(391,506,ls),
(360,461,o),
(326,403,o),
(326,403,c),
(324,403,l),
(324,403,o),
(311,466,o),
(298,510,cs),
(237,715,l),
(90,715,l),
(230,280,l)
);
},
{
closed = 1;
nodes = (
(551,878,l),
(396,878,l),
(336,753,l),
(440,753,l)
);
}
);
width = 607;
}
);
note = Yacute;
unicode = 221;
},
{
glyphname = yacute;
kernLeft = yacute;
kernRight = yacute;
layers = (
{
hints = (
{
horizontal = 1;
place = (-168, 106);
place = (-168, 106);
type = Stem;
},
{
horizontal = 1;
place = (513, -20);
target = down;
type = TopGhost;
},
{
horizontal = 1;
place = (577, 141);
place = (577, 141);
type = Stem;
},
{
place = (-13, 543);
place = (-13, 543);
type = Stem;
}
);
layerId = m01;
shapes = (
{
closed = 1;
nodes = (
(-13,-168,l),
(71,-168,ls),
(170,-168,o),
(214,-128,o),
(265,-25,cs),
(530,513,l),
(394,513,l),
(288,280,ls),
(266,232,o),
(241,164,o),
(241,164,c),
(239,164,l),
(239,164,o),
(231,233,o),
(224,280,cs),
(189,513,l),
(49,513,l),
(123,148,ls),
(134,96,o),
(140,58,o),
(140,33,cs),
(140,-31,o),
(108,-62,o),
(51,-62,cs),
(8,-62,l)
);
},
{
closed = 1;
nodes = (
(473,718,l),
(316,718,l),
(242,577,l),
(347,577,l)
);
}
);
width = 488;
}
);
note = yacute;
unicode = 253;
},
{
glyphname = Thorn;
kernRight = Thorn;
layers = (
{
hints = (
{
horizontal = 1;
place = (0, 21);
target = up;
type = BottomGhost;
},
{
horizontal = 1;
place = (151, 118);
place = (151, 118);
type = Stem;
},
{
horizontal = 1;
place = (484, 122);
place = (484, 122);
type = Stem;
},
{
horizontal = 1;
place = (715, -20);
target = down;
type = TopGhost;
},
{
place = (477, 147);
place = (477, 147);
type = Stem;
}
);
layerId = m01;
shapes = (
{
closed = 1;
nodes = (
(4,0,l),
(152,0,l),
(181,151,l),
(355,151,ls),
(515,151,o),
(624,242,o),
(624,395,cs),
(624,529,o),
(533,606,o),
(396,606,cs),
(269,606,l),
(290,715,l),
(142,715,l)
);
},
{
closed = 1;
nodes = (
(246,484,l),
(378,484,ls),
(443,484,o),
(477,449,o),
(477,391,cs),
(477,306,o),
(416,269,o),
(349,269,cs),
(205,269,l)
);
}
);
width = 620;
}
);
note = Thorn;
unicode = 222;
},
{
glyphname = thorn;
kernRight = thorn;
layers = (
{
hints = (
{
horizontal = 1;
place = (-168, 21);
target = up;
type = BottomGhost;
},
{
horizontal = 1;
place = (-15, 112);
place = (-15, 112);
type = Stem;
},
{
horizontal = 1;
place = (418, 109);
place = (418, 109);
type = Stem;
},
{
horizontal = 1;
place = (715, -20);
target = down;
type = TopGhost;
},
{
place = (409, 137);
place = (409, 137);
type = Stem;
}
);
layerId = m01;
shapes = (
{
closed = 1;
nodes = (
(-40,-168,l),
(94,-168,l),
(141,72,l),
(143,72,l),
(172,12,o),
(231,-15,o),
(293,-15,cs),
(472,-15,o),
(546,158,o),
(546,303,cs),
(546,431,o),
(484,527,o),
(369,527,cs),
(300,527,o),
(253,495,o),
(217,453,c),
(214,453,l),
(265,715,l),
(131,715,l)
);
},
{
closed = 1;
nodes = (
(168,308,o),
(215,418,o),
(311,418,cs),
(384,418,o),
(409,358,o),
(409,298,cs),
(409,204,o),
(374,97,o),
(273,97,cs),
(200,97,o),
(168,153,o),
(168,215,cs)
);
}
);
width = 562;
}
);
note = thorn;
unicode = 254;
},
{
glyphname = Zcaron;
kernLeft = Zcaron;
kernRight = Zcaron;
layers = (
{
hints = (
{
horizontal = 1;
place = (0, 119);
place = (0, 119);
type = Stem;
},
{
horizontal = 1;
place = (598, 117);
place = (598, 117);
type = Stem;
},
{
horizontal = 1;
place = (753, 114);
place = (753, 114);
type = Stem;
},
{
place = (-23, 681);
place = (-23, 681);
type = Stem;
}
);
layerId = m01;
shapes = (
{
closed = 1;
nodes = (
(-23,0,l),
(526,0,l),
(548,119,l),
(183,119,l),
(183,122,l),
(636,598,l),
(658,715,l),
(139,715,l),
(117,598,l),
(465,598,l),
(465,595,l),
(-3,105,l)
);
},
{
closed = 1;
nodes = (
(587,867,l),
(467,867,l),
(409,808,l),
(407,808,l),
(370,867,l),
(257,867,l),
(332,753,l),
(476,753,l)
);
}
);
width = 606;
}
);
note = Zcaron;
unicode = 381;
},
{
glyphname = zcaron;
kernLeft = zcaron;
kernRight = zcaron;
layers = (
{
hints = (
{
horizontal = 1;
place = (0, 107);
place = (0, 107);
type = Stem;
},
{
horizontal = 1;
place = (408, 105);
place = (408, 105);
type = Stem;
},
{
horizontal = 1;
place = (576, 126);
place = (576, 126);
type = Stem;
},
{
place = (-27, 503);
place = (-27, 503);
type = Stem;
}
);
layerId = m01;
shapes = (
{
closed = 1;
nodes = (
(-27,0,l),
(393,0,l),
(414,107,l),
(158,107,l),
(158,110,l),
(455,406,l),
(476,513,l),
(89,513,l),
(68,408,l),
(296,408,l),
(296,405,l),
(-7,102,l)
);
},
{
closed = 1;
nodes = (
(474,702,l),
(354,702,l),
(296,633,l),
(294,633,l),
(257,702,l),
(144,702,l),
(220,576,l),
(362,576,l)
);
}
);
width = 461;
}
);
note = zcaron;
unicode = 382;
},
{
glyphname = onehalf;
layers = (
{
hints = (
{
horizontal = 1;
place = (0, 81);
place = (0, 81);
type = Stem;
},
{
horizontal = 1;
place = (324, 81);
place = (324, 81);
type = Stem;
},
{
horizontal = 1;
place = (568, 69);
place = (568, 69);
type = Stem;
},
{
horizontal = 1;
place = (718, -20);
target = down;
type = TopGhost;
},
{
place = (681, 104);
place = (681, 104);
type = Stem;
},
{
horizontal = 1;
place = (715, -20);
target = down;
type = TopGhost;
}
);
layerId = m01;
shapes = (
{
closed = 1;
nodes = (
(112,318,l),
(215,318,l),
(293,718,l),
(211,718,l),
(191,663,o),
(146,640,o),
(85,637,c),
(72,568,l),
(161,568,l)
);
},
{
closed = 1;
nodes = (
(34,0,l),
(124,0,l),
(728,715,l),
(638,715,l)
);
},
{
closed = 1;
nodes = (
(736,0,l),
(752,81,l),
(572,81,l),
(597,108,o),
(651,129,o),
(695,158,cs),
(741,187,o),
(785,224,o),
(785,289,cs),
(785,365,o),
(720,405,o),
(647,405,cs),
(555,405,o),
(485,351,o),
(471,250,c),
(568,250,l),
(578,298,o),
(603,324,o),
(637,324,cs),
(665,324,o),
(681,307,o),
(681,281,cs),
(681,251,o),
(666,236,o),
(641,219,cs),
(608,197,o),
(568,178,o),
(522,147,cs),
(477,116,o),
(435,75,o),
(423,0,c)
);
}
);
width = 785;
}
);
note = onehalf;
unicode = 189;
},
{
glyphname = onequarter;
layers = (
{
hints = (
{
horizontal = 1;
place = (0, 159);
place = (0, 159);
type = Stem;
},
{
horizontal = 1;
place = (568, 69);
place = (568, 69);
type = Stem;
},
{
horizontal = 1;
place = (718, -20);
target = down;
type = TopGhost;
},
{
place = (51, 704);
place = (51, 704);
type = Stem;
},
{
horizontal = 1;
place = (84, 75);
place = (84, 75);
type = Stem;
},
{
horizontal = 1;
place = (291, 110);
place = (291, 110);
type = Stem;
},
{
horizontal = 1;
place = (715, -20);
target = down;
type = TopGhost;
}
);
layerId = m01;
shapes = (
{
closed = 1;
nodes = (
(567,0,l),
(665,0,l),
(681,84,l),
(741,84,l),
(755,159,l),
(696,159,l),
(743,401,l),
(641,401,l),
(414,175,l),
(397,84,l),
(583,84,l)
);
},
{
closed = 1;
nodes = (
(51,0,l),
(141,0,l),
(745,715,l),
(655,715,l)
);
},
{
closed = 1;
nodes = (
(112,318,l),
(215,318,l),
(293,718,l),
(211,718,l),
(191,663,o),
(146,640,o),
(85,637,c),
(72,568,l),
(161,568,l)
);
},
{
closed = 1;
nodes = (
(492,161,l),
(622,291,l),
(624,291,l),
(598,159,l),
(492,159,l)
);
}
);
width = 775;
}
);
note = onequarter;
unicode = 188;
},
{
glyphname = onesuperior;
layers = (
{
hints = (
{
horizontal = 1;
place = (538, 69);
place = (538, 69);
type = Stem;
},
{
horizontal = 1;
place = (688, -20);
target = down;
type = TopGhost;
},
{
place = (63, 221);
place = (63, 221);
type = Stem;
}
);
layerId = m01;
shapes = (
{
closed = 1;
nodes = (
(103,288,l),
(206,288,l),
(284,688,l),
(202,688,l),
(182,633,o),
(137,610,o),
(76,607,c),
(63,538,l),
(152,538,l)
);
}
);
width = 247;
}
);
note = onesuperior;
unicode = 185;
},
{
glyphname = threequarters;
layers = (
{
hints = (
{
horizontal = 1;
place = (0, 159);
place = (0, 159);
type = Stem;
},
{
horizontal = 1;
place = (309, 76);
place = (309, 76);
type = Stem;
},
{
horizontal = 1;
place = (524, -20);
target = down;
type = TopGhost;
},
{
horizontal = 1;
place = (649, 74);
place = (649, 74);
type = Stem;
},
{
place = (51, 98);
place = (51, 98);
type = Stem;
},
{
place = (271, 104);
place = (271, 104);
type = Stem;
},
{
horizontal = 1;
place = (84, 75);
place = (84, 75);
type = Stem;
},
{
horizontal = 1;
place = (291, 110);
place = (291, 110);
type = Stem;
},
{
horizontal = 1;
place = (490, 69);
place = (490, 69);
type = Stem;
},
{
place = (291, 101);
place = (291, 101);
type = Stem;
},
{
horizontal = 1;
place = (715, -20);
target = down;
type = TopGhost;
}
);
layerId = m01;
shapes = (
{
closed = 1;
nodes = (
(612,0,l),
(710,0,l),
(726,84,l),
(786,84,l),
(800,159,l),
(741,159,l),
(788,401,l),
(686,401,l),
(459,175,l),
(442,84,l),
(628,84,l)
);
},
{
closed = 1;
nodes = (
(297,309,o),
(375,355,o),
(375,439,cs),
(375,484,o),
(349,511,o),
(317,524,c),
(317,525,l),
(359,539,o),
(391,571,o),
(392,616,cs),
(392,684,o),
(332,723,o),
(250,723,cs),
(157,723,o),
(94,668,o),
(82,591,c),
(178,591,l),
(185,623,o),
(206,649,o),
(243,649,cs),
(271,649,o),
(291,634,o),
(291,607,cs),
(291,575,o),
(264,559,o),
(230,559,cs),
(204,559,l),
(190,490,l),
(212,490,ls),
(252,490,o),
(271,473,o),
(271,441,cs),
(271,406,o),
(248,385,o),
(212,385,cs),
(168,385,o),
(148,412,o),
(149,453,c),
(51,453,l),
(47,362,o),
(115,309,o),
(210,309,cs)
);
},
{
closed = 1;
nodes = (
(116,0,l),
(206,0,l),
(810,715,l),
(720,715,l)
);
},
{
closed = 1;
nodes = (
(537,161,l),
(667,291,l),
(669,291,l),
(643,159,l),
(537,159,l)
);
}
);
width = 820;
}
);
note = threequarters;
unicode = 190;
},
{
glyphname = threesuperior;
layers = (
{
hints = (
{
horizontal = 1;
place = (279, 76);
place = (279, 76);
type = Stem;
},
{
horizontal = 1;
place = (460, 69);
place = (460, 69);
type = Stem;
},
{
horizontal = 1;
place = (619, 74);
place = (619, 74);
type = Stem;
},
{
place = (42, 98);
place = (42, 98);
type = Stem;
},
{
place = (262, 104);
place = (262, 104);
type = Stem;
},
{
place = (282, 101);
place = (282, 101);
type = Stem;
}
);
layerId = m01;
shapes = (
{
closed = 1;
nodes = (
(288,279,o),
(366,325,o),
(366,409,cs),
(366,454,o),
(340,481,o),
(308,494,c),
(308,495,l),
(350,509,o),
(382,541,o),
(383,586,cs),
(383,654,o),
(323,693,o),
(241,693,cs),
(148,693,o),
(85,638,o),
(73,561,c),
(169,561,l),
(176,593,o),
(197,619,o),
(234,619,cs),
(262,619,o),
(282,604,o),
(282,577,cs),
(282,545,o),
(255,529,o),
(221,529,cs),
(195,529,l),
(181,460,l),
(203,460,ls),
(243,460,o),
(262,443,o),
(262,411,cs),
(262,376,o),
(239,355,o),
(203,355,cs),
(159,355,o),
(139,382,o),
(140,423,c),
(42,423,l),
(38,332,o),
(106,279,o),
(201,279,cs)
);
}
);
width = 355;
}
);
note = threesuperior;
unicode = 179;
},
{
glyphname = twosuperior;
layers = (
{
hints = (
{
horizontal = 1;
place = (288, 81);
place = (288, 81);
type = Stem;
},
{
horizontal = 1;
place = (612, 81);
place = (612, 81);
type = Stem;
},
{
place = (291, 104);
place = (291, 104);
type = Stem;
}
);
layerId = m01;
shapes = (
{
closed = 1;
nodes = (
(346,288,l),
(362,369,l),
(182,369,l),
(207,396,o),
(261,417,o),
(305,446,cs),
(351,475,o),
(395,512,o),
(395,577,cs),
(395,653,o),
(330,693,o),
(257,693,cs),
(165,693,o),
(95,639,o),
(81,538,c),
(178,538,l),
(188,586,o),
(213,612,o),
(247,612,cs),
(275,612,o),
(291,595,o),
(291,569,cs),
(291,539,o),
(276,524,o),
(251,507,cs),
(218,485,o),
(178,466,o),
(132,435,cs),
(87,404,o),
(45,363,o),
(33,288,c)
);
}
);
width = 350;
}
);
note = twosuperior;
unicode = 178;
},
{
glyphname = brokenbar;
layers = (
{
hints = (
{
horizontal = 1;
place = (-131, 885);
place = (-131, 885);
type = Stem;
},
{
place = (92, 82);
place = (92, 82);
type = Stem;
}
);
layerId = m01;
shapes = (
{
closed = 1;
nodes = (
(92,-131,l),
(174,-131,l),
(174,261,l),
(92,261,l)
);
},
{
closed = 1;
nodes = (
(174,754,l),
(92,754,l),
(92,375,l),
(174,375,l)
);
}
);
width = 227;
}
);
note = brokenbar;
unicode = 166;
},
{
glyphname = minus;
kernLeft = minus;
kernRight = minus;
layers = (
{
hints = (
{
horizontal = 1;
place = (279, 98);
place = (279, 98);
type = Stem;
},
{
place = (38, 510);
place = (38, 510);
type = Stem;
}
);
layerId = m01;
shapes = (
{
closed = 1;
nodes = (
(38,279,l),
(529,279,l),
(548,377,l),
(57,377,l)
);
}
);
width = 560;
}
);
note = minus;
unicode = 8722;
},
{
glyphname = multiply;
layers = (
{
hints = (
{
horizontal = 1;
place = (85, 474);
place = (85, 474);
type = Stem;
},
{
place = (36, 510);
place = (36, 510);
type = Stem;
}
);
layerId = m01;
shapes = (
{
closed = 1;
nodes = (
(36,155,l),
(98,85,l),
(283,252,l),
(416,85,l),
(492,149,l),
(357,318,l),
(546,489,l),
(483,559,l),
(298,392,l),
(165,559,l),
(89,495,l),
(224,325,l)
);
}
);
width = 559;
}
);
note = multiply;
unicode = 215;
},
{
glyphname = exclam;
kernLeft = exclam;
layers = (
{
hints = (
{
horizontal = 1;
place = (0, 145);
place = (0, 145);
type = Stem;
},
{
horizontal = 1;
place = (715, -20);
target = down;
type = TopGhost;
},
{
place = (4, 279);
place = (4, 279);
type = Stem;
}
);
layerId = m01;
shapes = (
{
closed = 1;
nodes = (
(82,209,l),
(147,209,l),
(251,547,l),
(283,715,l),
(143,715,l),
(113,557,l)
);
},
{
closed = 1;
nodes = (
(4,0,l),
(148,0,l),
(176,145,l),
(32,145,l)
);
}
);
width = 250;
}
);
note = exclam;
unicode = 33;
},
{
glyphname = quotedbl;
kernLeft = quotedbl;
kernRight = quotedbl;
layers = (
{
hints = (
{
horizontal = 1;
place = (464, 251);
place = (464, 251);
type = Stem;
},
{
place = (80, 344);
place = (80, 344);
type = Stem;
}
);
layerId = m01;
shapes = (
{
closed = 1;
nodes = (
(259,464,l),
(376,464,l),
(424,715,l),
(307,715,l)
);
},
{
closed = 1;
nodes = (
(80,464,l),
(197,464,l),
(245,715,l),
(128,715,l)
);
}
);
width = 376;
}
);
note = quotedbl;
unicode = 34;
},
{
glyphname = numbersign;
layers = (
{
hints = (
{
horizontal = 1;
place = (0, 21);
target = up;
type = BottomGhost;
},
{
horizontal = 1;
place = (183, 104);
place = (183, 104);
type = Stem;
},
{
horizontal = 1;
place = (408, 105);
place = (408, 105);
type = Stem;
},
{
horizontal = 1;
place = (686, -20);
target = down;
type = TopGhost;
},
{
place = (11, 572);
place = (11, 572);
type = Stem;
}
);
layerId = m01;
shapes = (
{
closed = 1;
nodes = (
(73,408,l),
(168,408,l),
(136,287,l),
(41,287,l),
(11,183,l),
(106,183,l),
(55,0,l),
(147,0,l),
(198,183,l),
(304,183,l),
(253,0,l),
(345,0,l),
(395,183,l),
(490,183,l),
(520,287,l),
(425,287,l),
(458,408,l),
(553,408,l),
(583,513,l),
(487,513,l),
(536,686,l),
(445,686,l),
(396,513,l),
(290,513,l),
(338,686,l),
(247,686,l),
(198,513,l),
(104,513,l)
);
},
{
closed = 1;
nodes = (
(260,408,l),
(366,408,l),
(334,287,l),
(227,287,l)
);
}
);
width = 562;
}
);
note = numbersign;
unicode = 35;
},
{
glyphname = dollar;
layers = (
{
hints = (
{
horizontal = 1;
place = (-12, 109);
place = (-12, 109);
type = Stem;
},
{
horizontal = 1;
place = (593, 107);
place = (593, 107);
type = Stem;
},
{
place = (81, 131);
place = (81, 131);
type = Stem;
},
{
place = (416, 137);
place = (416, 137);
type = Stem;
},
{
place = (459, 130);
place = (459, 130);
type = Stem;
},
{
horizontal = 1;
place = (-8, 21);
target = up;
type = BottomGhost;
},
{
place = (2, 131);
place = (2, 131);
type = Stem;
}
);
layerId = m01;
shapes = (
{
closed = 1;
nodes = (
(278,-12,ls),
(434,-12,o),
(553,60,o),
(553,205,cs),
(553,315,o),
(484,366,o),
(353,411,c),
(387,585,l),
(436,571,o),
(461,536,o),
(459,486,c),
(589,486,l),
(594,612,o),
(514,675,o),
(408,694,c),
(421,759,l),
(362,759,l),
(350,700,l),
(335,700,ls),
(184,700,o),
(81,625,o),
(81,494,cs),
(81,385,o),
(156,341,o),
(272,298,c),
(234,100,l),
(168,110,o),
(129,143,o),
(133,214,c),
(2,214,l),
(-5,79,o),
(87,9,o),
(213,-8,c),
(196,-97,l),
(255,-97,l),
(271,-12,l)
);
},
{
closed = 1;
nodes = (
(416,128,o),
(359,99,o),
(292,97,c),
(327,277,l),
(400,248,o),
(416,228,o),
(416,188,cs)
);
},
{
closed = 1;
nodes = (
(213,573,o),
(274,593,o),
(330,593,c),
(298,431,l),
(233,456,o),
(211,474,o),
(212,512,cs)
);
}
);
width = 582;
}
);
note = dollar;
unicode = 36;
},
{
glyphname = percent;
kernLeft = percent;
layers = (
{
hints = (
{
horizontal = 1;
place = (-16, 76);
place = (-16, 76);
type = Stem;
},
{
horizontal = 1;
place = (301, 76);
place = (301, 76);
type = Stem;
},
{
horizontal = 1;
place = (624, 76);
place = (624, 76);
type = Stem;
},
{
place = (54, 103);
place = (54, 103);
type = Stem;
},
{
place = (433, 103);
place = (433, 103);
type = Stem;
},
{
place = (680, 103);
place = (680, 103);
type = Stem;
},
{
place = (301, 103);
place = (301, 103);
type = Stem;
},
{
horizontal = 1;
place = (0, 21);
target = up;
type = BottomGhost;
},
{
horizontal = 1;
place = (686, -20);
target = down;
type = TopGhost;
},
{
horizontal = 1;
place = (307, 76);
place = (307, 76);
type = Stem;
}
);
layerId = m01;
shapes = (
{
closed = 1;
nodes = (
(331,301,o),
(404,410,o),
(404,540,cs),
(404,626,o),
(352,700,o),
(248,700,cs),
(130,700,o),
(54,592,o),
(54,461,cs),
(54,374,o),
(107,301,o),
(209,301,cs)
);
},
{
closed = 1;
nodes = (
(128,0,l),
(214,0,l),
(710,686,l),
(624,686,l)
);
},
{
closed = 1;
nodes = (
(157,535,o),
(185,624,o),
(246,624,cs),
(289,624,o),
(301,583,o),
(301,548,cs),
(301,465,o),
(273,377,o),
(211,377,cs),
(167,377,o),
(157,416,o),
(157,455,cs)
);
},
{
closed = 1;
nodes = (
(710,-16,o),
(783,93,o),
(783,223,cs),
(783,309,o),
(731,383,o),
(627,383,cs),
(509,383,o),
(433,275,o),
(433,144,cs),
(433,57,o),
(486,-16,o),
(588,-16,cs)
);
},
{
closed = 1;
nodes = (
(536,218,o),
(564,307,o),
(625,307,cs),
(668,307,o),
(680,266,o),
(680,231,cs),
(680,148,o),
(652,60,o),
(590,60,cs),
(546,60,o),
(536,99,o),
(536,138,cs)
);
}
);
width = 804;
}
);
note = percent;
unicode = 37;
},
{
glyphname = ampersand;
kernLeft = ampersand;
kernRight = ampersand;
layers = (
{
hints = (
{
horizontal = 1;
place = (-15, 109);
place = (-15, 109);
type = Stem;
},
{
horizontal = 1;
place = (608, 102);
place = (608, 102);
type = Stem;
},
{
place = (4, 141);
place = (4, 141);
type = Stem;
},
{
place = (400, 128);
place = (400, 128);
type = Stem;
},
{
horizontal = 1;
place = (0, 21);
target = up;
type = BottomGhost;
},
{
horizontal = 1;
place = (0, 130);
place = (0, 130);
type = Stem;
},
{
place = (155, 128);
place = (155, 128);
type = Stem;
}
);
layerId = m01;
shapes = (
{
closed = 1;
nodes = (
(310,-15,o),
(368,12,o),
(411,41,c),
(436,0,l),
(591,0,l),
(512,130,l),
(557,190,o),
(596,271,o),
(617,367,c),
(498,367,l),
(485,317,o),
(468,271,o),
(449,237,c),
(372,368,l),
(460,407,o),
(528,459,o),
(528,553,cs),
(528,664,o),
(432,710,o),
(347,710,cs),
(235,710,o),
(155,638,o),
(155,533,cs),
(155,484,o),
(170,442,o),
(194,403,c),
(97,368,o),
(4,297,o),
(4,182,cs),
(4,49,o),
(106,-15,o),
(232,-15,cs)
);
},
{
closed = 1;
nodes = (
(145,256,o),
(196,298,o),
(247,318,c),
(358,134,l),
(323,109,o),
(287,94,o),
(244,94,cs),
(182,94,o),
(145,133,o),
(145,191,cs)
);
},
{
closed = 1;
nodes = (
(383,608,o),
(400,577,o),
(400,547,cs),
(400,496,o),
(362,468,o),
(320,447,c),
(298,477,o),
(283,507,o),
(283,539,cs),
(283,579,o),
(310,608,o),
(344,608,cs)
);
}
);
width = 637;
}
);
note = ampersand;
unicode = 38;
},
{
glyphname = quotesingle;
kernLeft = quotedbl;
kernRight = quotedbl;
layers = (
{
hints = (
{
horizontal = 1;
place = (464, 251);
place = (464, 251);
type = Stem;
},
{
place = (80, 165);
place = (80, 165);
type = Stem;
}
);
layerId = m01;
shapes = (
{
closed = 1;
nodes = (
(80,464,l),
(197,464,l),
(245,715,l),
(128,715,l)
);
}
);
width = 198;
}
);
note = quotesingle;
unicode = 39;
},
{
glyphname = parenleft;
kernRight = parenleft;
layers = (
{
hints = (
{
horizontal = 1;
place = (-131, 885);
place = (-131, 885);
type = Stem;
},
{
place = (66, 133);
place = (66, 133);
type = Stem;
}
);
layerId = m01;
shapes = (
{
closed = 1;
nodes = (
(252,-131,l),
(219,-39,o),
(199,51,o),
(199,169,cs),
(199,385,o),
(295,592,o),
(434,754,c),
(313,754,l),
(162,596,o),
(66,408,o),
(66,186,cs),
(66,66,o),
(98,-42,o),
(142,-131,c)
);
}
);
width = 340;
}
);
note = parenleft;
unicode = 40;
},
{
glyphname = parenright;
kernLeft = parenright;
layers = (
{
hints = (
{
horizontal = 1;
place = (-131, 885);
place = (-131, 885);
type = Stem;
},
{
place = (161, 133);
place = (161, 133);
type = Stem;
}
);
layerId = m01;
shapes = (
{
closed = 1;
nodes = (
(108,754,l),
(141,662,o),
(161,572,o),
(161,454,cs),
(161,238,o),
(65,31,o),
(-74,-131,c),
(47,-131,l),
(198,27,o),
(294,215,o),
(294,437,cs),
(294,557,o),
(262,665,o),
(218,754,c)
);
}
);
width = 340;
}
);
note = parenright;
unicode = 41;
},
{
glyphname = asterisk;
kernLeft = asterisk;
kernRight = asterisk;
layers = (
{
hints = (
{
horizontal = 1;
place = (524, -20);
target = down;
type = TopGhost;
},
{
horizontal = 1;
place = (715, -20);
target = down;
type = TopGhost;
},
{
place = (88, 329);
place = (88, 329);
type = Stem;
}
);
layerId = m01;
shapes = (
{
closed = 1;
nodes = (
(151,394,l),
(237,488,l),
(286,390,l),
(354,429,l),
(305,524,l),
(417,551,l),
(404,621,l),
(296,593,l),
(318,715,l),
(242,715,l),
(220,598,l),
(122,641,l),
(88,574,l),
(184,533,l),
(98,443,l)
);
}
);
width = 384;
}
);
note = asterisk;
unicode = 42;
},
{
glyphname = plus;
kernLeft = minus;
kernRight = minus;
layers = (
{
hints = (
{
horizontal = 1;
place = (279, 98);
place = (279, 98);
type = Stem;
},
{
place = (38, 510);
place = (38, 510);
type = Stem;
}
);
layerId = m01;
shapes = (
{
closed = 1;
nodes = (
(38,279,l),
(232,279,l),
(192,75,l),
(295,75,l),
(335,279,l),
(529,279,l),
(548,377,l),
(354,377,l),
(393,581,l),
(290,581,l),
(251,377,l),
(57,377,l)
);
}
);
width = 560;
}
);
note = plus;
unicode = 43;
},
{
glyphname = comma;
kernLeft = comma;
kernRight = comma;
layers = (
{
hints = (
{
horizontal = 1;
place = (0, 145);
place = (0, 145);
type = Stem;
},
{
place = (-47, 204);
place = (-47, 204);
type = Stem;
}
);
layerId = m01;
shapes = (
{
closed = 1;
nodes = (
(-47,-166,l),
(40,-152,o),
(107,-108,o),
(129,3,cs),
(157,145,l),
(13,145,l),
(-15,0,l),
(56,0,l),
(46,-64,o),
(11,-98,o),
(-37,-116,c)
);
}
);
width = 215;
}
);
note = comma;
unicode = 44;
},
{
glyphname = hyphen;
kernLeft = hyphen;
kernRight = hyphen;
layers = (
{
hints = (
{
horizontal = 1;
place = (191, 113);
place = (191, 113);
type = Stem;
},
{
place = (19, 289);
place = (19, 289);
type = Stem;
}
);
layerId = m01;
shapes = (
{
closed = 1;
nodes = (
(19,191,l),
(286,191,l),
(308,304,l),
(41,304,l)
);
}
);
width = 334;
}
);
note = hyphen;
unicode = 45;
},
{
glyphname = period;
kernLeft = comma;
kernRight = comma;
layers = (
{
hints = (
{
horizontal = 1;
place = (0, 145);
place = (0, 145);
type = Stem;
},
{
place = (-15, 172);
place = (-15, 172);
type = Stem;
}
);
layerId = m01;
shapes = (
{
closed = 1;
nodes = (
(-15,0,l),
(129,0,l),
(157,145,l),
(13,145,l)
);
}
);
width = 215;
}
);
note = period;
unicode = 46;
},
{
glyphname = slash;
kernLeft = slash;
kernRight = slash;
layers = (
{
hints = (
{
horizontal = 1;
place = (0, 21);
target = up;
type = BottomGhost;
},
{
horizontal = 1;
place = (715, -20);
target = down;
type = TopGhost;
},
{
place = (-37, 520);
place = (-37, 520);
type = Stem;
}
);
layerId = m01;
shapes = (
{
closed = 1;
nodes = (
(-37,0,l),
(75,0,l),
(483,715,l),
(371,715,l)
);
}
);
width = 407;
}
);
note = slash;
unicode = 47;
},
{
glyphname = zero;
kernLeft = zero;
kernRight = zero;
layers = (
{
hints = (
{
horizontal = 1;
place = (-16, 115);
place = (-16, 115);
type = Stem;
},
{
horizontal = 1;
place = (585, 115);
place = (585, 115);
type = Stem;
},
{
place = (38, 139);
place = (38, 139);
type = Stem;
},
{
place = (477, 139);
place = (477, 139);
type = Stem;
}
);
layerId = m01;
shapes = (
{
closed = 1;
nodes = (
(521,-16,o),
(616,209,o),
(616,419,cs),
(616,587,o),
(528,700,o),
(372,700,cs),
(156,700,o),
(38,480,o),
(38,265,cs),
(38,97,o),
(128,-16,o),
(290,-16,cs)
);
},
{
closed = 1;
nodes = (
(177,374,o),
(222,585,o),
(361,585,cs),
(454,585,o),
(477,508,o),
(477,425,cs),
(477,301,o),
(434,99,o),
(295,99,cs),
(200,99,o),
(177,176,o),
(177,259,cs)
);
}
);
width = 622;
}
);
note = zero;
unicode = 48;
},
{
glyphname = one;
kernLeft = one;
kernRight = one;
layers = (
{
hints = (
{
horizontal = 1;
place = (0, 21);
target = up;
type = BottomGhost;
},
{
horizontal = 1;
place = (478, 90);
place = (478, 90);
type = Stem;
},
{
horizontal = 1;
place = (690, -20);
target = down;
type = TopGhost;
},
{
place = (59, 329);
place = (59, 329);
type = Stem;
}
);
layerId = m01;
shapes = (
{
closed = 1;
nodes = (
(119,0,l),
(254,0,l),
(388,690,l),
(272,690,l),
(242,600,o),
(172,571,o),
(77,568,c),
(59,478,l),
(211,478,l)
);
}
);
width = 376;
}
);
note = one;
unicode = 49;
},
{
glyphname = two;
kernLeft = two;
kernRight = two;
layers = (
{
hints = (
{
horizontal = 1;
place = (0, 111);
place = (0, 111);
type = Stem;
},
{
horizontal = 1;
place = (584, 115);
place = (584, 115);
type = Stem;
},
{
place = (402, 141);
place = (402, 141);
type = Stem;
}
);
layerId = m01;
shapes = (
{
closed = 1;
nodes = (
(460,0,l),
(481,111,l),
(159,111,l),
(186,158,o),
(270,198,o),
(341,239,cs),
(444,298,o),
(543,364,o),
(543,503,cs),
(543,627,o),
(452,699,o),
(328,699,cs),
(179,699,o),
(81,606,o),
(62,444,c),
(189,444,l),
(208,543,o),
(252,584,o),
(317,584,cs),
(373,584,o),
(402,546,o),
(402,497,cs),
(402,393,o),
(323,364,o),
(176,272,cs),
(85,215,o),
(-1,141,o),
(-24,0,c)
);
}
);
width = 538;
}
);
note = two;
unicode = 50;
},
{
glyphname = three;
kernLeft = three;
kernRight = three;
layers = (
{
hints = (
{
horizontal = 1;
place = (-15, 108);
place = (-15, 108);
type = Stem;
},
{
horizontal = 1;
place = (312, 102);
place = (312, 102);
type = Stem;
},
{
horizontal = 1;
place = (596, 103);
place = (596, 103);
type = Stem;
},
{
place = (18, 130);
place = (18, 130);
type = Stem;
},
{
place = (386, 138);
place = (386, 138);
type = Stem;
},
{
place = (415, 137);
place = (415, 137);
type = Stem;
}
);
layerId = m01;
shapes = (
{
closed = 1;
nodes = (
(418,-15,o),
(524,77,o),
(524,207,cs),
(524,296,o),
(474,340,o),
(415,359,c),
(415,361,l),
(497,384,o),
(552,440,o),
(552,526,cs),
(552,626,o),
(469,699,o),
(331,699,cs),
(181,699,o),
(84,603,o),
(68,473,c),
(198,473,l),
(210,542,o),
(249,596,o),
(325,596,cs),
(384,596,o),
(415,560,o),
(415,513,cs),
(415,446,o),
(365,414,o),
(302,414,cs),
(259,414,l),
(239,312,l),
(269,312,ls),
(347,312,o),
(386,273,o),
(386,209,cs),
(386,138,o),
(343,93,o),
(270,93,cs),
(179,93,o),
(143,151,o),
(148,233,c),
(18,233,l),
(6,93,o),
(91,-15,o),
(265,-15,cs)
);
}
);
width = 558;
}
);
note = three;
unicode = 51;
},
{
glyphname = four;
kernLeft = four;
kernRight = four;
layers = (
{
hints = (
{
horizontal = 1;
place = (0, 21);
target = up;
type = BottomGhost;
},
{
horizontal = 1;
place = (151, 107);
place = (151, 107);
type = Stem;
},
{
horizontal = 1;
place = (693, -20);
target = down;
type = TopGhost;
},
{
place = (2, 566);
place = (2, 566);
type = Stem;
}
);
layerId = m01;
shapes = (
{
closed = 1;
nodes = (
(285,0,l),
(415,0,l),
(443,151,l),
(546,151,l),
(568,258,l),
(465,258,l),
(549,693,l),
(414,693,l),
(31,296,l),
(2,151,l),
(313,151,l)
);
},
{
closed = 1;
nodes = (
(136,261,l),
(383,520,l),
(385,520,l),
(335,258,l),
(136,258,l)
);
}
);
width = 585;
}
);
note = four;
unicode = 52;
},
{
glyphname = five;
kernLeft = five;
kernRight = five;
layers = (
{
hints = (
{
horizontal = 1;
place = (-15, 113);
place = (-15, 113);
type = Stem;
},
{
horizontal = 1;
place = (356, 111);
place = (356, 111);
type = Stem;
},
{
horizontal = 1;
place = (572, 113);
place = (572, 113);
type = Stem;
},
{
place = (390, 142);
place = (390, 142);
type = Stem;
},
{
horizontal = 1;
place = (311, 107);
place = (311, 107);
type = Stem;
}
);
layerId = m01;
shapes = (
{
closed = 1;
nodes = (
(405,-15,o),
(532,91,o),
(532,260,cs),
(532,388,o),
(446,467,o),
(330,467,cs),
(274,467,o),
(227,447,o),
(194,418,c),
(192,418,l),
(238,572,l),
(550,572,l),
(572,685,l),
(159,685,l),
(48,311,l),
(170,311,l),
(198,339,o),
(234,356,o),
(279,356,cs),
(351,356,o),
(390,313,o),
(390,243,cs),
(390,151,o),
(328,98,o),
(252,98,cs),
(179,98,o),
(138,139,o),
(134,198,c),
(-1,198,l),
(-1,59,o),
(112,-15,o),
(245,-15,cs)
);
}
);
width = 559;
}
);
note = five;
unicode = 53;
},
{
glyphname = six;
kernLeft = six;
kernRight = six;
layers = (
{
hints = (
{
horizontal = 1;
place = (-15, 106);
place = (-15, 106);
type = Stem;
},
{
horizontal = 1;
place = (363, 107);
place = (363, 107);
type = Stem;
},
{
horizontal = 1;
place = (596, 103);
place = (596, 103);
type = Stem;
},
{
place = (35, 131);
place = (35, 131);
type = Stem;
},
{
place = (422, 132);
place = (422, 132);
type = Stem;
}
);
layerId = m01;
shapes = (
{
closed = 1;
nodes = (
(441,-15,o),
(553,99,o),
(554,251,cs),
(555,387,o),
(461,470,o),
(352,470,cs),
(282,470,o),
(227,441,o),
(190,398,c),
(188,398,l),
(215,510,o),
(269,596,o),
(358,596,cs),
(415,596,o),
(446,569,o),
(450,522,c),
(579,522,l),
(570,650,o),
(476,699,o),
(366,699,cs),
(284,699,o),
(224,672,o),
(172,624,cs),
(79,539,o),
(36,382,o),
(35,259,cs),
(33,95,o),
(125,-15,o),
(284,-15,cs)
);
},
{
closed = 1;
nodes = (
(166,304,o),
(228,363,o),
(309,363,cs),
(385,363,o),
(422,310,o),
(422,240,cs),
(422,148,o),
(363,91,o),
(283,91,cs),
(211,91,o),
(166,141,o),
(166,213,cs)
);
}
);
width = 575;
}
);
note = six;
unicode = 54;
},
{
glyphname = seven;
kernLeft = seven;
kernRight = seven;
layers = (
{
hints = (
{
horizontal = 1;
place = (0, 21);
target = up;
type = BottomGhost;
},
{
horizontal = 1;
place = (571, 114);
place = (571, 114);
type = Stem;
},
{
place = (75, 507);
place = (75, 507);
type = Stem;
}
);
layerId = m01;
shapes = (
{
closed = 1;
nodes = (
(221,0,l),
(272,251,o),
(418,449,o),
(561,576,c),
(582,685,l),
(102,685,l),
(80,571,l),
(409,571,l),
(409,569,l),
(290,458,o),
(124,251,o),
(75,0,c)
);
}
);
width = 522;
}
);
note = seven;
unicode = 55;
},
{
glyphname = eight;
kernLeft = eight;
kernRight = eight;
layers = (
{
hints = (
{
horizontal = 1;
place = (-15, 109);
place = (-15, 109);
type = Stem;
},
{
horizontal = 1;
place = (320, 94);
place = (320, 94);
type = Stem;
},
{
horizontal = 1;
place = (596, 103);
place = (596, 103);
type = Stem;
},
{
place = (11, 139);
place = (11, 139);
type = Stem;
},
{
place = (417, 139);
place = (417, 139);
type = Stem;
},
{
place = (93, 133);
place = (93, 133);
type = Stem;
},
{
place = (448, 135);
place = (448, 135);
type = Stem;
}
);
layerId = m01;
shapes = (
{
closed = 1;
nodes = (
(427,-15,o),
(556,61,o),
(556,213,cs),
(556,280,o),
(522,338,o),
(462,364,c),
(462,367,l),
(538,397,o),
(583,458,o),
(583,524,cs),
(583,652,o),
(465,699,o),
(346,699,cs),
(214,699,o),
(93,633,o),
(93,505,cs),
(93,454,o),
(117,408,o),
(166,382,c),
(166,379,l),
(74,352,o),
(12,289,o),
(11,189,cs),
(10,40,o),
(152,-15,o),
(277,-15,cs)
);
},
{
closed = 1;
nodes = (
(150,284,o),
(222,320,o),
(289,320,cs),
(360,320,o),
(417,286,o),
(417,215,cs),
(417,132,o),
(355,94,o),
(281,94,cs),
(206,94,o),
(150,130,o),
(150,199,cs)
);
},
{
closed = 1;
nodes = (
(227,568,o),
(282,596,o),
(344,596,cs),
(405,596,o),
(448,566,o),
(448,509,cs),
(448,442,o),
(396,414,o),
(333,414,cs),
(270,414,o),
(225,442,o),
(226,503,cs)
);
}
);
width = 587;
}
);
note = eight;
unicode = 56;
},
{
glyphname = nine;
kernLeft = nine;
kernRight = nine;
layers = (
{
hints = (
{
horizontal = 1;
place = (-15, 103);
place = (-15, 103);
type = Stem;
},
{
horizontal = 1;
place = (218, 109);
place = (218, 109);
type = Stem;
},
{
horizontal = 1;
place = (593, 106);
place = (593, 106);
type = Stem;
},
{
place = (57, 135);
place = (57, 135);
type = Stem;
},
{
place = (453, 131);
place = (453, 131);
type = Stem;
}
);
layerId = m01;
shapes = (
{
closed = 1;
nodes = (
(356,-15,o),
(426,19,o),
(478,80,cs),
(548,163,o),
(584,315,o),
(584,431,cs),
(584,610,o),
(486,699,o),
(334,699,cs),
(182,699,o),
(57,590,o),
(57,427,cs),
(57,297,o),
(147,218,o),
(272,218,cs),
(341,218,o),
(392,252,o),
(429,290,c),
(431,290,l),
(405,168,o),
(360,88,o),
(263,88,cs),
(201,88,o),
(167,124,o),
(161,164,c),
(29,164,l),
(38,39,o),
(145,-15,o),
(258,-15,cs)
);
},
{
closed = 1;
nodes = (
(193,533,o),
(252,593,o),
(335,593,cs),
(411,593,o),
(453,544,o),
(453,471,cs),
(453,377,o),
(391,327,o),
(311,327,cs),
(236,327,o),
(191,370,o),
(192,445,cs)
);
}
);
width = 587;
}
);
note = nine;
unicode = 57;
},
{
glyphname = colon;
kernLeft = colon;
kernRight = colon;
layers = (
{
hints = (
{
horizontal = 1;
place = (0, 145);
place = (0, 145);
type = Stem;
},
{
horizontal = 1;
place = (301, 145);
place = (301, 145);
type = Stem;
},
{
place = (-12, 230);
place = (-12, 230);
type = Stem;
}
);
layerId = m01;
shapes = (
{
closed = 1;
nodes = (
(46,301,l),
(190,301,l),
(218,446,l),
(74,446,l)
);
},
{
closed = 1;
nodes = (
(-12,0,l),
(132,0,l),
(160,145,l),
(16,145,l)
);
}
);
width = 220;
}
);
note = colon;
unicode = 58;
},
{
glyphname = semicolon;
kernLeft = colon;
kernRight = colon;
layers = (
{
hints = (
{
horizontal = 1;
place = (0, 145);
place = (0, 145);
type = Stem;
},
{
horizontal = 1;
place = (301, 145);
place = (301, 145);
type = Stem;
},
{
place = (-44, 262);
place = (-44, 262);
type = Stem;
}
);
layerId = m01;
shapes = (
{
closed = 1;
nodes = (
(46,301,l),
(190,301,l),
(218,446,l),
(74,446,l)
);
},
{
closed = 1;
nodes = (
(-44,-166,l),
(43,-152,o),
(110,-108,o),
(132,3,cs),
(160,145,l),
(16,145,l),
(-12,0,l),
(59,0,l),
(49,-64,o),
(14,-98,o),
(-34,-116,c)
);
}
);
width = 220;
}
);
note = semicolon;
unicode = 59;
},
{
glyphname = less;
layers = (
{
hints = (
{
horizontal = 1;
place = (79, 462);
place = (79, 462);
type = Stem;
},
{
place = (42, 461);
place = (42, 461);
type = Stem;
}
);
layerId = m01;
shapes = (
{
closed = 1;
nodes = (
(414,79,l),
(436,191,l),
(236,275,ls),
(202,289,o),
(150,306,o),
(150,306,c),
(150,308,l),
(150,308,o),
(210,326,o),
(249,340,cs),
(480,423,l),
(503,541,l),
(65,371,l),
(42,255,l)
);
}
);
width = 492;
}
);
note = less;
unicode = 60;
},
{
glyphname = equal;
layers = (
{
hints = (
{
horizontal = 1;
place = (166, 96);
place = (166, 96);
type = Stem;
},
{
horizontal = 1;
place = (359, 96);
place = (359, 96);
type = Stem;
},
{
place = (32, 513);
place = (32, 513);
type = Stem;
}
);
layerId = m01;
shapes = (
{
closed = 1;
nodes = (
(69,359,l),
(526,359,l),
(545,455,l),
(88,455,l)
);
},
{
closed = 1;
nodes = (
(32,166,l),
(489,166,l),
(508,262,l),
(51,262,l)
);
}
);
width = 553;
}
);
note = equal;
unicode = 61;
},
{
glyphname = greater;
layers = (
{
hints = (
{
horizontal = 1;
place = (79, 462);
place = (79, 462);
type = Stem;
},
{
place = (9, 461);
place = (9, 461);
type = Stem;
}
);
layerId = m01;
shapes = (
{
closed = 1;
nodes = (
(98,541,l),
(76,429,l),
(276,345,ls),
(310,331,o),
(362,314,o),
(362,314,c),
(362,312,l),
(362,312,o),
(302,294,o),
(263,280,cs),
(32,197,l),
(9,79,l),
(447,249,l),
(470,365,l)
);
}
);
width = 492;
}
);
note = greater;
unicode = 62;
},
{
glyphname = question;
kernLeft = question;
layers = (
{
hints = (
{
horizontal = 1;
place = (0, 145);
place = (0, 145);
type = Stem;
},
{
horizontal = 1;
place = (614, 114);
place = (614, 114);
type = Stem;
},
{
place = (424, 136);
place = (424, 136);
type = Stem;
}
);
layerId = m01;
shapes = (
{
closed = 1;
nodes = (
(300,209,l),
(314,281,o),
(344,288,o),
(429,339,cs),
(514,391,o),
(560,446,o),
(560,538,cs),
(560,664,o),
(458,728,o),
(334,728,cs),
(188,728,o),
(84,634,o),
(58,488,c),
(188,488,l),
(203,574,o),
(260,614,o),
(328,614,cs),
(386,614,o),
(424,585,o),
(424,528,cs),
(424,456,o),
(369,430,o),
(319,403,cs),
(251,363,o),
(203,334,o),
(179,209,c)
);
},
{
closed = 1;
nodes = (
(128,0,l),
(272,0,l),
(300,145,l),
(156,145,l)
);
}
);
width = 529;
}
);
note = question;
unicode = 63;
},
{
glyphname = at;
kernLeft = at;
kernRight = at;
layers = (
{
hints = (
{
horizontal = 1;
place = (-109, 75);
place = (-109, 75);
type = Stem;
},
{
horizontal = 1;
place = (78, 96);
place = (78, 96);
type = Stem;
},
{
horizontal = 1;
place = (424, 95);
place = (424, 95);
type = Stem;
},
{
horizontal = 1;
place = (637, 77);
place = (637, 77);
type = Stem;
},
{
place = (39, 89);
place = (39, 89);
type = Stem;
},
{
place = (225, 131);
place = (225, 131);
type = Stem;
},
{
place = (534, 97);
place = (534, 97);
type = Stem;
},
{
place = (787, 83);
place = (787, 83);
type = Stem;
},
{
horizontal = 1;
place = (79, 75);
place = (79, 75);
type = Stem;
}
);
layerId = m01;
shapes = (
{
closed = 1;
nodes = (
(433,78,o),
(486,108,o),
(521,159,c),
(524,159,l),
(540,110,o),
(581,79,o),
(659,79,cs),
(815,79,o),
(870,240,o),
(870,360,cs),
(870,591,o),
(691,714,o),
(481,714,cs),
(223,714,o),
(39,516,o),
(39,264,cs),
(39,25,o),
(197,-109,o),
(424,-109,cs),
(505,-109,o),
(577,-94,o),
(640,-63,c),
(614,3,l),
(559,-20,o),
(498,-34,o),
(427,-34,cs),
(230,-34,o),
(128,87,o),
(128,265,cs),
(128,499,o),
(285,637,o),
(480,637,cs),
(661,637,o),
(787,545,o),
(787,357,cs),
(787,269,o),
(754,154,o),
(670,154,cs),
(630,154,o),
(624,182,o),
(636,234,cs),
(699,508,l),
(574,508,l),
(560,445,l),
(558,445,l),
(541,490,o),
(505,519,o),
(447,519,cs),
(301,519,o),
(225,370,o),
(225,246,cs),
(225,141,o),
(287,78,o),
(383,78,cs)
);
},
{
closed = 1;
nodes = (
(380,174,o),
(356,209,o),
(356,255,cs),
(356,333,o),
(389,424,o),
(466,424,cs),
(511,424,o),
(534,390,o),
(534,339,cs),
(534,267,o),
(501,174,o),
(423,174,cs)
);
}
);
width = 887;
}
);
note = at;
unicode = 64;
},
{
glyphname = A;
kernLeft = A;
kernRight = A;
layers = (
{
hints = (
{
horizontal = 1;
place = (0, 21);
target = up;
type = BottomGhost;
},
{
horizontal = 1;
place = (153, 110);
place = (153, 110);
type = Stem;
},
{
horizontal = 1;
place = (715, -20);
target = down;
type = TopGhost;
},
{
place = (-49, 632);
place = (-49, 632);
type = Stem;
},
{
horizontal = 1;
place = (578, 137);
place = (578, 137);
type = Stem;
}
);
layerId = m01;
shapes = (
{
closed = 1;
nodes = (
(435,0,l),
(583,0,l),
(465,715,l),
(317,715,l),
(-49,0,l),
(96,0,l),
(168,153,l),
(415,153,l)
);
},
{
closed = 1;
nodes = (
(317,466,ls),
(335,504,o),
(365,578,o),
(365,578,c),
(367,578,l),
(367,578,o),
(371,505,o),
(376,464,cs),
(401,263,l),
(220,263,l)
);
}
);
width = 634;
}
);
note = A;
unicode = 65;
},
{
glyphname = B;
layers = (
{
hints = (
{
horizontal = 1;
place = (0, 119);
place = (0, 119);
type = Stem;
},
{
horizontal = 1;
place = (320, 106);
place = (320, 106);
type = Stem;
},
{
horizontal = 1;
place = (598, 117);
place = (598, 117);
type = Stem;
},
{
place = (466, 145);
place = (466, 145);
type = Stem;
},
{
place = (494, 139);
place = (494, 139);
type = Stem;
}
);
layerId = m01;
shapes = (
{
closed = 1;
nodes = (
(4,0,l),
(334,0,ls),
(431,0,o),
(496,26,o),
(545,73,cs),
(589,115,o),
(611,165,o),
(611,223,cs),
(612,302,o),
(574,352,o),
(501,372,c),
(501,375,l),
(585,399,o),
(633,458,o),
(633,542,cs),
(633,600,o),
(612,643,o),
(577,671,cs),
(540,701,o),
(488,715,o),
(429,715,cs),
(142,715,l)
);
},
{
closed = 1;
nodes = (
(209,320,l),
(365,320,ls),
(425,320,o),
(466,290,o),
(466,229,cs),
(466,154,o),
(414,119,o),
(335,119,cs),
(170,119,l)
);
},
{
closed = 1;
nodes = (
(230,426,l),
(263,598,l),
(410,598,ls),
(469,598,o),
(494,568,o),
(494,523,cs),
(494,445,o),
(437,426,o),
(378,426,cs)
);
}
);
width = 640;
}
);
note = B;
unicode = 66;
},
{
glyphname = C;
kernLeft = C;
kernRight = C;
layers = (
{
hints = (
{
horizontal = 1;
place = (-15, 118);
place = (-15, 118);
type = Stem;
},
{
horizontal = 1;
place = (608, 121);
place = (608, 121);
type = Stem;
},
{
place = (35, 146);
place = (35, 146);
type = Stem;
}
);
layerId = m01;
shapes = (
{
closed = 1;
nodes = (
(418,-15,o),
(479,2,o),
(538,47,cs),
(594,90,o),
(630,155,o),
(650,230,c),
(509,230,l),
(484,151,o),
(426,103,o),
(342,103,cs),
(221,103,o),
(181,192,o),
(181,291,cs),
(181,439,o),
(250,608,o),
(406,608,cs),
(488,608,o),
(532,569,o),
(539,488,c),
(680,488,l),
(671,656,o),
(562,729,o),
(417,729,cs),
(175,729,o),
(35,507,o),
(35,289,cs),
(35,113,o),
(141,-15,o),
(331,-15,cs)
);
}
);
width = 673;
}
);
note = C;
unicode = 67;
},
{
glyphname = D;
kernRight = Eth;
layers = (
{
hints = (
{
horizontal = 1;
place = (0, 125);
place = (0, 125);
type = Stem;
},
{
horizontal = 1;
place = (591, 124);
place = (591, 124);
type = Stem;
},
{
place = (515, 145);
place = (515, 145);
type = Stem;
}
);
layerId = m01;
shapes = (
{
closed = 1;
nodes = (
(4,0,l),
(285,0,ls),
(393,0,o),
(494,39,o),
(556,105,cs),
(626,179,o),
(660,275,o),
(660,412,cs),
(660,612,o),
(545,715,o),
(369,715,cs),
(142,715,l)
);
},
{
closed = 1;
nodes = (
(171,125,l),
(261,591,l),
(351,591,ls),
(460,591,o),
(515,526,o),
(515,408,cs),
(515,232,o),
(436,125,o),
(286,125,cs)
);
}
);
width = 659;
}
);
note = D;
unicode = 68;
},
{
glyphname = E;
kernRight = E;
layers = (
{
hints = (
{
horizontal = 1;
place = (0, 120);
place = (0, 120);
type = Stem;
},
{
horizontal = 1;
place = (315, 118);
place = (315, 118);
type = Stem;
},
{
horizontal = 1;
place = (594, 121);
place = (594, 121);
type = Stem;
},
{
place = (4, 636);
place = (4, 636);
type = Stem;
}
);
layerId = m01;
shapes = (
{
closed = 1;
nodes = (
(4,0,l),
(510,0,l),
(533,120,l),
(170,120,l),
(208,315,l),
(520,315,l),
(543,433,l),
(231,433,l),
(262,594,l),
(617,594,l),
(640,715,l),
(142,715,l)
);
}
);
width = 593;
}
);
note = E;
unicode = 69;
},
{
glyphname = F;
kernRight = F;
layers = (
{
hints = (
{
horizontal = 1;
place = (0, 21);
target = up;
type = BottomGhost;
},
{
horizontal = 1;
place = (297, 123);
place = (297, 123);
type = Stem;
},
{
horizontal = 1;
place = (593, 122);
place = (593, 122);
type = Stem;
},
{
place = (4, 627);
place = (4, 627);
type = Stem;
}
);
layerId = m01;
shapes = (
{
closed = 1;
nodes = (
(4,0,l),
(147,0,l),
(204,297,l),
(505,297,l),
(529,420,l),
(228,420,l),
(262,593,l),
(608,593,l),
(631,715,l),
(142,715,l)
);
}
);
width = 568;
}
);
note = F;
unicode = 70;
},
{
glyphname = G;
kernLeft = C;
kernRight = G;
layers = (
{
hints = (
{
horizontal = 1;
place = (0, 21);
target = up;
type = BottomGhost;
},
{
horizontal = 1;
place = (269, 111);
place = (269, 111);
type = Stem;
},
{
horizontal = 1;
place = (610, 119);
place = (610, 119);
type = Stem;
},
{
place = (35, 146);
place = (35, 146);
type = Stem;
},
{
horizontal = 1;
place = (-15, 116);
place = (-15, 116);
type = Stem;
}
);
layerId = m01;
shapes = (
{
closed = 1;
nodes = (
(516,0,l),
(623,0,l),
(696,380,l),
(400,380,l),
(379,269,l),
(548,269,l),
(531,167,o),
(454,101,o),
(351,101,cs),
(236,101,o),
(181,172,o),
(181,291,cs),
(181,450,o),
(262,610,o),
(414,610,cs),
(499,610,o),
(554,565,o),
(562,490,c),
(701,490,l),
(690,655,o),
(571,728,o),
(425,729,cs),
(188,730,o),
(35,511,o),
(35,289,cs),
(35,93,o),
(153,-15,o),
(320,-15,cs),
(408,-15,o),
(479,23,o),
(526,88,c),
(528,88,l)
);
}
);
width = 711;
}
);
note = G;
unicode = 71;
},
{
glyphname = H;
layers = (
{
hints = (
{
horizontal = 1;
place = (0, 21);
target = up;
type = BottomGhost;
},
{
horizontal = 1;
place = (316, 118);
place = (316, 118);
type = Stem;
},
{
horizontal = 1;
place = (715, -20);
target = down;
type = TopGhost;
},
{
place = (4, 687);
place = (4, 687);
type = Stem;
}
);
layerId = m01;
shapes = (
{
closed = 1;
nodes = (
(4,0,l),
(147,0,l),
(208,316,l),
(471,316,l),
(410,0,l),
(553,0,l),
(691,715,l),
(548,715,l),
(494,434,l),
(231,434,l),
(285,715,l),
(142,715,l)
);
}
);
width = 657;
}
);
note = H;
unicode = 72;
},
{
glyphname = I;
layers = (
{
hints = (
{
horizontal = 1;
place = (0, 21);
target = up;
type = BottomGhost;
},
{
horizontal = 1;
place = (715, -20);
target = down;
type = TopGhost;
},
{
place = (5, 281);
place = (5, 281);
type = Stem;
}
);
layerId = m01;
shapes = (
{
closed = 1;
nodes = (
(5,0,l),
(148,0,l),
(286,715,l),
(143,715,l)
);
}
);
width = 253;
}
);
note = I;
unicode = 73;
},
{
glyphname = J;
kernLeft = J;
kernRight = J;
layers = (
{
hints = (
{
horizontal = 1;
place = (-12, 115);
place = (-12, 115);
type = Stem;
},
{
horizontal = 1;
place = (715, -20);
target = down;
type = TopGhost;
},
{
place = (-1, 131);
place = (-1, 131);
type = Stem;
}
);
layerId = m01;
shapes = (
{
closed = 1;
nodes = (
(356,-12,o),
(425,74,o),
(446,185,cs),
(548,715,l),
(406,715,l),
(306,197,ls),
(295,138,o),
(270,103,o),
(209,103,cs),
(146,103,o),
(120,140,o),
(133,209,cs),
(144,266,l),
(16,266,l),
(5,210,ls),
(-26,50,o),
(76,-12,o),
(207,-12,cs)
);
}
);
width = 506;
}
);
note = J;
unicode = 74;
},
{
glyphname = K;
kernRight = K;
layers = (
{
hints = (
{
horizontal = 1;
place = (0, 21);
target = up;
type = BottomGhost;
},
{
horizontal = 1;
place = (715, -20);
target = down;
type = TopGhost;
},
{
place = (4, 709);
place = (4, 709);
type = Stem;
}
);
layerId = m01;
shapes = (
{
closed = 1;
nodes = (
(449,0,l),
(605,0,l),
(401,435,l),
(713,715,l),
(537,715,l),
(230,429,l),
(285,715,l),
(142,715,l),
(4,0,l),
(147,0,l),
(197,261,l),
(291,344,l)
);
}
);
width = 648;
}
);
note = K;
unicode = 75;
},
{
glyphname = L;
kernRight = L;
layers = (
{
hints = (
{
horizontal = 1;
place = (0, 120);
place = (0, 120);
type = Stem;
},
{
horizontal = 1;
place = (715, -20);
target = down;
type = TopGhost;
},
{
place = (4, 486);
place = (4, 486);
type = Stem;
}
);
layerId = m01;
shapes = (
{
closed = 1;
nodes = (
(4,0,l),
(467,0,l),
(490,120,l),
(170,120,l),
(285,715,l),
(142,715,l)
);
}
);
width = 535;
}
);
note = L;
unicode = 76;
},
{
glyphname = M;
layers = (
{
hints = (
{
horizontal = 1;
place = (0, 21);
target = up;
type = BottomGhost;
},
{
horizontal = 1;
place = (715, -20);
target = down;
type = TopGhost;
},
{
place = (4, 825);
place = (4, 825);
type = Stem;
},
{
horizontal = 1;
place = (560, 155);
place = (560, 155);
type = Stem;
}
);
layerId = m01;
shapes = (
{
closed = 1;
nodes = (
(4,0,l),
(135,0,l),
(214,410,ls),
(225,468,o),
(237,560,o),
(237,560,c),
(239,560,l),
(239,560,o),
(240,475,o),
(244,422,cs),
(278,0,l),
(414,0,l),
(611,423,ls),
(639,483,o),
(670,560,o),
(670,560,c),
(672,560,l),
(672,560,o),
(649,472,o),
(637,410,cs),
(558,0,l),
(691,0,l),
(829,715,l),
(623,715,l),
(451,344,ls),
(410,255,o),
(378,159,o),
(378,159,c),
(377,159,l),
(377,159,o),
(376,262,o),
(368,362,cs),
(341,715,l),
(142,715,l)
);
}
);
width = 801;
}
);
note = M;
unicode = 77;
},
{
glyphname = N;
layers = (
{
hints = (
{
horizontal = 1;
place = (0, 21);
target = up;
type = BottomGhost;
},
{
horizontal = 1;
place = (715, -20);
target = down;
type = TopGhost;
},
{
place = (4, 691);
place = (4, 691);
type = Stem;
}
);
layerId = m01;
shapes = (
{
closed = 1;
nodes = (
(4,0,l),
(143,0,l),
(215,373,ls),
(225,423,o),
(236,498,o),
(236,498,c),
(238,498,l),
(238,498,o),
(250,445,o),
(268,398,cs),
(421,0,l),
(557,0,l),
(695,715,l),
(556,715,l),
(483,336,ls),
(473,286,o),
(462,212,o),
(462,212,c),
(460,212,l),
(460,212,o),
(447,273,o),
(431,316,cs),
(285,715,l),
(142,715,l)
);
}
);
width = 661;
}
);
note = N;
unicode = 78;
},
{
glyphname = O;
kernLeft = C;
kernRight = O;
layers = (
{
hints = (
{
horizontal = 1;
place = (-16, 118);
place = (-16, 118);
type = Stem;
},
{
horizontal = 1;
place = (611, 118);
place = (611, 118);
type = Stem;
},
{
place = (35, 146);
place = (35, 146);
type = Stem;
},
{
place = (570, 146);
place = (570, 146);
type = Stem;
}
);
layerId = m01;
shapes = (
{
closed = 1;
nodes = (
(590,-16,o),
(716,192,o),
(716,417,cs),
(716,606,o),
(593,729,o),
(408,729,cs),
(168,729,o),
(35,521,o),
(35,291,cs),
(35,99,o),
(162,-16,o),
(346,-16,cs)
);
},
{
closed = 1;
nodes = (
(181,438,o),
(241,611,o),
(399,611,cs),
(518,611,o),
(570,524,o),
(570,413,cs),
(570,275,o),
(513,102,o),
(352,102,cs),
(229,102,o),
(181,187,o),
(181,294,cs)
);
}
);
width = 713;
}
);
note = O;
unicode = 79;
},
{
glyphname = P;
kernRight = P;
layers = (
{
hints = (
{
horizontal = 1;
place = (0, 21);
target = up;
type = BottomGhost;
},
{
horizontal = 1;
place = (259, 117);
place = (259, 117);
type = Stem;
},
{
horizontal = 1;
place = (590, 125);
place = (590, 125);
type = Stem;
},
{
place = (497, 148);
place = (497, 148);
type = Stem;
}
);
layerId = m01;
shapes = (
{
closed = 1;
nodes = (
(4,0,l),
(152,0,l),
(202,259,l),
(376,259,ls),
(536,259,o),
(645,351,o),
(645,504,cs),
(645,638,o),
(554,715,o),
(417,715,cs),
(142,715,l)
);
},
{
closed = 1;
nodes = (
(266,590,l),
(398,590,ls),
(463,590,o),
(497,555,o),
(497,497,cs),
(497,412,o),
(436,376,o),
(369,376,cs),
(225,376,l)
);
}
);
width = 624;
}
);
note = P;
unicode = 80;
},
{
glyphname = Q;
kernLeft = C;
kernRight = Q;
layers = (
{
hints = (
{
horizontal = 1;
place = (-16, 118);
place = (-16, 118);
type = Stem;
},
{
horizontal = 1;
place = (611, 118);
place = (611, 118);
type = Stem;
},
{
place = (35, 146);
place = (35, 146);
type = Stem;
},
{
place = (570, 146);
place = (570, 146);
type = Stem;
}
);
layerId = m01;
shapes = (
{
closed = 1;
nodes = (
(412,-16,o),
(470,-1,o),
(518,26,c),
(588,-42,l),
(670,39,l),
(608,99,l),
(679,180,o),
(716,296,o),
(716,417,cs),
(716,606,o),
(593,729,o),
(408,729,cs),
(168,729,o),
(35,521,o),
(35,291,cs),
(35,99,o),
(162,-16,o),
(346,-16,cs)
);
},
{
closed = 1;
nodes = (
(181,438,o),
(241,611,o),
(399,611,cs),
(518,611,o),
(570,524,o),
(570,413,cs),
(570,337,o),
(555,252,o),
(515,189,c),
(442,260,l),
(360,180,l),
(426,115,l),
(405,107,o),
(380,102,o),
(352,102,cs),
(229,102,o),
(181,187,o),
(181,294,cs)
);
}
);
width = 713;
}
);
note = Q;
unicode = 81;
},
{
glyphname = R;
kernRight = R;
layers = (
{
hints = (
{
horizontal = 1;
place = (0, 7);
place = (0, 7);
type = Stem;
},
{
horizontal = 1;
place = (287, 111);
place = (287, 111);
type = Stem;
},
{
horizontal = 1;
place = (599, 116);
place = (599, 116);
type = Stem;
},
{
place = (434, 135);
place = (434, 135);
type = Stem;
},
{
place = (503, 143);
place = (503, 143);
type = Stem;
}
);
layerId = m01;
shapes = (
{
closed = 1;
nodes = (
(4,0,l),
(147,0,l),
(202,287,l),
(332,287,ls),
(404,287,o),
(440,255,o),
(440,191,cs),
(440,150,o),
(434,98,o),
(434,53,cs),
(434,29,o),
(437,9,o),
(445,0,c),
(583,0,l),
(583,7,l),
(573,12,o),
(569,31,o),
(569,53,cs),
(569,108,o),
(577,170,o),
(577,211,cs),
(577,278,o),
(546,316,o),
(489,334,c),
(489,337,l),
(584,361,o),
(646,422,o),
(646,525,cs),
(646,637,o),
(571,715,o),
(430,715,cs),
(142,715,l)
);
},
{
closed = 1;
nodes = (
(263,599,l),
(408,599,ls),
(471,599,o),
(503,567,o),
(503,509,cs),
(503,430,o),
(442,398,o),
(373,398,cs),
(224,398,l)
);
}
);
width = 637;
}
);
note = R;
unicode = 82;
},
{
glyphname = S;
kernLeft = Scaron;
kernRight = Scaron;
layers = (
{
hints = (
{
horizontal = 1;
place = (-16, 116);
place = (-16, 116);
type = Stem;
},
{
horizontal = 1;
place = (614, 114);
place = (614, 114);
type = Stem;
},
{
place = (76, 136);
place = (76, 136);
type = Stem;
},
{
place = (433, 142);
place = (433, 142);
type = Stem;
}
);
layerId = m01;
shapes = (
{
closed = 1;
nodes = (
(455,-16,o),
(575,61,o),
(575,212,cs),
(575,326,o),
(499,380,o),
(357,429,cs),
(244,468,o),
(211,482,o),
(212,530,cs),
(213,594,o),
(279,614,o),
(332,614,cs),
(421,614,o),
(469,575,o),
(466,505,c),
(603,505,l),
(610,666,o),
(483,728,o),
(337,728,cs),
(180,728,o),
(76,648,o),
(76,511,cs),
(76,399,o),
(151,355,o),
(278,309,cs),
(399,265,o),
(433,243,o),
(433,193,cs),
(433,127,o),
(367,100,o),
(296,100,cs),
(203,100,o),
(136,130,o),
(141,221,c),
(2,221,l),
(-7,56,o),
(127,-16,o),
(292,-16,cs)
);
}
);
width = 612;
}
);
note = S;
unicode = 83;
},
{
glyphname = T;
kernLeft = T;
kernRight = T;
layers = (
{
hints = (
{
horizontal = 1;
place = (0, 21);
target = up;
type = BottomGhost;
},
{
horizontal = 1;
place = (594, 121);
place = (594, 121);
type = Stem;
},
{
place = (80, 579);
place = (80, 579);
type = Stem;
}
);
layerId = m01;
shapes = (
{
closed = 1;
nodes = (
(80,594,l),
(286,594,l),
(171,0,l),
(314,0,l),
(429,594,l),
(636,594,l),
(659,715,l),
(103,715,l)
);
}
);
width = 585;
}
);
note = T;
unicode = 84;
},
{
glyphname = U;
kernLeft = U;
kernRight = U;
layers = (
{
hints = (
{
horizontal = 1;
place = (-12, 115);
place = (-12, 115);
type = Stem;
},
{
horizontal = 1;
place = (715, -20);
target = down;
type = TopGhost;
},
{
place = (40, 143);
place = (40, 143);
type = Stem;
}
);
layerId = m01;
shapes = (
{
closed = 1;
nodes = (
(463,-12,o),
(556,67,o),
(584,209,cs),
(682,715,l),
(540,715,l),
(445,222,ls),
(431,153,o),
(392,103,o),
(302,103,cs),
(202,103,o),
(170,155,o),
(187,240,cs),
(279,715,l),
(136,715,l),
(46,251,ls),
(12,73,o),
(123,-12,o),
(299,-12,cs)
);
}
);
width = 642;
}
);
note = U;
unicode = 85;
},
{
glyphname = V;
kernLeft = V;
kernRight = V;
layers = (
{
hints = (
{
horizontal = 1;
place = (0, 21);
target = up;
type = BottomGhost;
},
{
horizontal = 1;
place = (715, -20);
target = down;
type = TopGhost;
},
{
place = (86, 600);
place = (86, 600);
type = Stem;
}
);
layerId = m01;
shapes = (
{
closed = 1;
nodes = (
(194,0,l),
(324,0,l),
(686,715,l),
(540,715,l),
(344,301,ls),
(320,251,o),
(294,185,o),
(294,185,c),
(292,185,l),
(292,185,o),
(287,254,o),
(281,310,cs),
(234,715,l),
(86,715,l)
);
}
);
width = 597;
}
);
note = V;
unicode = 86;
},
{
glyphname = W;
kernLeft = W;
kernRight = W;
layers = (
{
hints = (
{
horizontal = 1;
place = (0, 21);
target = up;
type = BottomGhost;
},
{
horizontal = 1;
place = (715, -20);
target = down;
type = TopGhost;
},
{
place = (507, 109);
place = (507, 109);
type = Stem;
},
{
place = (494, 110);
place = (494, 110);
type = Stem;
}
);
layerId = m01;
shapes = (
{
closed = 1;
nodes = (
(159,0,l),
(290,0,l),
(445,385,ls),
(469,444,o),
(492,517,o),
(492,517,c),
(494,517,l),
(494,517,o),
(494,442,o),
(497,385,cs),
(518,0,l),
(651,0,l),
(971,715,l),
(830,715,l),
(682,361,ls),
(655,296,o),
(619,202,o),
(619,202,c),
(617,202,l),
(617,202,o),
(616,296,o),
(613,360,cs),
(596,715,l),
(461,715,l),
(319,359,ls),
(292,291,o),
(259,202,o),
(259,202,c),
(257,202,l),
(257,202,o),
(258,293,o),
(254,360,cs),
(233,715,l),
(88,715,l)
);
}
);
width = 892;
}
);
note = W;
unicode = 87;
},
{
glyphname = X;
kernLeft = X;
kernRight = X;
layers = (
{
hints = (
{
horizontal = 1;
place = (0, 21);
target = up;
type = BottomGhost;
},
{
horizontal = 1;
place = (715, -20);
target = down;
type = TopGhost;
},
{
place = (-43, 720);
place = (-43, 720);
type = Stem;
}
);
layerId = m01;
shapes = (
{
closed = 1;
nodes = (
(-43,0,l),
(119,0,l),
(313,265,l),
(315,265,l),
(406,0,l),
(566,0,l),
(412,367,l),
(677,715,l),
(523,715,l),
(352,484,l),
(350,484,l),
(265,715,l),
(112,715,l),
(249,382,l)
);
}
);
width = 623;
}
);
note = X;
unicode = 88;
},
{
glyphname = Y;
kernLeft = Yacute;
kernRight = Yacute;
layers = (
{
hints = (
{
horizontal = 1;
place = (0, 21);
target = up;
type = BottomGhost;
},
{
horizontal = 1;
place = (715, -20);
target = down;
type = TopGhost;
},
{
place = (90, 601);
place = (90, 601);
type = Stem;
}
);
layerId = m01;
shapes = (
{
closed = 1;
nodes = (
(176,0,l),
(319,0,l),
(372,276,l),
(691,715,l),
(536,715,l),
(391,506,ls),
(360,461,o),
(326,403,o),
(326,403,c),
(324,403,l),
(324,403,o),
(311,466,o),
(298,510,cs),
(237,715,l),
(90,715,l),
(230,280,l)
);
}
);
width = 607;
}
);
note = Y;
unicode = 89;
},
{
glyphname = Z;
kernLeft = Zcaron;
kernRight = Zcaron;
layers = (
{
hints = (
{
horizontal = 1;
place = (0, 119);
place = (0, 119);
type = Stem;
},
{
horizontal = 1;
place = (598, 117);
place = (598, 117);
type = Stem;
},
{
place = (-23, 681);
place = (-23, 681);
type = Stem;
}
);
layerId = m01;
shapes = (
{
closed = 1;
nodes = (
(-23,0,l),
(526,0,l),
(548,119,l),
(183,119,l),
(183,122,l),
(636,598,l),
(658,715,l),
(139,715,l),
(117,598,l),
(465,598,l),
(465,595,l),
(-3,105,l)
);
}
);
width = 606;
}
);
note = Z;
unicode = 90;
},
{
glyphname = bracketleft;
kernRight = bracketleft;
layers = (
{
hints = (
{
horizontal = 1;
place = (-131, 104);
place = (-131, 104);
type = Stem;
},
{
horizontal = 1;
place = (650, 104);
place = (650, 104);
type = Stem;
},
{
place = (-13, 453);
place = (-13, 453);
type = Stem;
}
);
layerId = m01;
shapes = (
{
closed = 1;
nodes = (
(-13,-131,l),
(268,-131,l),
(289,-27,l),
(137,-27,l),
(267,650,l),
(419,650,l),
(440,754,l),
(159,754,l)
);
}
);
width = 371;
}
);
note = bracketleft;
unicode = 91;
},
{
glyphname = backslash;
kernLeft = backslash;
kernRight = backslash;
layers = (
{
hints = (
{
horizontal = 1;
place = (0, 21);
target = up;
type = BottomGhost;
},
{
horizontal = 1;
place = (715, -20);
target = down;
type = TopGhost;
},
{
place = (84, 278);
place = (84, 278);
type = Stem;
}
);
layerId = m01;
shapes = (
{
closed = 1;
nodes = (
(261,0,l),
(362,0,l),
(185,715,l),
(84,715,l)
);
}
);
width = 407;
}
);
note = backslash;
unicode = 92;
},
{
glyphname = bracketright;
kernLeft = bracketright;
layers = (
{
hints = (
{
horizontal = 1;
place = (-131, 104);
place = (-131, 104);
type = Stem;
},
{
horizontal = 1;
place = (650, 104);
place = (650, 104);
type = Stem;
},
{
place = (-50, 454);
place = (-50, 454);
type = Stem;
}
);
layerId = m01;
shapes = (
{
closed = 1;
nodes = (
(-50,-131,l),
(232,-131,l),
(404,754,l),
(122,754,l),
(101,650,l),
(254,650,l),
(124,-27,l),
(-29,-27,l)
);
}
);
width = 371;
}
);
note = bracketright;
unicode = 93;
},
{
glyphname = asciicircum;
layers = (
{
hints = (
{
horizontal = 1;
place = (428, 287);
place = (428, 287);
type = Stem;
},
{
place = (43, 424);
place = (43, 424);
type = Stem;
},
{
horizontal = 1;
place = (600, 115);
place = (600, 115);
type = Stem;
}
);
layerId = m01;
shapes = (
{
closed = 1;
nodes = (
(43,428,l),
(165,428,l),
(286,600,l),
(288,600,l),
(347,428,l),
(467,428,l),
(360,715,l),
(248,715,l)
);
}
);
width = 440;
}
);
note = asciicircum;
unicode = 94;
},
{
glyphname = underscore;
layers = (
{
hints = (
{
horizontal = 1;
place = (-168, 83);
place = (-168, 83);
type = Stem;
},
{
place = (-85, 436);
place = (-85, 436);
type = Stem;
}
);
layerId = m01;
shapes = (
{
closed = 1;
nodes = (
(-85,-168,l),
(335,-168,l),
(351,-85,l),
(-69,-85,l)
);
}
);
width = 416;
}
);
note = underscore;
unicode = 95;
},
{
glyphname = grave;
layers = (
{
hints = (
{
horizontal = 1;
place = (577, 141);
place = (577, 141);
type = Stem;
},
{
place = (186, 187);
place = (186, 187);
type = Stem;
}
);
layerId = m01;
shapes = (
{
closed = 1;
nodes = (
(271,577,l),
(373,577,l),
(332,718,l),
(186,718,l)
);
}
);
width = 492;
}
);
note = grave;
unicode = 96;
},
{
glyphname = a;
kernLeft = a;
kernRight = a;
layers = (
{
hints = (
{
horizontal = 1;
place = (0, 81);
place = (0, 81);
type = Stem;
},
{
horizontal = 1;
place = (430, 96);
place = (430, 96);
type = Stem;
},
{
place = (-2, 129);
place = (-2, 129);
type = Stem;
},
{
place = (306, 134);
place = (306, 134);
type = Stem;
},
{
horizontal = 1;
place = (-12, 93);
place = (-12, 93);
type = Stem;
},
{
place = (364, 125);
place = (364, 125);
type = Stem;
}
);
layerId = m01;
shapes = (
{
closed = 1;
nodes = (
(440,0,l),
(440,5,l),
(432,17,o),
(429,41,o),
(436,76,cs),
(484,322,ls),
(512,471,o),
(416,526,o),
(289,526,cs),
(157,526,o),
(76,462,o),
(59,357,c),
(179,357,l),
(191,408,o),
(228,430,o),
(284,430,cs),
(335,430,o),
(364,410,o),
(364,373,cs),
(364,322,o),
(327,318,o),
(231,310,cs),
(106,300,o),
(-2,275,o),
(-2,139,cs),
(-2,33,o),
(82,-12,o),
(161,-12,cs),
(235,-12,o),
(273,23,o),
(304,56,c),
(306,56,l),
(305,33,o),
(307,11,o),
(313,0,c)
);
},
{
closed = 1;
nodes = (
(127,221,o),
(198,218,o),
(247,227,cs),
(291,235,o),
(319,241,o),
(345,253,c),
(329,172,ls),
(319,125,o),
(274,81,o),
(204,81,cs),
(159,81,o),
(127,105,o),
(127,151,cs)
);
}
);
width = 514;
}
);
note = a;
unicode = 97;
},
{
glyphname = b;
kernLeft = b;
kernRight = thorn;
layers = (
{
hints = (
{
horizontal = 1;
place = (-15, 113);
place = (-15, 113);
type = Stem;
},
{
horizontal = 1;
place = (418, 109);
place = (418, 109);
type = Stem;
},
{
horizontal = 1;
place = (715, -20);
target = down;
type = TopGhost;
},
{
place = (405, 138);
place = (405, 138);
type = Stem;
},
{
horizontal = 1;
place = (0, 21);
target = up;
type = BottomGhost;
}
);
layerId = m01;
shapes = (
{
closed = 1;
nodes = (
(464,-15,o),
(543,146,o),
(543,311,cs),
(543,437,o),
(478,527,o),
(364,527,cs),
(301,527,o),
(251,495,o),
(217,453,c),
(214,453,l),
(265,715,l),
(131,715,l),
(-7,0,l),
(122,0,l),
(136,75,l),
(138,75,l),
(167,10,o),
(229,-15,o),
(293,-15,cs)
);
},
{
closed = 1;
nodes = (
(169,305,o),
(211,418,o),
(310,418,cs),
(383,418,o),
(405,361,o),
(405,301,cs),
(405,209,o),
(371,98,o),
(274,98,cs),
(200,98,o),
(169,153,o),
(169,216,cs)
);
}
);
width = 559;
}
);
note = b;
unicode = 98;
},
{
glyphname = c;
kernLeft = c;
kernRight = c;
layers = (
{
hints = (
{
horizontal = 1;
place = (-15, 108);
place = (-15, 108);
type = Stem;
},
{
horizontal = 1;
place = (419, 108);
place = (419, 108);
type = Stem;
},
{
place = (16, 134);
place = (16, 134);
type = Stem;
}
);
layerId = m01;
shapes = (
{
closed = 1;
nodes = (
(371,-15,o),
(462,58,o),
(490,181,c),
(360,181,l),
(342,120,o),
(303,93,o),
(253,93,cs),
(179,93,o),
(150,142,o),
(150,208,cs),
(150,306,o),
(193,419,o),
(292,419,cs),
(346,419,o),
(373,388,o),
(378,339,c),
(509,339,l),
(502,473,o),
(410,527,o),
(296,527,cs),
(121,527,o),
(16,370,o),
(16,212,cs),
(16,55,o),
(120,-15,o),
(245,-15,cs)
);
}
);
width = 514;
}
);
note = c;
unicode = 99;
},
{
glyphname = d;
kernLeft = d;
kernRight = d;
layers = (
{
hints = (
{
horizontal = 1;
place = (-15, 111);
place = (-15, 111);
type = Stem;
},
{
horizontal = 1;
place = (418, 109);
place = (418, 109);
type = Stem;
},
{
horizontal = 1;
place = (715, -20);
target = down;
type = TopGhost;
},
{
place = (18, 136);
place = (18, 136);
type = Stem;
},
{
horizontal = 1;
place = (0, 96);
place = (0, 96);
type = Stem;
}
);
layerId = m01;
shapes = (
{
closed = 1;
nodes = (
(272,-15,o),
(313,10,o),
(349,56,c),
(351,56,l),
(341,0,l),
(470,0,l),
(608,715,l),
(474,715,l),
(422,444,l),
(419,444,l),
(393,497,o),
(343,527,o),
(275,527,cs),
(114,527,o),
(18,368,o),
(18,210,cs),
(18,73,o),
(92,-15,o),
(208,-15,cs)
);
},
{
closed = 1;
nodes = (
(154,307,o),
(196,418,o),
(290,418,cs),
(362,418,o),
(394,364,o),
(394,291,cs),
(394,202,o),
(349,96,o),
(252,96,cs),
(179,96,o),
(154,150,o),
(154,218,cs)
);
}
);
width = 563;
}
);
note = d;
unicode = 100;
},
{
glyphname = e;
kernLeft = c;
kernRight = e;
layers = (
{
hints = (
{
horizontal = 1;
place = (-15, 104);
place = (-15, 104);
type = Stem;
},
{
horizontal = 1;
place = (219, 93);
place = (219, 93);
type = Stem;
},
{
horizontal = 1;
place = (423, 104);
place = (423, 104);
type = Stem;
},
{
place = (16, 133);
place = (16, 133);
type = Stem;
},
{
place = (382, 129);
place = (382, 129);
type = Stem;
}
);
layerId = m01;
shapes = (
{
closed = 1;
nodes = (
(506,219,l),
(525,342,o),
(497,444,o),
(420,494,cs),
(386,516,o),
(347,527,o),
(291,527,cs),
(125,527,o),
(16,370,o),
(16,221,cs),
(16,59,o),
(119,-15,o),
(252,-15,cs),
(314,-14,o),
(369,4,o),
(412,38,cs),
(448,66,o),
(475,105,o),
(491,153,c),
(359,153,l),
(340,109,o),
(301,89,o),
(254,89,cs),
(176,89,o),
(149,138,o),
(149,219,c)
);
},
{
closed = 1;
nodes = (
(357,423,o),
(384,372,o),
(382,312,c),
(161,312,l),
(179,372,o),
(217,423,o),
(288,423,cs)
);
}
);
width = 532;
}
);
note = e;
unicode = 101;
},
{
glyphname = f;
kernLeft = f;
kernRight = f;
layers = (
{
hints = (
{
horizontal = 1;
place = (0, 21);
target = up;
type = BottomGhost;
},
{
horizontal = 1;
place = (419, 94);
place = (419, 94);
type = Stem;
},
{
horizontal = 1;
place = (610, 107);
place = (610, 107);
type = Stem;
},
{
place = (30, 360);
place = (30, 360);
type = Stem;
}
);
layerId = m01;
shapes = (
{
closed = 1;
nodes = (
(44,419,l),
(111,419,l),
(30,0,l),
(163,0,l),
(244,419,l),
(333,419,l),
(351,513,l),
(262,513,l),
(271,556,ls),
(279,596,o),
(295,610,o),
(332,610,cs),
(343,610,o),
(356,609,o),
(370,607,c),
(390,711,l),
(365,715,o),
(341,717,o),
(318,717,cs),
(227,716,o),
(161,677,o),
(141,574,cs),
(129,513,l),
(62,513,l)
);
}
);
width = 319;
}
);
note = f;
unicode = 102;
},
{
glyphname = g;
kernLeft = g;
kernRight = g;
layers = (
{
hints = (
{
horizontal = 1;
place = (-175, 102);
place = (-175, 102);
type = Stem;
},
{
horizontal = 1;
place = (31, 108);
place = (31, 108);
type = Stem;
},
{
horizontal = 1;
place = (419, 108);
place = (419, 108);
type = Stem;
},
{
place = (20, 133);
place = (20, 133);
type = Stem;
},
{
horizontal = 1;
place = (513, -20);
target = down;
type = TopGhost;
}
);
layerId = m01;
shapes = (
{
closed = 1;
nodes = (
(298,-175,o),
(348,-156,o),
(389,-118,cs),
(426,-84,o),
(450,-40,o),
(462,22,cs),
(557,513,l),
(428,513,l),
(416,451,l),
(414,451,l),
(389,499,o),
(336,527,o),
(270,527,cs),
(115,527,o),
(20,390,o),
(20,240,cs),
(20,117,o),
(97,31,o),
(213,31,cs),
(273,31,o),
(305,53,o),
(339,87,c),
(342,87,l),
(332,35,ls),
(320,-30,o),
(285,-73,o),
(221,-73,cs),
(173,-73,o),
(147,-52,o),
(139,-15,c),
(3,-15,l),
(16,-130,o),
(116,-175,o),
(218,-175,cs)
);
},
{
closed = 1;
nodes = (
(186,139,o),
(153,186,o),
(153,250,cs),
(153,341,o),
(202,419,o),
(285,419,cs),
(351,419,o),
(386,371,o),
(387,305,cs),
(388,220,o),
(337,139,o),
(252,139,cs)
);
}
);
width = 551;
}
);
note = g;
unicode = 103;
},
{
glyphname = h;
kernLeft = b;
kernRight = h;
layers = (
{
hints = (
{
horizontal = 1;
place = (0, 21);
target = up;
type = BottomGhost;
},
{
horizontal = 1;
place = (413, 114);
place = (413, 114);
type = Stem;
},
{
horizontal = 1;
place = (715, -20);
target = down;
type = TopGhost;
},
{
place = (376, 138);
place = (376, 138);
type = Stem;
}
);
layerId = m01;
shapes = (
{
closed = 1;
nodes = (
(265,715,l),
(131,715,l),
(-7,0,l),
(127,0,l),
(181,280,ls),
(195,355,o),
(238,413,o),
(303,413,cs),
(360,413,o),
(386,376,o),
(373,308,cs),
(313,0,l),
(447,0,l),
(509,324,ls),
(532,444,o),
(473,527,o),
(371,527,cs),
(298,527,o),
(258,499,o),
(216,442,c),
(213,442,l)
);
}
);
width = 536;
}
);
note = h;
unicode = 104;
},
{
glyphname = i;
kernLeft = b;
kernRight = d;
layers = (
{
hints = (
{
horizontal = 1;
place = (0, 21);
target = up;
type = BottomGhost;
},
{
horizontal = 1;
place = (513, -20);
target = down;
type = TopGhost;
},
{
horizontal = 1;
place = (593, 122);
place = (593, 122);
type = Stem;
},
{
place = (-7, 272);
place = (-7, 272);
type = Stem;
}
);
layerId = m01;
shapes = (
{
closed = 1;
nodes = (
(-7,0,l),
(127,0,l),
(226,513,l),
(92,513,l)
);
},
{
closed = 1;
nodes = (
(108,593,l),
(242,593,l),
(265,715,l),
(131,715,l)
);
}
);
width = 220;
}
);
note = i;
unicode = 105;
},
{
glyphname = j;
kernLeft = j;
kernRight = j;
layers = (
{
hints = (
{
horizontal = 1;
place = (-169, 106);
place = (-169, 106);
type = Stem;
},
{
horizontal = 1;
place = (513, -20);
target = down;
type = TopGhost;
},
{
horizontal = 1;
place = (593, 122);
place = (593, 122);
type = Stem;
},
{
place = (-115, 380);
place = (-115, 380);
type = Stem;
}
);
layerId = m01;
shapes = (
{
closed = 1;
nodes = (
(8,-169,o),
(40,-160,o),
(67,-139,cs),
(92,-119,o),
(108,-91,o),
(120,-32,cs),
(226,513,l),
(92,513,l),
(-11,-18,ls),
(-19,-60,o),
(-48,-65,o),
(-97,-63,c),
(-115,-159,l),
(-86,-167,o),
(-57,-169,o),
(-33,-169,cs)
);
},
{
closed = 1;
nodes = (
(108,593,l),
(242,593,l),
(265,715,l),
(131,715,l)
);
}
);
width = 220;
}
);
note = j;
unicode = 106;
},
{
glyphname = k;
kernLeft = b;
kernRight = k;
layers = (
{
hints = (
{
horizontal = 1;
place = (0, 21);
target = up;
type = BottomGhost;
},
{
horizontal = 1;
place = (513, -20);
target = down;
type = TopGhost;
},
{
horizontal = 1;
place = (715, -20);
target = down;
type = TopGhost;
},
{
place = (-7, 558);
place = (-7, 558);
type = Stem;
}
);
layerId = m01;
shapes = (
{
closed = 1;
nodes = (
(331,0,l),
(480,0,l),
(337,312,l),
(551,513,l),
(387,513,l),
(186,314,l),
(264,715,l),
(131,715,l),
(-7,0,l),
(126,0,l),
(157,164,l),
(233,232,l)
);
}
);
width = 523;
}
);
note = k;
unicode = 107;
},
{
glyphname = l;
kernLeft = b;
kernRight = d;
layers = (
{
hints = (
{
horizontal = 1;
place = (0, 21);
target = up;
type = BottomGhost;
},
{
horizontal = 1;
place = (715, -20);
target = down;
type = TopGhost;
},
{
place = (-5, 272);
place = (-5, 272);
type = Stem;
}
);
layerId = m01;
shapes = (
{
closed = 1;
nodes = (
(-5,0,l),
(129,0,l),
(267,715,l),
(133,715,l)
);
}
);
width = 224;
}
);
note = l;
unicode = 108;
},
{
glyphname = m;
kernLeft = m;
kernRight = h;
layers = (
{
hints = (
{
horizontal = 1;
place = (0, 21);
target = up;
type = BottomGhost;
},
{
horizontal = 1;
place = (413, 114);
place = (413, 114);
type = Stem;
},
{
place = (653, 137);
place = (653, 137);
type = Stem;
},
{
horizontal = 1;
place = (413, 100);
place = (413, 100);
type = Stem;
}
);
layerId = m01;
shapes = (
{
closed = 1;
nodes = (
(-7,0,l),
(127,0,l),
(181,283,ls),
(196,362,o),
(234,413,o),
(291,413,cs),
(338,413,o),
(364,379,o),
(352,315,cs),
(291,0,l),
(425,0,l),
(479,283,ls),
(494,362,o),
(532,413,o),
(589,413,cs),
(636,413,o),
(662,379,o),
(650,315,cs),
(589,0,l),
(723,0,l),
(784,319,ls),
(811,455,o),
(741,527,o),
(649,527,cs),
(581,527,o),
(525,499,o),
(479,429,c),
(477,429,l),
(462,486,o),
(423,527,o),
(354,527,cs),
(291,527,o),
(245,493,o),
(210,438,c),
(207,438,l),
(221,513,l),
(92,513,l)
);
}
);
width = 812;
}
);
note = m;
unicode = 109;
},
{
glyphname = n;
kernLeft = m;
kernRight = h;
layers = (
{
hints = (
{
horizontal = 1;
place = (0, 21);
target = up;
type = BottomGhost;
},
{
horizontal = 1;
place = (413, 100);
place = (413, 100);
type = Stem;
},
{
place = (376, 138);
place = (376, 138);
type = Stem;
},
{
horizontal = 1;
place = (413, 114);
place = (413, 114);
type = Stem;
}
);
layerId = m01;
shapes = (
{
closed = 1;
nodes = (
(223,513,l),
(92,513,l),
(-7,0,l),
(127,0,l),
(181,280,ls),
(195,355,o),
(240,413,o),
(303,413,cs),
(360,413,o),
(386,376,o),
(373,308,cs),
(313,0,l),
(447,0,l),
(509,324,ls),
(532,444,o),
(473,527,o),
(371,527,cs),
(298,527,o),
(255,495,o),
(211,432,c),
(208,432,l)
);
}
);
width = 536;
}
);
note = n;
unicode = 110;
},
{
glyphname = o;
kernLeft = c;
kernRight = o;
layers = (
{
hints = (
{
horizontal = 1;
place = (-15, 101);
place = (-15, 101);
type = Stem;
},
{
horizontal = 1;
place = (426, 101);
place = (426, 101);
type = Stem;
},
{
place = (17, 134);
place = (17, 134);
type = Stem;
},
{
place = (409, 134);
place = (409, 134);
type = Stem;
}
);
layerId = m01;
shapes = (
{
closed = 1;
nodes = (
(433,-15,o),
(543,129,o),
(543,293,cs),
(543,445,o),
(437,527,o),
(306,527,cs),
(131,527,o),
(17,386,o),
(17,224,cs),
(17,67,o),
(124,-15,o),
(258,-15,cs)
);
},
{
closed = 1;
nodes = (
(151,315,o),
(196,426,o),
(299,426,cs),
(378,426,o),
(409,364,o),
(409,297,cs),
(409,199,o),
(365,86,o),
(261,86,cs),
(182,86,o),
(151,146,o),
(151,216,cs)
);
}
);
width = 561;
}
);
note = o;
unicode = 111;
},
{
glyphname = p;
kernLeft = p;
kernRight = thorn;
layers = (
{
hints = (
{
horizontal = 1;
place = (-168, 21);
target = up;
type = BottomGhost;
},
{
horizontal = 1;
place = (-15, 112);
place = (-15, 112);
type = Stem;
},
{
horizontal = 1;
place = (418, 95);
place = (418, 95);
type = Stem;
},
{
place = (409, 137);
place = (409, 137);
type = Stem;
},
{
horizontal = 1;
place = (418, 109);
place = (418, 109);
type = Stem;
}
);
layerId = m01;
shapes = (
{
closed = 1;
nodes = (
(-40,-168,l),
(94,-168,l),
(141,72,l),
(143,72,l),
(172,12,o),
(231,-15,o),
(293,-15,cs),
(472,-15,o),
(546,158,o),
(546,303,cs),
(546,431,o),
(484,527,o),
(369,527,cs),
(300,527,o),
(248,496,o),
(212,450,c),
(209,450,l),
(221,513,l),
(92,513,l)
);
},
{
closed = 1;
nodes = (
(168,308,o),
(215,418,o),
(311,418,cs),
(384,418,o),
(409,358,o),
(409,298,cs),
(409,204,o),
(374,97,o),
(273,97,cs),
(200,97,o),
(168,153,o),
(168,215,cs)
);
}
);
width = 562;
}
);
note = p;
unicode = 112;
},
{
glyphname = q;
kernLeft = d;
kernRight = q;
layers = (
{
hints = (
{
horizontal = 1;
place = (-168, 21);
target = up;
type = BottomGhost;
},
{
horizontal = 1;
place = (-15, 113);
place = (-15, 113);
type = Stem;
},
{
horizontal = 1;
place = (420, 107);
place = (420, 107);
type = Stem;
},
{
place = (18, 136);
place = (18, 136);
type = Stem;
},
{
horizontal = 1;
place = (513, -20);
target = down;
type = TopGhost;
}
);
layerId = m01;
shapes = (
{
closed = 1;
nodes = (
(264,-15,o),
(315,14,o),
(345,60,c),
(347,60,l),
(303,-168,l),
(437,-168,l),
(569,513,l),
(440,513,l),
(427,445,l),
(424,445,l),
(398,498,o),
(343,527,o),
(275,527,cs),
(111,527,o),
(18,368,o),
(18,210,cs),
(18,63,o),
(88,-15,o),
(205,-15,cs)
);
},
{
closed = 1;
nodes = (
(154,308,o),
(195,420,o),
(293,420,cs),
(361,420,o),
(395,370,o),
(395,293,cs),
(395,197,o),
(342,98,o),
(249,98,cs),
(172,98,o),
(154,153,o),
(154,219,cs)
);
}
);
width = 563;
}
);
note = q;
unicode = 113;
},
{
glyphname = r;
kernLeft = m;
kernRight = r;
layers = (
{
hints = (
{
horizontal = 1;
place = (0, 21);
target = up;
type = BottomGhost;
},
{
horizontal = 1;
place = (513, -20);
target = down;
type = TopGhost;
},
{
place = (-7, 388);
place = (-7, 388);
type = Stem;
},
{
horizontal = 1;
place = (515, -20);
target = down;
type = TopGhost;
},
{
horizontal = 1;
place = (519, -20);
target = down;
type = TopGhost;
}
);
layerId = m01;
shapes = (
{
closed = 1;
nodes = (
(221,513,l),
(92,513,l),
(-7,0,l),
(127,0,l),
(175,250,ls),
(197,366,o),
(262,409,o),
(355,397,cs),
(358,397,l),
(381,515,l),
(374,517,o),
(362,519,o),
(343,519,cs),
(279,519,o),
(238,482,o),
(208,431,c),
(205,431,l)
);
}
);
width = 348;
}
);
note = r;
unicode = 114;
},
{
glyphname = s;
kernLeft = scaron;
kernRight = scaron;
layers = (
{
hints = (
{
horizontal = 1;
place = (-15, 98);
place = (-15, 98);
type = Stem;
},
{
horizontal = 1;
place = (431, 96);
place = (431, 96);
type = Stem;
},
{
place = (42, 119);
place = (42, 119);
type = Stem;
},
{
place = (308, 123);
place = (308, 123);
type = Stem;
}
);
layerId = m01;
shapes = (
{
closed = 1;
nodes = (
(354,-15,o),
(431,47,o),
(431,157,cs),
(431,247,o),
(360,285,o),
(286,310,cs),
(207,337,o),
(161,345,o),
(161,380,cs),
(161,419,o),
(202,431,o),
(238,431,cs),
(295,431,o),
(323,397,o),
(329,357,c),
(452,357,l),
(443,469,o),
(357,527,o),
(242,527,cs),
(125,527,o),
(42,469,o),
(42,365,cs),
(42,274,o),
(111,241,o),
(189,215,cs),
(264,190,o),
(308,176,o),
(308,139,cs),
(308,100,o),
(273,83,o),
(224,83,cs),
(154,83,o),
(124,122,o),
(119,166,c),
(-8,166,l),
(1,37,o),
(100,-15,o),
(224,-15,cs)
);
}
);
width = 472;
}
);
note = s;
unicode = 115;
},
{
glyphname = t;
kernLeft = t;
kernRight = t;
layers = (
{
hints = (
{
horizontal = 1;
place = (-1, 101);
place = (-1, 101);
type = Stem;
},
{
horizontal = 1;
place = (423, 90);
place = (423, 90);
type = Stem;
},
{
place = (46, 299);
place = (46, 299);
type = Stem;
}
);
layerId = m01;
shapes = (
{
closed = 1;
nodes = (
(46,423,l),
(111,423,l),
(56,143,ls),
(35,37,o),
(84,-1,o),
(188,-1,cs),
(215,-1,o),
(249,2,o),
(249,2,c),
(268,102,l),
(268,102,o),
(243,100,o),
(228,100,cs),
(195,100,o),
(182,116,o),
(190,156,cs),
(242,423,l),
(328,423,l),
(345,513,l),
(259,513,l),
(290,673,l),
(159,673,l),
(128,513,l),
(63,513,l)
);
}
);
width = 322;
}
);
note = t;
unicode = 116;
},
{
glyphname = u;
kernLeft = u;
kernRight = u;
layers = (
{
hints = (
{
horizontal = 1;
place = (0, 99);
place = (0, 99);
type = Stem;
},
{
horizontal = 1;
place = (513, -20);
target = down;
type = TopGhost;
},
{
place = (19, 137);
place = (19, 137);
type = Stem;
},
{
horizontal = 1;
place = (-14, 113);
place = (-14, 113);
type = Stem;
}
);
layerId = m01;
shapes = (
{
closed = 1;
nodes = (
(306,0,l),
(435,0,l),
(534,513,l),
(400,513,l),
(346,233,ls),
(330,151,o),
(287,99,o),
(224,99,cs),
(167,99,o),
(146,134,o),
(160,205,cs),
(220,513,l),
(86,513,l),
(24,189,ls),
(0,63,o),
(56,-14,o),
(164,-14,cs),
(231,-14,o),
(277,17,o),
(317,73,c),
(320,73,l)
);
}
);
width = 530;
}
);
note = u;
unicode = 117;
},
{
glyphname = v;
kernLeft = v;
kernRight = v;
layers = (
{
hints = (
{
horizontal = 1;
place = (0, 21);
target = up;
type = BottomGhost;
},
{
horizontal = 1;
place = (513, -20);
target = down;
type = TopGhost;
},
{
place = (51, 474);
place = (51, 474);
type = Stem;
}
);
layerId = m01;
shapes = (
{
closed = 1;
nodes = (
(136,0,l),
(264,0,l),
(525,513,l),
(391,513,l),
(267,247,ls),
(243,198,o),
(230,162,o),
(230,162,c),
(228,162,l),
(228,162,o),
(226,198,o),
(219,254,cs),
(187,513,l),
(51,513,l)
);
}
);
width = 478;
}
);
note = v;
unicode = 118;
},
{
glyphname = w;
kernLeft = w;
kernRight = w;
layers = (
{
hints = (
{
horizontal = 1;
place = (0, 21);
target = up;
type = BottomGhost;
},
{
horizontal = 1;
place = (513, -20);
target = down;
type = TopGhost;
},
{
place = (53, 717);
place = (53, 717);
type = Stem;
},
{
horizontal = 1;
place = (177, 336);
place = (177, 336);
type = Stem;
}
);
layerId = m01;
shapes = (
{
closed = 1;
nodes = (
(111,0,l),
(232,0,l),
(343,252,ls),
(361,293,o),
(383,352,o),
(383,352,c),
(385,352,l),
(385,352,o),
(390,293,o),
(394,252,cs),
(421,0,l),
(541,0,l),
(770,513,l),
(638,513,l),
(542,275,ls),
(525,233,o),
(503,177,o),
(503,177,c),
(501,177,l),
(501,177,o),
(499,233,o),
(494,276,cs),
(466,513,l),
(352,513,l),
(249,276,ls),
(231,234,o),
(209,177,o),
(209,177,c),
(207,177,l),
(207,177,o),
(205,233,o),
(202,275,cs),
(183,513,l),
(53,513,l)
);
}
);
width = 728;
}
);
note = w;
unicode = 119;
},
{
glyphname = x;
kernLeft = x;
kernRight = x;
layers = (
{
hints = (
{
horizontal = 1;
place = (0, 21);
target = up;
type = BottomGhost;
},
{
horizontal = 1;
place = (513, -20);
target = down;
type = TopGhost;
},
{
place = (-46, 575);
place = (-46, 575);
type = Stem;
}
);
layerId = m01;
shapes = (
{
closed = 1;
nodes = (
(-46,0,l),
(103,0,l),
(235,170,l),
(237,170,l),
(306,0,l),
(455,0,l),
(329,260,l),
(529,513,l),
(383,513,l),
(274,357,l),
(272,357,l),
(210,513,l),
(65,513,l),
(179,274,l)
);
}
);
width = 510;
}
);
note = x;
unicode = 120;
},
{
glyphname = y;
kernLeft = yacute;
kernRight = yacute;
layers = (
{
hints = (
{
horizontal = 1;
place = (-168, 106);
place = (-168, 106);
type = Stem;
},
{
horizontal = 1;
place = (513, -20);
target = down;
type = TopGhost;
},
{
place = (-13, 543);
place = (-13, 543);
type = Stem;
}
);
layerId = m01;
shapes = (
{
closed = 1;
nodes = (
(-13,-168,l),
(71,-168,ls),
(170,-168,o),
(214,-128,o),
(265,-25,cs),
(530,513,l),
(394,513,l),
(288,280,ls),
(266,232,o),
(241,164,o),
(241,164,c),
(239,164,l),
(239,164,o),
(231,233,o),
(224,280,cs),
(189,513,l),
(49,513,l),
(123,148,ls),
(134,96,o),
(140,58,o),
(140,33,cs),
(140,-31,o),
(108,-62,o),
(51,-62,cs),
(8,-62,l)
);
}
);
width = 488;
}
);
note = y;
unicode = 121;
},
{
glyphname = z;
kernLeft = zcaron;
kernRight = zcaron;
layers = (
{
hints = (
{
horizontal = 1;
place = (0, 107);
place = (0, 107);
type = Stem;
},
{
horizontal = 1;
place = (408, 105);
place = (408, 105);
type = Stem;
},
{
place = (-27, 503);
place = (-27, 503);
type = Stem;
}
);
layerId = m01;
shapes = (
{
closed = 1;
nodes = (
(-27,0,l),
(393,0,l),
(414,107,l),
(158,107,l),
(158,110,l),
(455,406,l),
(476,513,l),
(89,513,l),
(68,408,l),
(296,408,l),
(296,405,l),
(-7,102,l)
);
}
);
width = 461;
}
);
note = z;
unicode = 122;
},
{
glyphname = braceleft;
kernRight = bracketleft;
layers = (
{
hints = (
{
horizontal = 1;
place = (-131, 106);
place = (-131, 106);
type = Stem;
},
{
horizontal = 1;
place = (648, 106);
place = (648, 106);
type = Stem;
},
{
place = (62, 130);
place = (62, 130);
type = Stem;
},
{
place = (96, 132);
place = (96, 132);
type = Stem;
}
);
layerId = m01;
shapes = (
{
closed = 1;
nodes = (
(268,-131,l),
(289,-25,l),
(266,-25,ls),
(210,-25,o),
(183,-7,o),
(195,56,cs),
(224,202,ls),
(236,262,o),
(221,292,o),
(184,311,c),
(184,314,l),
(226,329,o),
(254,348,o),
(265,408,cs),
(294,565,ls),
(306,630,o),
(324,648,o),
(378,648,cs),
(419,648,l),
(440,754,l),
(373,754,ls),
(264,754,o),
(195,728,o),
(167,575,cs),
(142,440,ls),
(133,390,o),
(110,369,o),
(46,367,c),
(27,270,l),
(91,266,o),
(103,239,o),
(93,189,cs),
(68,66,ls),
(39,-78,o),
(109,-131,o),
(249,-131,cs)
);
}
);
width = 371;
}
);
note = braceleft;
unicode = 123;
},
{
glyphname = bar;
layers = (
{
hints = (
{
horizontal = 1;
place = (-131, 885);
place = (-131, 885);
type = Stem;
},
{
place = (102, 82);
place = (102, 82);
type = Stem;
}
);
layerId = m01;
shapes = (
{
closed = 1;
nodes = (
(102,-131,l),
(184,-131,l),
(184,754,l),
(102,754,l)
);
}
);
width = 247;
}
);
note = bar;
unicode = 124;
},
{
glyphname = braceright;
kernLeft = bracketright;
layers = (
{
hints = (
{
horizontal = 1;
place = (-131, 106);
place = (-131, 106);
type = Stem;
},
{
horizontal = 1;
place = (648, 106);
place = (648, 106);
type = Stem;
},
{
place = (198, 130);
place = (198, 130);
type = Stem;
},
{
place = (163, 132);
place = (163, 132);
type = Stem;
}
);
layerId = m01;
shapes = (
{
closed = 1;
nodes = (
(122,754,l),
(101,648,l),
(124,648,ls),
(180,648,o),
(207,630,o),
(195,567,cs),
(167,425,ls),
(155,365,o),
(170,335,o),
(207,316,c),
(207,313,l),
(165,298,o),
(137,279,o),
(126,219,cs),
(96,58,ls),
(84,-7,o),
(66,-25,o),
(12,-25,cs),
(-29,-25,l),
(-50,-131,l),
(17,-131,ls),
(126,-131,o),
(196,-99,o),
(223,48,cs),
(249,187,ls),
(258,237,o),
(281,258,o),
(345,260,c),
(364,357,l),
(300,361,o),
(288,388,o),
(298,438,cs),
(322,557,ls),
(351,701,o),
(281,754,o),
(141,754,cs)
);
}
);
width = 371;
}
);
note = braceright;
unicode = 125;
},
{
glyphname = asciitilde;
layers = (
{
hints = (
{
horizontal = 1;
place = (250, 156);
place = (250, 156);
type = Stem;
},
{
place = (35, 387);
place = (35, 387);
type = Stem;
},
{
horizontal = 1;
place = (253, 152);
place = (253, 152);
type = Stem;
}
);
layerId = m01;
shapes = (
{
closed = 1;
nodes = (
(124,250,l),
(131,279,o),
(143,291,o),
(163,291,cs),
(195,291,o),
(245,253,o),
(301,253,cs),
(373,253,o),
(411,310,o),
(422,405,c),
(334,405,l),
(329,378,o),
(319,367,o),
(295,367,cs),
(262,367,o),
(219,406,o),
(163,406,cs),
(100,406,o),
(48,359,o),
(35,250,c)
);
}
);
width = 419;
}
);
note = asciitilde;
unicode = 126;
},
{
glyphname = Adieresis;
kernLeft = A;
kernRight = A;
layers = (
{
hints = (
{
horizontal = 1;
place = (0, 21);
target = up;
type = BottomGhost;
},
{
horizontal = 1;
place = (153, 110);
place = (153, 110);
type = Stem;
},
{
horizontal = 1;
place = (715, -20);
target = down;
type = TopGhost;
},
{
horizontal = 1;
place = (753, 114);
place = (753, 114);
type = Stem;
},
{
place = (-49, 632);
place = (-49, 632);
type = Stem;
},
{
horizontal = 1;
place = (578, 137);
place = (578, 137);
type = Stem;
}
);
layerId = m01;
shapes = (
{
closed = 1;
nodes = (
(435,0,l),
(583,0,l),
(465,715,l),
(317,715,l),
(-49,0,l),
(96,0,l),
(168,153,l),
(415,153,l)
);
},
{
closed = 1;
nodes = (
(317,466,ls),
(335,504,o),
(365,578,o),
(365,578,c),
(367,578,l),
(367,578,o),
(371,505,o),
(376,464,cs),
(401,263,l),
(220,263,l)
);
},
{
closed = 1;
nodes = (
(429,753,l),
(555,753,l),
(578,867,l),
(452,867,l)
);
},
{
closed = 1;
nodes = (
(230,753,l),
(356,753,l),
(379,867,l),
(253,867,l)
);
}
);
width = 634;
}
);
note = Adieresis;
unicode = 196;
},
{
glyphname = Aring;
kernLeft = A;
kernRight = A;
layers = (
{
hints = (
{
horizontal = 1;
place = (0, 21);
target = up;
type = BottomGhost;
},
{
horizontal = 1;
place = (153, 110);
place = (153, 110);
type = Stem;
},
{
horizontal = 1;
place = (715, -20);
target = down;
type = TopGhost;
},
{
horizontal = 1;
place = (883, 47);
place = (883, 47);
type = Stem;
},
{
place = (305, 52);
place = (305, 52);
type = Stem;
},
{
place = (447, 52);
place = (447, 52);
type = Stem;
},
{
horizontal = 1;
place = (742, 47);
place = (742, 47);
type = Stem;
},
{
horizontal = 1;
place = (578, 137);
place = (578, 137);
type = Stem;
}
);
layerId = m01;
shapes = (
{
closed = 1;
nodes = (
(435,0,l),
(583,0,l),
(465,715,l),
(317,715,l),
(-49,0,l),
(96,0,l),
(168,153,l),
(415,153,l)
);
},
{
closed = 1;
nodes = (
(455,742,o),
(499,783,o),
(499,836,cs),
(499,888,o),
(455,930,o),
(402,930,cs),
(349,930,o),
(305,888,o),
(305,836,cs),
(305,783,o),
(349,742,o),
(402,742,cs)
);
},
{
closed = 1;
nodes = (
(317,466,ls),
(335,504,o),
(365,578,o),
(365,578,c),
(367,578,l),
(367,578,o),
(371,505,o),
(376,464,cs),
(401,263,l),
(220,263,l)
);
},
{
closed = 1;
nodes = (
(376,789,o),
(357,810,o),
(357,836,cs),
(357,862,o),
(376,883,o),
(402,883,cs),
(428,883,o),
(447,862,o),
(447,836,cs),
(447,810,o),
(428,789,o),
(402,789,cs)
);
}
);
width = 634;
}
);
note = Aring;
unicode = 197;
},
{
glyphname = Ccedilla;
kernLeft = C;
kernRight = C;
layers = (
{
hints = (
{
horizontal = 1;
place = (-192, 46);
place = (-192, 46);
type = Stem;
},
{
horizontal = 1;
place = (-86, 34);
place = (-86, 34);
type = Stem;
},
{
horizontal = 1;
place = (-12, 21);
target = up;
type = BottomGhost;
},
{
horizontal = 1;
place = (608, 121);
place = (608, 121);
type = Stem;
},
{
place = (35, 146);
place = (35, 146);
type = Stem;
},
{
place = (307, 80);
place = (307, 80);
type = Stem;
}
);
layerId = m01;
shapes = (
{
closed = 1;
nodes = (
(326,-192,o),
(387,-170,o),
(387,-111,cs),
(386,-65,o),
(340,-45,o),
(291,-52,c),
(291,-50,l),
(333,-15,l),
(419,-14,o),
(479,2,o),
(538,47,cs),
(594,90,o),
(630,155,o),
(650,230,c),
(509,230,l),
(484,151,o),
(426,103,o),
(342,103,cs),
(221,103,o),
(181,192,o),
(181,291,cs),
(181,439,o),
(250,608,o),
(406,608,cs),
(488,608,o),
(532,569,o),
(539,488,c),
(680,488,l),
(671,656,o),
(562,729,o),
(417,729,cs),
(175,729,o),
(35,507,o),
(35,289,cs),
(35,128,o),
(123,8,o),
(282,-12,c),
(221,-71,l),
(233,-93,l),
(245,-89,o),
(257,-86,o),
(271,-86,cs),
(291,-86,o),
(307,-95,o),
(307,-111,cs),
(307,-141,o),
(270,-146,o),
(249,-146,cs),
(225,-146,o),
(199,-140,o),
(181,-131,c),
(160,-163,l),
(186,-181,o),
(215,-192,o),
(268,-192,cs)
);
}
);
width = 673;
}
);
note = Ccedilla;
unicode = 199;
},
{
glyphname = Eacute;
kernRight = E;
layers = (
{
hints = (
{
horizontal = 1;
place = (0, 120);
place = (0, 120);
type = Stem;
},
{
horizontal = 1;
place = (315, 118);
place = (315, 118);
type = Stem;
},
{
horizontal = 1;
place = (594, 121);
place = (594, 121);
type = Stem;
},
{
horizontal = 1;
place = (753, 125);
place = (753, 125);
type = Stem;
},
{
place = (4, 636);
place = (4, 636);
type = Stem;
}
);
layerId = m01;
shapes = (
{
closed = 1;
nodes = (
(4,0,l),
(510,0,l),
(533,120,l),
(170,120,l),
(208,315,l),
(520,315,l),
(543,433,l),
(231,433,l),
(262,594,l),
(617,594,l),
(640,715,l),
(142,715,l)
);
},
{
closed = 1;
nodes = (
(565,878,l),
(410,878,l),
(350,753,l),
(454,753,l)
);
}
);
width = 593;
}
);
note = Eacute;
unicode = 201;
},
{
glyphname = Ntilde;
layers = (
{
hints = (
{
horizontal = 1;
place = (0, 21);
target = up;
type = BottomGhost;
},
{
horizontal = 1;
place = (715, -20);
target = down;
type = TopGhost;
},
{
horizontal = 1;
place = (755, 116);
place = (755, 116);
type = Stem;
},
{
place = (4, 691);
place = (4, 691);
type = Stem;
},
{
horizontal = 1;
place = (757, 118);
place = (757, 118);
type = Stem;
}
);
layerId = m01;
shapes = (
{
closed = 1;
nodes = (
(4,0,l),
(143,0,l),
(215,373,ls),
(225,423,o),
(236,498,o),
(236,498,c),
(238,498,l),
(238,498,o),
(250,445,o),
(268,398,cs),
(421,0,l),
(557,0,l),
(695,715,l),
(556,715,l),
(483,336,ls),
(473,286,o),
(462,212,o),
(462,212,c),
(460,212,l),
(460,212,o),
(447,273,o),
(431,316,cs),
(285,715,l),
(142,715,l)
);
},
{
closed = 1;
nodes = (
(538,755,o),
(573,803,o),
(584,871,c),
(513,871,l),
(507,852,o),
(499,840,o),
(480,840,cs),
(454,840,o),
(419,875,o),
(371,875,cs),
(322,875,o),
(283,835,o),
(271,757,c),
(342,757,l),
(346,776,o),
(358,788,o),
(372,788,cs),
(398,788,o),
(434,755,o),
(481,755,cs)
);
}
);
width = 661;
}
);
note = Ntilde;
unicode = 209;
},
{
glyphname = Odieresis;
kernLeft = C;
kernRight = O;
layers = (
{
hints = (
{
horizontal = 1;
place = (-16, 118);
place = (-16, 118);
type = Stem;
},
{
horizontal = 1;
place = (611, 118);
place = (611, 118);
type = Stem;
},
{
place = (35, 146);
place = (35, 146);
type = Stem;
},
{
place = (570, 146);
place = (570, 146);
type = Stem;
},
{
horizontal = 1;
place = (753, 114);
place = (753, 114);
type = Stem;
}
);
layerId = m01;
shapes = (
{
closed = 1;
nodes = (
(590,-16,o),
(716,192,o),
(716,417,cs),
(716,606,o),
(593,729,o),
(408,729,cs),
(168,729,o),
(35,521,o),
(35,291,cs),
(35,99,o),
(162,-16,o),
(346,-16,cs)
);
},
{
closed = 1;
nodes = (
(181,438,o),
(241,611,o),
(399,611,cs),
(518,611,o),
(570,524,o),
(570,413,cs),
(570,275,o),
(513,102,o),
(352,102,cs),
(229,102,o),
(181,187,o),
(181,294,cs)
);
},
{
closed = 1;
nodes = (
(460,753,l),
(586,753,l),
(609,867,l),
(483,867,l)
);
},
{
closed = 1;
nodes = (
(261,753,l),
(387,753,l),
(410,867,l),
(284,867,l)
);
}
);
width = 713;
}
);
note = Odieresis;
unicode = 214;
},
{
glyphname = Udieresis;
kernLeft = U;
kernRight = U;
layers = (
{
hints = (
{
horizontal = 1;
place = (-12, 115);
place = (-12, 115);
type = Stem;
},
{
horizontal = 1;
place = (715, -20);
target = down;
type = TopGhost;
},
{
horizontal = 1;
place = (753, 114);
place = (753, 114);
type = Stem;
},
{
place = (40, 143);
place = (40, 143);
type = Stem;
}
);
layerId = m01;
shapes = (
{
closed = 1;
nodes = (
(463,-12,o),
(556,67,o),
(584,209,cs),
(682,715,l),
(540,715,l),
(445,222,ls),
(431,153,o),
(392,103,o),
(302,103,cs),
(202,103,o),
(170,155,o),
(187,240,cs),
(279,715,l),
(136,715,l),
(46,251,ls),
(12,73,o),
(123,-12,o),
(299,-12,cs)
);
},
{
closed = 1;
nodes = (
(449,753,l),
(575,753,l),
(598,867,l),
(472,867,l)
);
},
{
closed = 1;
nodes = (
(250,753,l),
(376,753,l),
(399,867,l),
(273,867,l)
);
}
);
width = 642;
}
);
note = Udieresis;
unicode = 220;
},
{
glyphname = aacute;
kernLeft = a;
kernRight = a;
layers = (
{
hints = (
{
horizontal = 1;
place = (0, 81);
place = (0, 81);
type = Stem;
},
{
horizontal = 1;
place = (430, 96);
place = (430, 96);
type = Stem;
},
{
horizontal = 1;
place = (577, 141);
place = (577, 141);
type = Stem;
},
{
place = (-2, 129);
place = (-2, 129);
type = Stem;
},
{
place = (306, 134);
place = (306, 134);
type = Stem;
},
{
horizontal = 1;
place = (-12, 93);
place = (-12, 93);
type = Stem;
},
{
place = (364, 125);
place = (364, 125);
type = Stem;
}
);
layerId = m01;
shapes = (
{
closed = 1;
nodes = (
(440,0,l),
(440,5,l),
(432,17,o),
(429,41,o),
(436,76,cs),
(484,322,ls),
(512,471,o),
(416,526,o),
(289,526,cs),
(157,526,o),
(76,462,o),
(59,357,c),
(179,357,l),
(191,408,o),
(228,430,o),
(284,430,cs),
(335,430,o),
(364,410,o),
(364,373,cs),
(364,322,o),
(327,318,o),
(231,310,cs),
(106,300,o),
(-2,275,o),
(-2,139,cs),
(-2,33,o),
(82,-12,o),
(161,-12,cs),
(235,-12,o),
(273,23,o),
(304,56,c),
(306,56,l),
(305,33,o),
(307,11,o),
(313,0,c)
);
},
{
closed = 1;
nodes = (
(127,221,o),
(198,218,o),
(247,227,cs),
(291,235,o),
(319,241,o),
(345,253,c),
(329,172,ls),
(319,125,o),
(274,81,o),
(204,81,cs),
(159,81,o),
(127,105,o),
(127,151,cs)
);
},
{
closed = 1;
nodes = (
(486,718,l),
(329,718,l),
(255,577,l),
(360,577,l)
);
}
);
width = 514;
}
);
note = aacute;
unicode = 225;
},
{
glyphname = agrave;
kernLeft = a;
kernRight = a;
layers = (
{
hints = (
{
horizontal = 1;
place = (0, 81);
place = (0, 81);
type = Stem;
},
{
horizontal = 1;
place = (430, 96);
place = (430, 96);
type = Stem;
},
{
horizontal = 1;
place = (577, 141);
place = (577, 141);
type = Stem;
},
{
place = (-2, 129);
place = (-2, 129);
type = Stem;
},
{
place = (306, 134);
place = (306, 134);
type = Stem;
},
{
horizontal = 1;
place = (-12, 93);
place = (-12, 93);
type = Stem;
},
{
place = (364, 125);
place = (364, 125);
type = Stem;
}
);
layerId = m01;
shapes = (
{
closed = 1;
nodes = (
(440,0,l),
(440,5,l),
(432,17,o),
(429,41,o),
(436,76,cs),
(484,322,ls),
(512,471,o),
(416,526,o),
(289,526,cs),
(157,526,o),
(76,462,o),
(59,357,c),
(179,357,l),
(191,408,o),
(228,430,o),
(284,430,cs),
(335,430,o),
(364,410,o),
(364,373,cs),
(364,322,o),
(327,318,o),
(231,310,cs),
(106,300,o),
(-2,275,o),
(-2,139,cs),
(-2,33,o),
(82,-12,o),
(161,-12,cs),
(235,-12,o),
(273,23,o),
(304,56,c),
(306,56,l),
(305,33,o),
(307,11,o),
(313,0,c)
);
},
{
closed = 1;
nodes = (
(127,221,o),
(198,218,o),
(247,227,cs),
(291,235,o),
(319,241,o),
(345,253,c),
(329,172,ls),
(319,125,o),
(274,81,o),
(204,81,cs),
(159,81,o),
(127,105,o),
(127,151,cs)
);
},
{
closed = 1;
nodes = (
(262,577,l),
(364,577,l),
(323,718,l),
(177,718,l)
);
}
);
width = 514;
}
);
note = agrave;
unicode = 224;
},
{
glyphname = acircumflex;
kernLeft = a;
kernRight = a;
layers = (
{
hints = (
{
horizontal = 1;
place = (0, 81);
place = (0, 81);
type = Stem;
},
{
horizontal = 1;
place = (430, 96);
place = (430, 96);
type = Stem;
},
{
horizontal = 1;
place = (581, 126);
place = (581, 126);
type = Stem;
},
{
place = (-2, 129);
place = (-2, 129);
type = Stem;
},
{
place = (306, 134);
place = (306, 134);
type = Stem;
},
{
horizontal = 1;
place = (-12, 93);
place = (-12, 93);
type = Stem;
},
{
place = (364, 125);
place = (364, 125);
type = Stem;
}
);
layerId = m01;
shapes = (
{
closed = 1;
nodes = (
(440,0,l),
(440,5,l),
(432,17,o),
(429,41,o),
(436,76,cs),
(484,322,ls),
(512,471,o),
(416,526,o),
(289,526,cs),
(157,526,o),
(76,462,o),
(59,357,c),
(179,357,l),
(191,408,o),
(228,430,o),
(284,430,cs),
(335,430,o),
(364,410,o),
(364,373,cs),
(364,322,o),
(327,318,o),
(231,310,cs),
(106,300,o),
(-2,275,o),
(-2,139,cs),
(-2,33,o),
(82,-12,o),
(161,-12,cs),
(235,-12,o),
(273,23,o),
(304,56,c),
(306,56,l),
(305,33,o),
(307,11,o),
(313,0,c)
);
},
{
closed = 1;
nodes = (
(127,221,o),
(198,218,o),
(247,227,cs),
(291,235,o),
(319,241,o),
(345,253,c),
(329,172,ls),
(319,125,o),
(274,81,o),
(204,81,cs),
(159,81,o),
(127,105,o),
(127,151,cs)
);
},
{
closed = 1;
nodes = (
(145,581,l),
(265,581,l),
(323,650,l),
(325,650,l),
(362,581,l),
(475,581,l),
(399,707,l),
(257,707,l)
);
}
);
width = 514;
}
);
note = acircumflex;
unicode = 226;
},
{
glyphname = adieresis;
kernLeft = a;
kernRight = a;
layers = (
{
hints = (
{
horizontal = 1;
place = (0, 81);
place = (0, 81);
type = Stem;
},
{
horizontal = 1;
place = (430, 96);
place = (430, 96);
type = Stem;
},
{
horizontal = 1;
place = (581, 114);
place = (581, 114);
type = Stem;
},
{
place = (-2, 129);
place = (-2, 129);
type = Stem;
},
{
place = (306, 134);
place = (306, 134);
type = Stem;
},
{
horizontal = 1;
place = (-12, 93);
place = (-12, 93);
type = Stem;
},
{
place = (364, 125);
place = (364, 125);
type = Stem;
}
);
layerId = m01;
shapes = (
{
closed = 1;
nodes = (
(440,0,l),
(440,5,l),
(432,17,o),
(429,41,o),
(436,76,cs),
(484,322,ls),
(512,471,o),
(416,526,o),
(289,526,cs),
(157,526,o),
(76,462,o),
(59,357,c),
(179,357,l),
(191,408,o),
(228,430,o),
(284,430,cs),
(335,430,o),
(364,410,o),
(364,373,cs),
(364,322,o),
(327,318,o),
(231,310,cs),
(106,300,o),
(-2,275,o),
(-2,139,cs),
(-2,33,o),
(82,-12,o),
(161,-12,cs),
(235,-12,o),
(273,23,o),
(304,56,c),
(306,56,l),
(305,33,o),
(307,11,o),
(313,0,c)
);
},
{
closed = 1;
nodes = (
(127,221,o),
(198,218,o),
(247,227,cs),
(291,235,o),
(319,241,o),
(345,253,c),
(329,172,ls),
(319,125,o),
(274,81,o),
(204,81,cs),
(159,81,o),
(127,105,o),
(127,151,cs)
);
},
{
closed = 1;
nodes = (
(360,581,l),
(484,581,l),
(507,695,l),
(383,695,l)
);
},
{
closed = 1;
nodes = (
(143,581,l),
(267,581,l),
(290,695,l),
(166,695,l)
);
}
);
width = 514;
}
);
note = adieresis;
unicode = 228;
},
{
glyphname = atilde;
kernLeft = a;
kernRight = a;
layers = (
{
hints = (
{
horizontal = 1;
place = (0, 81);
place = (0, 81);
type = Stem;
},
{
horizontal = 1;
place = (430, 96);
place = (430, 96);
type = Stem;
},
{
horizontal = 1;
place = (575, 116);
place = (575, 116);
type = Stem;
},
{
place = (-2, 129);
place = (-2, 129);
type = Stem;
},
{
place = (306, 134);
place = (306, 134);
type = Stem;
},
{
horizontal = 1;
place = (-12, 93);
place = (-12, 93);
type = Stem;
},
{
place = (364, 125);
place = (364, 125);
type = Stem;
},
{
horizontal = 1;
place = (575, 85);
place = (575, 85);
type = Stem;
},
{
horizontal = 1;
place = (577, 118);
place = (577, 118);
type = Stem;
},
{
horizontal = 1;
place = (608, 87);
place = (608, 87);
type = Stem;
}
);
layerId = m01;
shapes = (
{
closed = 1;
nodes = (
(440,0,l),
(440,5,l),
(432,17,o),
(429,41,o),
(436,76,cs),
(484,322,ls),
(512,471,o),
(416,526,o),
(289,526,cs),
(157,526,o),
(76,462,o),
(59,357,c),
(179,357,l),
(191,408,o),
(228,430,o),
(284,430,cs),
(335,430,o),
(364,410,o),
(364,373,cs),
(364,322,o),
(327,318,o),
(231,310,cs),
(106,300,o),
(-2,275,o),
(-2,139,cs),
(-2,33,o),
(82,-12,o),
(161,-12,cs),
(235,-12,o),
(273,23,o),
(304,56,c),
(306,56,l),
(305,33,o),
(307,11,o),
(313,0,c)
);
},
{
closed = 1;
nodes = (
(127,221,o),
(198,218,o),
(247,227,cs),
(291,235,o),
(319,241,o),
(345,253,c),
(329,172,ls),
(319,125,o),
(274,81,o),
(204,81,cs),
(159,81,o),
(127,105,o),
(127,151,cs)
);
},
{
closed = 1;
nodes = (
(425,575,o),
(459,623,o),
(471,691,c),
(400,691,l),
(394,672,o),
(386,660,o),
(367,660,cs),
(341,660,o),
(311,695,o),
(263,695,cs),
(214,695,o),
(176,655,o),
(163,577,c),
(234,577,l),
(238,596,o),
(250,608,o),
(264,608,cs),
(290,608,o),
(321,575,o),
(368,575,cs)
);
}
);
width = 514;
}
);
note = atilde;
unicode = 227;
},
{
glyphname = aring;
kernLeft = a;
kernRight = a;
layers = (
{
hints = (
{
horizontal = 1;
place = (0, 81);
place = (0, 81);
type = Stem;
},
{
horizontal = 1;
place = (430, 96);
place = (430, 96);
type = Stem;
},
{
horizontal = 1;
place = (561, 47);
place = (561, 47);
type = Stem;
},
{
horizontal = 1;
place = (702, 47);
place = (702, 47);
type = Stem;
},
{
place = (-2, 129);
place = (-2, 129);
type = Stem;
},
{
place = (222, 52);
place = (222, 52);
type = Stem;
},
{
place = (306, 134);
place = (306, 134);
type = Stem;
},
{
horizontal = 1;
place = (-12, 93);
place = (-12, 93);
type = Stem;
},
{
place = (364, 125);
place = (364, 125);
type = Stem;
},
{
place = (364, 52);
place = (364, 52);
type = Stem;
}
);
layerId = m01;
shapes = (
{
closed = 1;
nodes = (
(440,0,l),
(440,5,l),
(432,17,o),
(429,41,o),
(436,76,cs),
(484,322,ls),
(512,471,o),
(416,526,o),
(289,526,cs),
(157,526,o),
(76,462,o),
(59,357,c),
(179,357,l),
(191,408,o),
(228,430,o),
(284,430,cs),
(335,430,o),
(364,410,o),
(364,373,cs),
(364,322,o),
(327,318,o),
(231,310,cs),
(106,300,o),
(-2,275,o),
(-2,139,cs),
(-2,33,o),
(82,-12,o),
(161,-12,cs),
(235,-12,o),
(273,23,o),
(304,56,c),
(306,56,l),
(305,33,o),
(307,11,o),
(313,0,c)
);
},
{
closed = 1;
nodes = (
(127,221,o),
(198,218,o),
(247,227,cs),
(291,235,o),
(319,241,o),
(345,253,c),
(329,172,ls),
(319,125,o),
(274,81,o),
(204,81,cs),
(159,81,o),
(127,105,o),
(127,151,cs)
);
},
{
closed = 1;
nodes = (
(372,561,o),
(416,602,o),
(416,655,cs),
(416,707,o),
(372,749,o),
(319,749,cs),
(266,749,o),
(222,707,o),
(222,655,cs),
(222,602,o),
(266,561,o),
(319,561,cs)
);
},
{
closed = 1;
nodes = (
(293,608,o),
(274,629,o),
(274,655,cs),
(274,681,o),
(293,702,o),
(319,702,cs),
(345,702,o),
(364,681,o),
(364,655,cs),
(364,629,o),
(345,608,o),
(319,608,cs)
);
}
);
width = 514;
}
);
note = aring;
unicode = 229;
},
{
glyphname = ccedilla;
kernLeft = c;
kernRight = c;
layers = (
{
hints = (
{
horizontal = 1;
place = (-192, 46);
place = (-192, 46);
type = Stem;
},
{
horizontal = 1;
place = (-86, 34);
place = (-86, 34);
type = Stem;
},
{
horizontal = 1;
place = (-11, 21);
target = up;
type = BottomGhost;
},
{
horizontal = 1;
place = (419, 108);
place = (419, 108);
type = Stem;
},
{
place = (16, 134);
place = (16, 134);
type = Stem;
},
{
place = (222, 80);
place = (222, 80);
type = Stem;
}
);
layerId = m01;
shapes = (
{
closed = 1;
nodes = (
(241,-192,o),
(302,-170,o),
(302,-111,cs),
(301,-65,o),
(255,-45,o),
(206,-52,c),
(206,-50,l),
(248,-15,l),
(372,-13,o),
(462,59,o),
(490,181,c),
(360,181,l),
(342,120,o),
(303,93,o),
(253,93,cs),
(179,93,o),
(150,142,o),
(150,208,cs),
(150,306,o),
(193,419,o),
(292,419,cs),
(346,419,o),
(373,388,o),
(378,339,c),
(509,339,l),
(502,473,o),
(410,527,o),
(296,527,cs),
(121,527,o),
(16,370,o),
(16,212,cs),
(16,75,o),
(94,5,o),
(197,-11,c),
(136,-71,l),
(148,-93,l),
(160,-89,o),
(172,-86,o),
(186,-86,cs),
(206,-86,o),
(222,-95,o),
(222,-111,cs),
(222,-141,o),
(185,-146,o),
(164,-146,cs),
(140,-146,o),
(114,-140,o),
(96,-131,c),
(75,-163,l),
(101,-181,o),
(130,-192,o),
(183,-192,cs)
);
}
);
width = 514;
}
);
note = ccedilla;
unicode = 231;
},
{
glyphname = eacute;
kernLeft = c;
kernRight = e;
layers = (
{
hints = (
{
horizontal = 1;
place = (-15, 104);
place = (-15, 104);
type = Stem;
},
{
horizontal = 1;
place = (219, 93);
place = (219, 93);
type = Stem;
},
{
horizontal = 1;
place = (423, 104);
place = (423, 104);
type = Stem;
},
{
horizontal = 1;
place = (577, 141);
place = (577, 141);
type = Stem;
},
{
place = (16, 133);
place = (16, 133);
type = Stem;
},
{
place = (382, 129);
place = (382, 129);
type = Stem;
}
);
layerId = m01;
shapes = (
{
closed = 1;
nodes = (
(506,219,l),
(525,342,o),
(497,444,o),
(420,494,cs),
(386,516,o),
(347,527,o),
(291,527,cs),
(125,527,o),
(16,370,o),
(16,221,cs),
(16,59,o),
(119,-15,o),
(252,-15,cs),
(314,-14,o),
(369,4,o),
(412,38,cs),
(448,66,o),
(475,105,o),
(491,153,c),
(359,153,l),
(340,109,o),
(301,89,o),
(254,89,cs),
(176,89,o),
(149,138,o),
(149,219,c)
);
},
{
closed = 1;
nodes = (
(357,423,o),
(384,372,o),
(382,312,c),
(161,312,l),
(179,372,o),
(217,423,o),
(288,423,cs)
);
},
{
closed = 1;
nodes = (
(481,718,l),
(324,718,l),
(250,577,l),
(355,577,l)
);
}
);
width = 532;
}
);
note = eacute;
unicode = 233;
},
{
glyphname = egrave;
kernLeft = c;
kernRight = e;
layers = (
{
hints = (
{
horizontal = 1;
place = (-15, 104);
place = (-15, 104);
type = Stem;
},
{
horizontal = 1;
place = (219, 93);
place = (219, 93);
type = Stem;
},
{
horizontal = 1;
place = (423, 104);
place = (423, 104);
type = Stem;
},
{
horizontal = 1;
place = (577, 141);
place = (577, 141);
type = Stem;
},
{
place = (16, 133);
place = (16, 133);
type = Stem;
},
{
place = (382, 129);
place = (382, 129);
type = Stem;
}
);
layerId = m01;
shapes = (
{
closed = 1;
nodes = (
(506,219,l),
(525,342,o),
(497,444,o),
(420,494,cs),
(386,516,o),
(347,527,o),
(291,527,cs),
(125,527,o),
(16,370,o),
(16,221,cs),
(16,59,o),
(119,-15,o),
(252,-15,cs),
(314,-14,o),
(369,4,o),
(412,38,cs),
(448,66,o),
(475,105,o),
(491,153,c),
(359,153,l),
(340,109,o),
(301,89,o),
(254,89,cs),
(176,89,o),
(149,138,o),
(149,219,c)
);
},
{
closed = 1;
nodes = (
(357,423,o),
(384,372,o),
(382,312,c),
(161,312,l),
(179,372,o),
(217,423,o),
(288,423,cs)
);
},
{
closed = 1;
nodes = (
(255,577,l),
(357,577,l),
(316,718,l),
(170,718,l)
);
}
);
width = 532;
}
);
note = egrave;
unicode = 232;
},
{
glyphname = ecircumflex;
kernLeft = c;
kernRight = e;
layers = (
{
hints = (
{
horizontal = 1;
place = (-15, 104);
place = (-15, 104);
type = Stem;
},
{
horizontal = 1;
place = (219, 93);
place = (219, 93);
type = Stem;
},
{
horizontal = 1;
place = (423, 104);
place = (423, 104);
type = Stem;
},
{
horizontal = 1;
place = (581, 126);
place = (581, 126);
type = Stem;
},
{
place = (16, 133);
place = (16, 133);
type = Stem;
},
{
place = (382, 129);
place = (382, 129);
type = Stem;
}
);
layerId = m01;
shapes = (
{
closed = 1;
nodes = (
(506,219,l),
(525,342,o),
(497,444,o),
(420,494,cs),
(386,516,o),
(347,527,o),
(291,527,cs),
(125,527,o),
(16,370,o),
(16,221,cs),
(16,59,o),
(119,-15,o),
(252,-15,cs),
(314,-14,o),
(369,4,o),
(412,38,cs),
(448,66,o),
(475,105,o),
(491,153,c),
(359,153,l),
(340,109,o),
(301,89,o),
(254,89,cs),
(176,89,o),
(149,138,o),
(149,219,c)
);
},
{
closed = 1;
nodes = (
(137,581,l),
(257,581,l),
(315,650,l),
(317,650,l),
(354,581,l),
(467,581,l),
(391,707,l),
(249,707,l)
);
},
{
closed = 1;
nodes = (
(357,423,o),
(384,372,o),
(382,312,c),
(161,312,l),
(179,372,o),
(217,423,o),
(288,423,cs)
);
}
);
width = 532;
}
);
note = ecircumflex;
unicode = 234;
},
{
glyphname = edieresis;
kernLeft = c;
kernRight = e;
layers = (
{
hints = (
{
horizontal = 1;
place = (-15, 104);
place = (-15, 104);
type = Stem;
},
{
horizontal = 1;
place = (219, 93);
place = (219, 93);
type = Stem;
},
{
horizontal = 1;
place = (423, 104);
place = (423, 104);
type = Stem;
},
{
horizontal = 1;
place = (581, 114);
place = (581, 114);
type = Stem;
},
{
place = (16, 133);
place = (16, 133);
type = Stem;
},
{
place = (382, 129);
place = (382, 129);
type = Stem;
}
);
layerId = m01;
shapes = (
{
closed = 1;
nodes = (
(506,219,l),
(525,342,o),
(497,444,o),
(420,494,cs),
(386,516,o),
(347,527,o),
(291,527,cs),
(125,527,o),
(16,370,o),
(16,221,cs),
(16,59,o),
(119,-15,o),
(252,-15,cs),
(314,-14,o),
(369,4,o),
(412,38,cs),
(448,66,o),
(475,105,o),
(491,153,c),
(359,153,l),
(340,109,o),
(301,89,o),
(254,89,cs),
(176,89,o),
(149,138,o),
(149,219,c)
);
},
{
closed = 1;
nodes = (
(357,423,o),
(384,372,o),
(382,312,c),
(161,312,l),
(179,372,o),
(217,423,o),
(288,423,cs)
);
},
{
closed = 1;
nodes = (
(350,581,l),
(474,581,l),
(497,695,l),
(373,695,l)
);
},
{
closed = 1;
nodes = (
(133,581,l),
(257,581,l),
(280,695,l),
(156,695,l)
);
}
);
width = 532;
}
);
note = edieresis;
unicode = 235;
},
{
glyphname = iacute;
kernLeft = b;
kernRight = d;
layers = (
{
hints = (
{
horizontal = 1;
place = (0, 21);
target = up;
type = BottomGhost;
},
{
horizontal = 1;
place = (513, -20);
target = down;
type = TopGhost;
},
{
horizontal = 1;
place = (577, 141);
place = (577, 141);
type = Stem;
},
{
place = (-7, 357);
place = (-7, 357);
type = Stem;
}
);
layerId = m01;
shapes = (
{
closed = 1;
nodes = (
(-7,0,l),
(127,0,l),
(226,513,l),
(92,513,l)
);
},
{
closed = 1;
nodes = (
(350,718,l),
(193,718,l),
(119,577,l),
(224,577,l)
);
}
);
width = 220;
}
);
note = iacute;
unicode = 237;
},
{
glyphname = igrave;
kernLeft = b;
kernRight = d;
layers = (
{
hints = (
{
horizontal = 1;
place = (0, 21);
target = up;
type = BottomGhost;
},
{
horizontal = 1;
place = (513, -20);
target = down;
type = TopGhost;
},
{
horizontal = 1;
place = (577, 141);
place = (577, 141);
type = Stem;
},
{
place = (-7, 233);
place = (-7, 233);
type = Stem;
}
);
layerId = m01;
shapes = (
{
closed = 1;
nodes = (
(-7,0,l),
(127,0,l),
(226,513,l),
(92,513,l)
);
},
{
closed = 1;
nodes = (
(123,577,l),
(225,577,l),
(184,718,l),
(38,718,l)
);
}
);
width = 220;
}
);
note = igrave;
unicode = 236;
},
{
glyphname = icircumflex;
kernLeft = b;
kernRight = d;
layers = (
{
hints = (
{
horizontal = 1;
place = (0, 21);
target = up;
type = BottomGhost;
},
{
horizontal = 1;
place = (513, -20);
target = down;
type = TopGhost;
},
{
horizontal = 1;
place = (581, 126);
place = (581, 126);
type = Stem;
},
{
place = (-7, 313);
place = (-7, 313);
type = Stem;
}
);
layerId = m01;
shapes = (
{
closed = 1;
nodes = (
(-7,0,l),
(127,0,l),
(226,513,l),
(92,513,l)
);
},
{
closed = 1;
nodes = (
(27,581,l),
(135,581,l),
(178,647,l),
(180,647,l),
(202,581,l),
(306,581,l),
(253,707,l),
(117,707,l)
);
}
);
width = 220;
}
);
note = icircumflex;
unicode = 238;
},
{
glyphname = idieresis;
kernLeft = b;
kernRight = d;
layers = (
{
hints = (
{
horizontal = 1;
place = (0, 21);
target = up;
type = BottomGhost;
},
{
horizontal = 1;
place = (513, -20);
target = down;
type = TopGhost;
},
{
horizontal = 1;
place = (581, 114);
place = (581, 114);
type = Stem;
},
{
place = (-7, 324);
place = (-7, 324);
type = Stem;
}
);
layerId = m01;
shapes = (
{
closed = 1;
nodes = (
(-7,0,l),
(127,0,l),
(226,513,l),
(92,513,l)
);
},
{
closed = 1;
nodes = (
(188,581,l),
(294,581,l),
(317,695,l),
(211,695,l)
);
},
{
closed = 1;
nodes = (
(47,581,l),
(153,581,l),
(176,695,l),
(70,695,l)
);
}
);
width = 220;
}
);
note = idieresis;
unicode = 239;
},
{
glyphname = ntilde;
kernLeft = m;
kernRight = h;
layers = (
{
hints = (
{
horizontal = 1;
place = (0, 21);
target = up;
type = BottomGhost;
},
{
horizontal = 1;
place = (413, 100);
place = (413, 100);
type = Stem;
},
{
horizontal = 1;
place = (575, 116);
place = (575, 116);
type = Stem;
},
{
place = (376, 138);
place = (376, 138);
type = Stem;
},
{
horizontal = 1;
place = (413, 114);
place = (413, 114);
type = Stem;
},
{
horizontal = 1;
place = (575, 85);
place = (575, 85);
type = Stem;
},
{
horizontal = 1;
place = (577, 118);
place = (577, 118);
type = Stem;
},
{
horizontal = 1;
place = (608, 87);
place = (608, 87);
type = Stem;
}
);
layerId = m01;
shapes = (
{
closed = 1;
nodes = (
(223,513,l),
(92,513,l),
(-7,0,l),
(127,0,l),
(181,280,ls),
(195,355,o),
(240,413,o),
(303,413,cs),
(360,413,o),
(386,376,o),
(373,308,cs),
(313,0,l),
(447,0,l),
(509,324,ls),
(532,444,o),
(473,527,o),
(371,527,cs),
(298,527,o),
(255,495,o),
(211,432,c),
(208,432,l)
);
},
{
closed = 1;
nodes = (
(440,575,o),
(474,623,o),
(486,691,c),
(415,691,l),
(409,672,o),
(401,660,o),
(382,660,cs),
(356,660,o),
(326,695,o),
(278,695,cs),
(229,695,o),
(191,655,o),
(178,577,c),
(249,577,l),
(253,596,o),
(265,608,o),
(279,608,cs),
(305,608,o),
(336,575,o),
(383,575,cs)
);
}
);
width = 536;
}
);
note = ntilde;
unicode = 241;
},
{
glyphname = oacute;
kernLeft = c;
kernRight = o;
layers = (
{
hints = (
{
horizontal = 1;
place = (-15, 101);
place = (-15, 101);
type = Stem;
},
{
horizontal = 1;
place = (426, 101);
place = (426, 101);
type = Stem;
},
{
horizontal = 1;
place = (577, 141);
place = (577, 141);
type = Stem;
},
{
place = (17, 134);
place = (17, 134);
type = Stem;
},
{
place = (409, 134);
place = (409, 134);
type = Stem;
}
);
layerId = m01;
shapes = (
{
closed = 1;
nodes = (
(433,-15,o),
(543,129,o),
(543,293,cs),
(543,445,o),
(437,527,o),
(306,527,cs),
(131,527,o),
(17,386,o),
(17,224,cs),
(17,67,o),
(124,-15,o),
(258,-15,cs)
);
},
{
closed = 1;
nodes = (
(151,315,o),
(196,426,o),
(299,426,cs),
(378,426,o),
(409,364,o),
(409,297,cs),
(409,199,o),
(365,86,o),
(261,86,cs),
(182,86,o),
(151,146,o),
(151,216,cs)
);
},
{
closed = 1;
nodes = (
(498,718,l),
(341,718,l),
(267,577,l),
(372,577,l)
);
}
);
width = 561;
}
);
note = oacute;
unicode = 243;
},
{
glyphname = ograve;
kernLeft = c;
kernRight = o;
layers = (
{
hints = (
{
horizontal = 1;
place = (-15, 101);
place = (-15, 101);
type = Stem;
},
{
horizontal = 1;
place = (426, 101);
place = (426, 101);
type = Stem;
},
{
horizontal = 1;
place = (577, 141);
place = (577, 141);
type = Stem;
},
{
place = (17, 134);
place = (17, 134);
type = Stem;
},
{
place = (409, 134);
place = (409, 134);
type = Stem;
}
);
layerId = m01;
shapes = (
{
closed = 1;
nodes = (
(433,-15,o),
(543,129,o),
(543,293,cs),
(543,445,o),
(437,527,o),
(306,527,cs),
(131,527,o),
(17,386,o),
(17,224,cs),
(17,67,o),
(124,-15,o),
(258,-15,cs)
);
},
{
closed = 1;
nodes = (
(151,315,o),
(196,426,o),
(299,426,cs),
(378,426,o),
(409,364,o),
(409,297,cs),
(409,199,o),
(365,86,o),
(261,86,cs),
(182,86,o),
(151,146,o),
(151,216,cs)
);
},
{
closed = 1;
nodes = (
(267,577,l),
(369,577,l),
(328,718,l),
(182,718,l)
);
}
);
width = 561;
}
);
note = ograve;
unicode = 242;
},
{
glyphname = ocircumflex;
kernLeft = c;
kernRight = o;
layers = (
{
hints = (
{
horizontal = 1;
place = (-15, 101);
place = (-15, 101);
type = Stem;
},
{
horizontal = 1;
place = (426, 101);
place = (426, 101);
type = Stem;
},
{
horizontal = 1;
place = (581, 126);
place = (581, 126);
type = Stem;
},
{
place = (17, 134);
place = (17, 134);
type = Stem;
},
{
place = (409, 134);
place = (409, 134);
type = Stem;
}
);
layerId = m01;
shapes = (
{
closed = 1;
nodes = (
(433,-15,o),
(543,129,o),
(543,293,cs),
(543,445,o),
(437,527,o),
(306,527,cs),
(131,527,o),
(17,386,o),
(17,224,cs),
(17,67,o),
(124,-15,o),
(258,-15,cs)
);
},
{
closed = 1;
nodes = (
(151,315,o),
(196,426,o),
(299,426,cs),
(378,426,o),
(409,364,o),
(409,297,cs),
(409,199,o),
(365,86,o),
(261,86,cs),
(182,86,o),
(151,146,o),
(151,216,cs)
);
},
{
closed = 1;
nodes = (
(151,581,l),
(271,581,l),
(329,650,l),
(331,650,l),
(368,581,l),
(481,581,l),
(405,707,l),
(263,707,l)
);
}
);
width = 561;
}
);
note = ocircumflex;
unicode = 244;
},
{
glyphname = odieresis;
kernLeft = c;
kernRight = o;
layers = (
{
hints = (
{
horizontal = 1;
place = (-15, 101);
place = (-15, 101);
type = Stem;
},
{
horizontal = 1;
place = (426, 101);
place = (426, 101);
type = Stem;
},
{
horizontal = 1;
place = (581, 114);
place = (581, 114);
type = Stem;
},
{
place = (17, 134);
place = (17, 134);
type = Stem;
},
{
place = (409, 134);
place = (409, 134);
type = Stem;
}
);
layerId = m01;
shapes = (
{
closed = 1;
nodes = (
(433,-15,o),
(543,129,o),
(543,293,cs),
(543,445,o),
(437,527,o),
(306,527,cs),
(131,527,o),
(17,386,o),
(17,224,cs),
(17,67,o),
(124,-15,o),
(258,-15,cs)
);
},
{
closed = 1;
nodes = (
(151,315,o),
(196,426,o),
(299,426,cs),
(378,426,o),
(409,364,o),
(409,297,cs),
(409,199,o),
(365,86,o),
(261,86,cs),
(182,86,o),
(151,146,o),
(151,216,cs)
);
},
{
closed = 1;
nodes = (
(369,581,l),
(493,581,l),
(516,695,l),
(392,695,l)
);
},
{
closed = 1;
nodes = (
(152,581,l),
(276,581,l),
(299,695,l),
(175,695,l)
);
}
);
width = 561;
}
);
note = odieresis;
unicode = 246;
},
{
glyphname = otilde;
kernLeft = c;
kernRight = o;
layers = (
{
hints = (
{
horizontal = 1;
place = (-15, 101);
place = (-15, 101);
type = Stem;
},
{
horizontal = 1;
place = (426, 101);
place = (426, 101);
type = Stem;
},
{
horizontal = 1;
place = (575, 116);
place = (575, 116);
type = Stem;
},
{
place = (17, 134);
place = (17, 134);
type = Stem;
},
{
place = (409, 134);
place = (409, 134);
type = Stem;
},
{
horizontal = 1;
place = (575, 85);
place = (575, 85);
type = Stem;
},
{
horizontal = 1;
place = (577, 118);
place = (577, 118);
type = Stem;
},
{
horizontal = 1;
place = (608, 87);
place = (608, 87);
type = Stem;
}
);
layerId = m01;
shapes = (
{
closed = 1;
nodes = (
(433,-15,o),
(543,129,o),
(543,293,cs),
(543,445,o),
(437,527,o),
(306,527,cs),
(131,527,o),
(17,386,o),
(17,224,cs),
(17,67,o),
(124,-15,o),
(258,-15,cs)
);
},
{
closed = 1;
nodes = (
(151,315,o),
(196,426,o),
(299,426,cs),
(378,426,o),
(409,364,o),
(409,297,cs),
(409,199,o),
(365,86,o),
(261,86,cs),
(182,86,o),
(151,146,o),
(151,216,cs)
);
},
{
closed = 1;
nodes = (
(424,575,o),
(458,623,o),
(470,691,c),
(399,691,l),
(393,672,o),
(385,660,o),
(366,660,cs),
(340,660,o),
(310,695,o),
(262,695,cs),
(213,695,o),
(175,655,o),
(162,577,c),
(233,577,l),
(237,596,o),
(249,608,o),
(263,608,cs),
(289,608,o),
(320,575,o),
(367,575,cs)
);
}
);
width = 561;
}
);
note = otilde;
unicode = 245;
},
{
glyphname = uacute;
kernLeft = u;
kernRight = u;
layers = (
{
hints = (
{
horizontal = 1;
place = (0, 99);
place = (0, 99);
type = Stem;
},
{
horizontal = 1;
place = (513, -20);
target = down;
type = TopGhost;
},
{
horizontal = 1;
place = (577, 141);
place = (577, 141);
type = Stem;
},
{
place = (19, 137);
place = (19, 137);
type = Stem;
},
{
horizontal = 1;
place = (-14, 113);
place = (-14, 113);
type = Stem;
}
);
layerId = m01;
shapes = (
{
closed = 1;
nodes = (
(306,0,l),
(435,0,l),
(534,513,l),
(400,513,l),
(346,233,ls),
(330,151,o),
(287,99,o),
(224,99,cs),
(167,99,o),
(146,134,o),
(160,205,cs),
(220,513,l),
(86,513,l),
(24,189,ls),
(0,63,o),
(56,-14,o),
(164,-14,cs),
(231,-14,o),
(277,17,o),
(317,73,c),
(320,73,l)
);
},
{
closed = 1;
nodes = (
(495,718,l),
(338,718,l),
(264,577,l),
(369,577,l)
);
}
);
width = 530;
}
);
note = uacute;
unicode = 250;
},
{
glyphname = ugrave;
kernLeft = u;
kernRight = u;
layers = (
{
hints = (
{
horizontal = 1;
place = (0, 99);
place = (0, 99);
type = Stem;
},
{
horizontal = 1;
place = (513, -20);
target = down;
type = TopGhost;
},
{
horizontal = 1;
place = (577, 141);
place = (577, 141);
type = Stem;
},
{
place = (19, 137);
place = (19, 137);
type = Stem;
},
{
horizontal = 1;
place = (-14, 113);
place = (-14, 113);
type = Stem;
}
);
layerId = m01;
shapes = (
{
closed = 1;
nodes = (
(306,0,l),
(435,0,l),
(534,513,l),
(400,513,l),
(346,233,ls),
(330,151,o),
(287,99,o),
(224,99,cs),
(167,99,o),
(146,134,o),
(160,205,cs),
(220,513,l),
(86,513,l),
(24,189,ls),
(0,63,o),
(56,-14,o),
(164,-14,cs),
(231,-14,o),
(277,17,o),
(317,73,c),
(320,73,l)
);
},
{
closed = 1;
nodes = (
(271,577,l),
(373,577,l),
(332,718,l),
(186,718,l)
);
}
);
width = 530;
}
);
note = ugrave;
unicode = 249;
},
{
glyphname = ucircumflex;
kernLeft = u;
kernRight = u;
layers = (
{
hints = (
{
horizontal = 1;
place = (0, 99);
place = (0, 99);
type = Stem;
},
{
horizontal = 1;
place = (513, -20);
target = down;
type = TopGhost;
},
{
horizontal = 1;
place = (581, 126);
place = (581, 126);
type = Stem;
},
{
place = (19, 137);
place = (19, 137);
type = Stem;
},
{
horizontal = 1;
place = (-14, 113);
place = (-14, 113);
type = Stem;
}
);
layerId = m01;
shapes = (
{
closed = 1;
nodes = (
(306,0,l),
(435,0,l),
(534,513,l),
(400,513,l),
(346,233,ls),
(330,151,o),
(287,99,o),
(224,99,cs),
(167,99,o),
(146,134,o),
(160,205,cs),
(220,513,l),
(86,513,l),
(24,189,ls),
(0,63,o),
(56,-14,o),
(164,-14,cs),
(231,-14,o),
(277,17,o),
(317,73,c),
(320,73,l)
);
},
{
closed = 1;
nodes = (
(156,581,l),
(276,581,l),
(334,650,l),
(336,650,l),
(373,581,l),
(486,581,l),
(410,707,l),
(268,707,l)
);
}
);
width = 530;
}
);
note = ucircumflex;
unicode = 251;
},
{
glyphname = udieresis;
kernLeft = u;
kernRight = u;
layers = (
{
hints = (
{
horizontal = 1;
place = (0, 99);
place = (0, 99);
type = Stem;
},
{
horizontal = 1;
place = (513, -20);
target = down;
type = TopGhost;
},
{
horizontal = 1;
place = (581, 114);
place = (581, 114);
type = Stem;
},
{
place = (19, 137);
place = (19, 137);
type = Stem;
},
{
horizontal = 1;
place = (-14, 113);
place = (-14, 113);
type = Stem;
}
);
layerId = m01;
shapes = (
{
closed = 1;
nodes = (
(306,0,l),
(435,0,l),
(534,513,l),
(400,513,l),
(346,233,ls),
(330,151,o),
(287,99,o),
(224,99,cs),
(167,99,o),
(146,134,o),
(160,205,cs),
(220,513,l),
(86,513,l),
(24,189,ls),
(0,63,o),
(56,-14,o),
(164,-14,cs),
(231,-14,o),
(277,17,o),
(317,73,c),
(320,73,l)
);
},
{
closed = 1;
nodes = (
(370,581,l),
(494,581,l),
(517,695,l),
(393,695,l)
);
},
{
closed = 1;
nodes = (
(153,581,l),
(277,581,l),
(300,695,l),
(176,695,l)
);
}
);
width = 530;
}
);
note = udieresis;
unicode = 252;
},
{
glyphname = dagger;
layers = (
{
hints = (
{
horizontal = 1;
place = (413, 105);
place = (413, 105);
type = Stem;
},
{
horizontal = 1;
place = (715, -20);
target = down;
type = TopGhost;
},
{
place = (63, 510);
place = (63, 510);
type = Stem;
}
);
layerId = m01;
shapes = (
{
closed = 1;
nodes = (
(63,413,l),
(244,413,l),
(141,-117,l),
(269,-117,l),
(372,413,l),
(553,413,l),
(573,518,l),
(392,518,l),
(430,715,l),
(302,715,l),
(264,518,l),
(83,518,l)
);
}
);
width = 556;
}
);
note = dagger;
unicode = 8224;
},
{
glyphname = degree;
layers = (
{
hints = (
{
horizontal = 1;
place = (418, 63);
place = (418, 63);
type = Stem;
},
{
horizontal = 1;
place = (637, 63);
place = (637, 63);
type = Stem;
},
{
place = (87, 73);
place = (87, 73);
type = Stem;
},
{
place = (307, 72);
place = (307, 72);
type = Stem;
}
);
layerId = m01;
shapes = (
{
closed = 1;
nodes = (
(313,418,o),
(379,479,o),
(379,558,cs),
(379,637,o),
(313,700,o),
(233,700,cs),
(154,700,o),
(87,637,o),
(87,558,cs),
(87,479,o),
(154,418,o),
(233,418,cs)
);
},
{
closed = 1;
nodes = (
(188,481,o),
(160,515,o),
(160,558,cs),
(160,601,o),
(188,637,o),
(233,637,cs),
(278,637,o),
(307,601,o),
(307,558,cs),
(307,515,o),
(278,481,o),
(233,481,cs)
);
}
);
width = 350;
}
);
note = degree;
unicode = 176;
},
{
glyphname = cent;
layers = (
{
hints = (
{
horizontal = 1;
place = (-15, 21);
target = up;
type = BottomGhost;
},
{
place = (16, 134);
place = (16, 134);
type = Stem;
},
{
horizontal = 1;
place = (-15, 196);
place = (-15, 196);
type = Stem;
},
{
horizontal = 1;
place = (-15, 107);
place = (-15, 107);
type = Stem;
},
{
horizontal = 1;
place = (339, 254);
place = (339, 254);
type = Stem;
},
{
place = (378, 131);
place = (378, 131);
type = Stem;
},
{
horizontal = 1;
place = (-9, 21);
target = up;
type = BottomGhost;
}
);
layerId = m01;
shapes = (
{
closed = 1;
nodes = (
(245,-15,ls),
(371,-15,o),
(462,58,o),
(490,181,c),
(360,181,l),
(343,125,o),
(309,97,o),
(265,92,c),
(328,414,l),
(358,402,o),
(374,375,o),
(378,339,c),
(509,339,l),
(503,451,o),
(437,507,o),
(349,523,c),
(363,593,l),
(304,593,l),
(291,527,l),
(119,524,o),
(16,368,o),
(16,212,cs),
(16,80,o),
(89,10,o),
(186,-9,c),
(169,-100,l),
(228,-100,l),
(244,-15,l)
);
},
{
closed = 1;
nodes = (
(150,298,o),
(186,402,o),
(270,418,c),
(208,100,l),
(167,116,o),
(150,157,o),
(150,208,cs)
);
}
);
width = 514;
}
);
note = cent;
unicode = 162;
},
{
glyphname = sterling;
layers = (
{
hints = (
{
horizontal = 1;
place = (-8, 21);
target = up;
type = BottomGhost;
},
{
horizontal = 1;
place = (33, 106);
place = (33, 106);
type = Stem;
},
{
horizontal = 1;
place = (290, 85);
place = (290, 85);
type = Stem;
},
{
horizontal = 1;
place = (589, 110);
place = (589, 110);
type = Stem;
},
{
place = (125, 132);
place = (125, 132);
type = Stem;
},
{
place = (434, 134);
place = (434, 134);
type = Stem;
},
{
horizontal = 1;
place = (-14, 124);
place = (-14, 124);
type = Stem;
},
{
place = (78, 143);
place = (78, 143);
type = Stem;
}
);
layerId = m01;
shapes = (
{
closed = 1;
nodes = (
(51,375,l),
(34,290,l),
(123,290,l),
(124,281,o),
(125,272,o),
(125,263,cs),
(125,188,o),
(59,130,o),
(4,96,c),
(61,-8,l),
(93,12,o),
(127,33,o),
(167,33,cs),
(244,33,o),
(288,-14,o),
(376,-14,cs),
(437,-14,o),
(492,13,o),
(532,50,c),
(480,153,l),
(454,131,o),
(417,110,o),
(379,110,cs),
(324,110,o),
(293,139,o),
(232,139,cs),
(201,139,o),
(180,130,o),
(157,122,c),
(156,124,l),
(206,158,o),
(257,208,o),
(257,273,cs),
(257,278,o),
(257,284,o),
(256,290,c),
(370,290,l),
(387,375,l),
(239,375,l),
(230,409,o),
(221,442,o),
(221,474,cs),
(221,551,o),
(267,589,o),
(331,589,cs),
(398,589,o),
(439,553,o),
(434,454,c),
(568,454,l),
(574,544,o),
(554,601,o),
(512,641,cs),
(472,681,o),
(411,699,o),
(332,699,cs),
(190,699,o),
(78,616,o),
(78,476,cs),
(78,439,o),
(88,407,o),
(99,375,c)
);
}
);
width = 570;
}
);
note = sterling;
unicode = 163;
},
{
glyphname = section;
layers = (
{
hints = (
{
horizontal = 1;
place = (-171, 106);
place = (-171, 106);
type = Stem;
},
{
horizontal = 1;
place = (598, 101);
place = (598, 101);
type = Stem;
},
{
place = (148, 126);
place = (148, 126);
type = Stem;
},
{
place = (422, 130);
place = (422, 130);
type = Stem;
},
{
place = (40, 130);
place = (40, 130);
type = Stem;
},
{
place = (322, 134);
place = (322, 134);
type = Stem;
},
{
place = (22, 129);
place = (22, 129);
type = Stem;
}
);
layerId = m01;
shapes = (
{
closed = 1;
nodes = (
(552,354,o),
(476,399,o),
(384,448,cs),
(300,493,o),
(274,513,o),
(274,545,cs),
(274,584,o),
(309,598,o),
(344,598,cs),
(396,598,o),
(424,569,o),
(427,523,c),
(548,523,l),
(545,653,o),
(452,699,o),
(343,699,cs),
(240,699,o),
(148,645,o),
(148,531,cs),
(148,499,o),
(157,471,o),
(175,446,c),
(93,424,o),
(40,377,o),
(40,298,cs),
(40,220,o),
(87,169,o),
(195,111,cs),
(288,61,o),
(322,39,o),
(322,1,cs),
(322,-44,o),
(289,-65,o),
(245,-65,cs),
(180,-65,o),
(152,-24,o),
(151,36,c),
(22,36,l),
(20,-98,o),
(108,-171,o),
(246,-171,cs),
(364,-171,o),
(456,-106,o),
(456,8,cs),
(456,47,o),
(443,80,o),
(417,111,c),
(508,144,o),
(552,185,o),
(552,266,cs)
);
},
{
closed = 1;
nodes = (
(393,296,o),
(422,275,o),
(422,232,cs),
(422,200,o),
(394,177,o),
(353,168,c),
(329,185,o),
(301,201,o),
(270,219,cs),
(179,270,o),
(170,290,o),
(170,322,cs),
(170,356,o),
(196,380,o),
(232,390,c),
(256,372,o),
(285,355,o),
(317,338,cs)
);
}
);
width = 582;
}
);
note = section;
unicode = 167;
},
{
glyphname = bullet;
layers = (
{
hints = (
{
horizontal = 1;
place = (182, 279);
place = (182, 279);
type = Stem;
},
{
place = (45, 279);
place = (45, 279);
type = Stem;
}
);
layerId = m01;
shapes = (
{
closed = 1;
nodes = (
(261,182,o),
(324,245,o),
(324,321,cs),
(324,398,o),
(261,461,o),
(185,461,cs),
(108,461,o),
(45,398,o),
(45,321,cs),
(45,245,o),
(108,182,o),
(185,182,cs)
);
}
);
width = 345;
}
);
note = bullet;
unicode = 8226;
},
{
glyphname = paragraph;
layers = (
{
hints = (
{
horizontal = 1;
place = (0, 21);
target = up;
type = BottomGhost;
},
{
horizontal = 1;
place = (634, 81);
place = (634, 81);
type = Stem;
},
{
place = (71, 522);
place = (71, 522);
type = Stem;
}
);
layerId = m01;
shapes = (
{
closed = 1;
nodes = (
(276,341,l),
(210,0,l),
(298,0,l),
(421,634,l),
(489,634,l),
(366,0,l),
(455,0,l),
(593,715,l),
(302,715,ls),
(232,715,o),
(181,699,o),
(144,666,cs),
(94,623,o),
(71,562,o),
(71,499,cs),
(71,404,o),
(132,341,o),
(245,341,cs)
);
}
);
width = 559;
}
);
note = paragraph;
unicode = 182;
},
{
glyphname = germandbls;
kernLeft = germandbls;
kernRight = germandbls;
layers = (
{
hints = (
{
horizontal = 1;
place = (-9, 102);
place = (-9, 102);
type = Stem;
},
{
horizontal = 1;
place = (373, 82);
place = (373, 82);
type = Stem;
},
{
horizontal = 1;
place = (629, 100);
place = (629, 100);
type = Stem;
},
{
place = (384, 131);
place = (384, 131);
type = Stem;
},
{
horizontal = 1;
place = (0, 21);
target = up;
type = BottomGhost;
},
{
place = (410, 125);
place = (410, 125);
type = Stem;
}
);
layerId = m01;
shapes = (
{
closed = 1;
nodes = (
(426,-9,o),
(515,106,o),
(515,250,cs),
(515,322,o),
(481,381,o),
(419,409,c),
(419,412,l),
(492,438,o),
(535,489,o),
(535,563,cs),
(535,675,o),
(441,729,o),
(334,729,cs),
(204,729,o),
(119,652,o),
(97,540,cs),
(-7,0,l),
(127,0,l),
(229,528,ls),
(242,596,o),
(277,629,o),
(333,629,cs),
(377,629,o),
(410,601,o),
(410,557,cs),
(410,492,o),
(364,455,o),
(304,455,cs),
(269,455,l),
(253,373,l),
(279,373,ls),
(350,373,o),
(384,328,o),
(384,257,cs),
(384,157,o),
(339,93,o),
(259,93,cs),
(242,93,o),
(223,95,o),
(202,101,c),
(200,101,l),
(180,4,l),
(211,-5,o),
(241,-9,o),
(277,-9,cs)
);
}
);
width = 542;
}
);
note = germandbls;
unicode = 223;
},
{
glyphname = registered;
kernLeft = registered;
layers = (
{
hints = (
{
horizontal = 1;
place = (244, 37);
place = (244, 37);
type = Stem;
},
{
horizontal = 1;
place = (453, 50);
place = (453, 50);
type = Stem;
},
{
horizontal = 1;
place = (561, 55);
place = (561, 55);
type = Stem;
},
{
horizontal = 1;
place = (690, 38);
place = (690, 38);
type = Stem;
},
{
place = (67, 44);
place = (67, 44);
type = Stem;
},
{
place = (204, 69);
place = (204, 69);
type = Stem;
},
{
place = (352, 68);
place = (352, 68);
type = Stem;
},
{
place = (501, 44);
place = (501, 44);
type = Stem;
}
);
layerId = m01;
shapes = (
{
closed = 1;
nodes = (
(440,244,o),
(545,347,o),
(545,486,cs),
(545,625,o),
(440,728,o),
(306,728,cs),
(172,728,o),
(67,625,o),
(67,486,cs),
(67,347,o),
(172,244,o),
(306,244,cs)
);
},
{
closed = 1;
nodes = (
(194,281,o),
(111,368,o),
(111,486,cs),
(111,603,o),
(194,690,o),
(306,690,cs),
(419,690,o),
(501,603,o),
(501,486,cs),
(501,368,o),
(419,281,o),
(306,281,cs)
);
},
{
closed = 1;
nodes = (
(204,360,l),
(273,360,l),
(273,453,l),
(307,453,ls),
(332,453,o),
(345,442,o),
(347,419,cs),
(350,394,o),
(351,364,o),
(358,360,c),
(426,360,l),
(426,365,l),
(416,370,o),
(420,400,o),
(414,432,cs),
(409,456,o),
(400,471,o),
(376,478,c),
(376,480,l),
(405,490,o),
(420,512,o),
(420,541,cs),
(420,589,o),
(378,616,o),
(328,616,cs),
(204,616,l)
);
},
{
closed = 1;
nodes = (
(273,561,l),
(316,561,ls),
(341,561,o),
(352,551,o),
(352,532,cs),
(352,513,o),
(340,503,o),
(316,503,cs),
(273,503,l)
);
}
);
width = 522;
}
);
note = registered;
unicode = 174;
},
{
glyphname = copyright;
kernLeft = copyright;
kernRight = copyright;
layers = (
{
hints = (
{
horizontal = 1;
place = (-17, 49);
place = (-17, 49);
type = Stem;
},
{
horizontal = 1;
place = (133, 92);
place = (133, 92);
type = Stem;
},
{
horizontal = 1;
place = (492, 93);
place = (492, 93);
type = Stem;
},
{
horizontal = 1;
place = (678, 50);
place = (678, 50);
type = Stem;
},
{
place = (56, 58);
place = (56, 58);
type = Stem;
},
{
place = (213, 113);
place = (213, 113);
type = Stem;
},
{
place = (733, 58);
place = (733, 58);
type = Stem;
}
);
layerId = m01;
shapes = (
{
closed = 1;
nodes = (
(630,-17,o),
(791,141,o),
(791,355,cs),
(791,569,o),
(630,728,o),
(424,728,cs),
(218,728,o),
(56,569,o),
(56,355,cs),
(56,141,o),
(218,-17,o),
(424,-17,cs)
);
},
{
closed = 1;
nodes = (
(247,32,o),
(114,170,o),
(114,355,cs),
(114,540,o),
(247,678,o),
(424,678,cs),
(600,678,o),
(733,540,o),
(733,355,cs),
(733,170,o),
(600,32,o),
(424,32,cs)
);
},
{
closed = 1;
nodes = (
(489,133,o),
(534,149,o),
(568,182,cs),
(598,211,o),
(618,253,o),
(621,298,c),
(513,298,l),
(508,258,o),
(479,225,o),
(428,225,cs),
(366,225,o),
(326,281,o),
(326,358,cs),
(326,434,o),
(360,492,o),
(427,492,cs),
(474,492,o),
(502,464,o),
(509,427,c),
(617,427,l),
(607,518,o),
(538,585,o),
(428,585,cs),
(297,585,o),
(213,488,o),
(213,358,cs),
(213,228,o),
(299,133,o),
(427,133,cs)
);
}
);
width = 815;
}
);
note = copyright;
unicode = 169;
},
{
glyphname = trademark;
layers = (
{
hints = (
{
horizontal = 1;
place = (436, 103);
place = (436, 103);
type = Stem;
},
{
horizontal = 1;
place = (651, 64);
place = (651, 64);
type = Stem;
},
{
place = (107, 602);
place = (107, 602);
type = Stem;
}
);
layerId = m01;
shapes = (
{
closed = 1;
nodes = (
(343,436,l),
(413,436,l),
(448,617,l),
(450,617,l),
(468,436,l),
(528,436,l),
(617,617,l),
(619,617,l),
(584,436,l),
(655,436,l),
(709,715,l),
(601,715,l),
(518,539,l),
(516,539,l),
(501,715,l),
(397,715,l)
);
},
{
closed = 1;
nodes = (
(107,651,l),
(187,651,l),
(145,436,l),
(222,436,l),
(264,651,l),
(345,651,l),
(357,715,l),
(119,715,l)
);
}
);
width = 668;
}
);
note = trademark;
unicode = 8482;
},
{
glyphname = acute;
layers = (
{
hints = (
{
horizontal = 1;
place = (577, 141);
place = (577, 141);
type = Stem;
},
{
place = (242, 231);
place = (242, 231);
type = Stem;
}
);
layerId = m01;
shapes = (
{
closed = 1;
nodes = (
(473,718,l),
(316,718,l),
(242,577,l),
(347,577,l)
);
}
);
width = 492;
}
);
note = acute;
unicode = 180;
},
{
glyphname = dieresis;
layers = (
{
hints = (
{
horizontal = 1;
place = (581, 114);
place = (581, 114);
type = Stem;
},
{
place = (135, 364);
place = (135, 364);
type = Stem;
}
);
layerId = m01;
shapes = (
{
closed = 1;
nodes = (
(352,581,l),
(476,581,l),
(499,695,l),
(375,695,l)
);
},
{
closed = 1;
nodes = (
(135,581,l),
(259,581,l),
(282,695,l),
(158,695,l)
);
}
);
width = 492;
}
);
note = dieresis;
unicode = 168;
},
{
glyphname = notequal;
layers = (
{
hints = (
{
horizontal = 1;
place = (166, 96);
place = (166, 96);
type = Stem;
},
{
horizontal = 1;
place = (359, 96);
place = (359, 96);
type = Stem;
},
{
place = (32, 513);
place = (32, 513);
type = Stem;
}
);
layerId = m01;
shapes = (
{
closed = 1;
nodes = (
(69,359,l),
(272,359,l),
(216,262,l),
(51,262,l),
(32,166,l),
(161,166,l),
(111,78,l),
(201,78,l),
(251,166,l),
(489,166,l),
(508,262,l),
(306,262,l),
(362,359,l),
(526,359,l),
(545,455,l),
(417,455,l),
(468,543,l),
(377,543,l),
(327,455,l),
(88,455,l)
);
}
);
width = 553;
}
);
note = notequal;
unicode = 8800;
},
{
glyphname = AE;
kernLeft = AE;
kernRight = E;
layers = (
{
hints = (
{
horizontal = 1;
place = (0, 120);
place = (0, 120);
type = Stem;
},
{
horizontal = 1;
place = (153, 105);
place = (153, 105);
type = Stem;
},
{
horizontal = 1;
place = (315, 118);
place = (315, 118);
type = Stem;
},
{
horizontal = 1;
place = (594, 121);
place = (594, 121);
type = Stem;
},
{
place = (-46, 1034);
place = (-46, 1034);
type = Stem;
}
);
layerId = m01;
shapes = (
{
closed = 1;
nodes = (
(359,0,l),
(858,0,l),
(881,120,l),
(525,120,l),
(563,315,l),
(868,315,l),
(891,433,l),
(586,433,l),
(617,594,l),
(965,594,l),
(988,715,l),
(322,715,l),
(-46,0,l),
(100,0,l),
(176,153,l),
(388,153,l)
);
},
{
closed = 1;
nodes = (
(395,594,l),
(473,594,l),
(409,258,l),
(228,258,l)
);
}
);
width = 941;
}
);
note = AE;
unicode = 198;
},
{
glyphname = Oslash;
kernLeft = C;
kernRight = O;
layers = (
{
hints = (
{
horizontal = 1;
place = (-16, 118);
place = (-16, 118);
type = Stem;
},
{
horizontal = 1;
place = (611, 118);
place = (611, 118);
type = Stem;
},
{
place = (35, 145);
place = (35, 145);
type = Stem;
},
{
place = (571, 145);
place = (571, 145);
type = Stem;
},
{
horizontal = 1;
place = (726, -20);
target = down;
type = TopGhost;
}
);
layerId = m01;
shapes = (
{
closed = 1;
nodes = (
(590,-16,o),
(716,192,o),
(716,417,cs),
(716,495,o),
(695,562,o),
(657,613,c),
(722,683,l),
(676,726,l),
(614,659,l),
(561,704,o),
(490,729,o),
(406,729,cs),
(166,729,o),
(35,521,o),
(35,291,cs),
(35,214,o),
(55,149,o),
(91,100,c),
(18,21,l),
(62,-22,l),
(134,54,l),
(188,9,o),
(261,-16,o),
(346,-16,cs)
);
},
{
closed = 1;
nodes = (
(571,275,o),
(513,102,o),
(352,102,cs),
(292,102,o),
(250,118,o),
(222,149,c),
(558,507,l),
(567,481,o),
(571,449,o),
(571,413,cs)
);
},
{
closed = 1;
nodes = (
(180,438,o),
(241,611,o),
(399,611,cs),
(455,611,o),
(497,595,o),
(525,564,c),
(191,206,l),
(183,231,o),
(180,261,o),
(180,294,cs)
);
}
);
width = 713;
}
);
note = Oslash;
unicode = 216;
},
{
glyphname = infinity;
layers = (
{
hints = (
{
horizontal = 1;
place = (124, 100);
place = (124, 100);
type = Stem;
},
{
horizontal = 1;
place = (385, 100);
place = (385, 100);
type = Stem;
},
{
place = (32, 107);
place = (32, 107);
type = Stem;
},
{
place = (597, 106);
place = (597, 106);
type = Stem;
}
);
layerId = m01;
shapes = (
{
closed = 1;
nodes = (
(272,124,o),
(325,173,o),
(370,240,c),
(415,173,o),
(465,124,o),
(545,124,cs),
(640,124,o),
(703,197,o),
(703,305,cs),
(703,412,o),
(640,485,o),
(545,485,cs),
(465,485,o),
(415,436,o),
(370,369,c),
(325,436,o),
(272,485,o),
(189,485,cs),
(86,485,o),
(32,401,o),
(32,305,cs),
(32,208,o),
(85,124,o),
(189,124,cs)
);
},
{
closed = 1;
nodes = (
(243,385,o),
(273,347,o),
(298,304,c),
(273,263,o),
(243,224,o),
(201,224,cs),
(157,224,o),
(139,260,o),
(139,305,cs),
(139,349,o),
(157,385,o),
(201,385,cs)
);
},
{
closed = 1;
nodes = (
(494,224,o),
(466,263,o),
(441,304,c),
(466,347,o),
(494,385,o),
(534,385,cs),
(578,385,o),
(597,349,o),
(597,305,cs),
(597,260,o),
(578,224,o),
(534,224,cs)
);
}
);
width = 725;
}
);
note = infinity;
unicode = 8734;
},
{
glyphname = plusminus;
layers = (
{
hints = (
{
horizontal = 1;
place = (0, 98);
place = (0, 98);
type = Stem;
},
{
horizontal = 1;
place = (319, 98);
place = (319, 98);
type = Stem;
},
{
place = (-16, 571);
place = (-16, 571);
type = Stem;
}
);
layerId = m01;
shapes = (
{
closed = 1;
nodes = (
(45,319,l),
(239,319,l),
(208,155,l),
(311,155,l),
(342,319,l),
(536,319,l),
(555,417,l),
(362,417,l),
(393,581,l),
(290,581,l),
(259,417,l),
(64,417,l)
);
},
{
closed = 1;
nodes = (
(-16,0,l),
(475,0,l),
(494,98,l),
(3,98,l)
);
}
);
width = 560;
}
);
note = plusminus;
unicode = 177;
},
{
glyphname = lessequal;
layers = (
{
hints = (
{
horizontal = 1;
place = (0, 96);
place = (0, 96);
type = Stem;
},
{
place = (-6, 509);
place = (-6, 509);
type = Stem;
}
);
layerId = m01;
shapes = (
{
closed = 1;
nodes = (
(422,124,l),
(442,231,l),
(240,302,ls),
(210,313,o),
(152,329,o),
(152,329,c),
(152,331,l),
(152,331,o),
(216,347,o),
(250,358,cs),
(481,430,l),
(503,541,l),
(71,397,l),
(47,274,l)
);
},
{
closed = 1;
nodes = (
(-6,0,l),
(398,0,l),
(417,96,l),
(13,96,l)
);
}
);
width = 492;
}
);
note = lessequal;
unicode = 8804;
},
{
glyphname = greaterequal;
layers = (
{
hints = (
{
horizontal = 1;
place = (0, 96);
place = (0, 96);
type = Stem;
},
{
place = (-6, 480);
place = (-6, 480);
type = Stem;
}
);
layerId = m01;
shapes = (
{
closed = 1;
nodes = (
(417,96,l),
(13,96,l),
(-6,0,l),
(398,0,l)
);
},
{
closed = 1;
nodes = (
(99,541,l),
(79,434,l),
(281,363,ls),
(311,352,o),
(369,336,o),
(369,336,c),
(369,334,l),
(369,334,o),
(305,318,o),
(271,307,cs),
(40,235,l),
(18,124,l),
(450,268,l),
(474,391,l)
);
}
);
width = 492;
}
);
note = greaterequal;
unicode = 8805;
},
{
glyphname = yen;
layers = (
{
hints = (
{
horizontal = 1;
place = (142, 58);
place = (142, 58);
type = Stem;
},
{
horizontal = 1;
place = (264, 58);
place = (264, 58);
type = Stem;
},
{
horizontal = 1;
place = (686, -20);
target = down;
type = TopGhost;
},
{
place = (38, 636);
place = (38, 636);
type = Stem;
},
{
horizontal = 1;
place = (0, 200);
place = (0, 200);
type = Stem;
}
);
layerId = m01;
shapes = (
{
closed = 1;
nodes = (
(62,264,l),
(230,264,l),
(217,200,l),
(49,200,l),
(38,142,l),
(206,142,l),
(179,0,l),
(310,0,l),
(337,142,l),
(508,142,l),
(519,200,l),
(348,200,l),
(361,264,l),
(532,264,l),
(543,322,l),
(396,322,l),
(674,686,l),
(521,686,l),
(378,486,ls),
(351,448,o),
(322,399,o),
(322,399,c),
(320,399,l),
(320,399,o),
(308,449,o),
(296,487,cs),
(232,686,l),
(83,686,l),
(221,322,l),
(73,322,l)
);
}
);
width = 599;
}
);
note = yen;
unicode = 165;
},
{
glyphname = mu;
layers = (
{
hints = (
{
horizontal = 1;
place = (-168, 21);
target = up;
type = BottomGhost;
},
{
horizontal = 1;
place = (-14, 113);
place = (-14, 113);
type = Stem;
},
{
horizontal = 1;
place = (513, -20);
target = down;
type = TopGhost;
},
{
place = (-40, 579);
place = (-40, 579);
type = Stem;
},
{
horizontal = 1;
place = (0, 99);
place = (0, 99);
type = Stem;
}
);
layerId = m01;
shapes = (
{
closed = 1;
nodes = (
(243,-14,o),
(282,17,o),
(322,73,c),
(325,73,l),
(311,0,l),
(440,0,l),
(539,513,l),
(405,513,l),
(351,233,ls),
(335,151,o),
(292,99,o),
(229,99,cs),
(172,99,o),
(151,134,o),
(165,205,cs),
(225,513,l),
(91,513,l),
(-40,-168,l),
(93,-168,l),
(127,7,l),
(130,7,l),
(141,-5,o),
(159,-14,o),
(188,-14,cs)
);
}
);
width = 535;
}
);
note = mu;
unicode = 181;
},
{
glyphname = partialdiff;
layers = (
{
hints = (
{
horizontal = 1;
place = (-14, 106);
place = (-14, 106);
type = Stem;
},
{
horizontal = 1;
place = (360, 103);
place = (360, 103);
type = Stem;
},
{
horizontal = 1;
place = (722, -20);
target = down;
type = TopGhost;
},
{
place = (32, 135);
place = (32, 135);
type = Stem;
},
{
place = (401, 141);
place = (401, 141);
type = Stem;
}
);
layerId = m01;
shapes = (
{
closed = 1;
nodes = (
(369,444,o),
(327,463,o),
(267,463,cs),
(132,463,o),
(32,363,o),
(32,215,cs),
(32,78,o),
(113,-14,o),
(272,-14,cs),
(456,-14,o),
(542,111,o),
(542,304,cs),
(542,556,o),
(393,709,o),
(142,722,c),
(142,603,l),
(271,587,o),
(371,537,o),
(394,417,c)
);
},
{
closed = 1;
nodes = (
(213,92,o),
(167,127,o),
(167,213,cs),
(167,311,o),
(222,360,o),
(295,360,cs),
(356,360,o),
(401,324,o),
(401,246,cs),
(401,164,o),
(357,92,o),
(274,92,cs)
);
}
);
width = 572;
}
);
note = partialdiff;
unicode = 8706;
},
{
glyphname = summation;
layers = (
{
hints = (
{
horizontal = 1;
place = (-100, 117);
place = (-100, 117);
type = Stem;
},
{
horizontal = 1;
place = (597, 118);
place = (597, 118);
type = Stem;
},
{
place = (67, 534);
place = (67, 534);
type = Stem;
},
{
place = (67, 162);
place = (67, 162);
type = Stem;
}
);
layerId = m01;
shapes = (
{
closed = 1;
nodes = (
(601,-100,l),
(601,17,l),
(222,17,l),
(222,19,l),
(491,289,l),
(491,349,l),
(229,595,l),
(229,597,l),
(591,597,l),
(591,715,l),
(67,715,l),
(67,590,l),
(349,317,l),
(349,315,l),
(67,25,l),
(67,-100,l)
);
}
);
width = 636;
}
);
note = summation;
unicode = 8721;
},
{
glyphname = product;
layers = (
{
hints = (
{
horizontal = 1;
place = (593, 122);
place = (593, 122);
type = Stem;
},
{
place = (82, 145);
place = (82, 145);
type = Stem;
},
{
place = (522, 145);
place = (522, 145);
type = Stem;
}
);
layerId = m01;
shapes = (
{
closed = 1;
nodes = (
(82,715,l),
(82,-100,l),
(227,-100,l),
(227,593,l),
(522,593,l),
(522,-100,l),
(667,-100,l),
(667,715,l)
);
}
);
width = 715;
}
);
note = product;
unicode = 8719;
},
{
glyphname = pi;
layers = (
{
hints = (
{
horizontal = 1;
place = (-1, 102);
place = (-1, 102);
type = Stem;
},
{
horizontal = 1;
place = (425, 88);
place = (425, 88);
type = Stem;
},
{
place = (41, 589);
place = (41, 589);
type = Stem;
}
);
layerId = m01;
shapes = (
{
closed = 1;
nodes = (
(253,425,l),
(403,425,l),
(348,142,ls),
(327,37,o),
(380,-1,o),
(472,-1,cs),
(485,-1,o),
(509,1,o),
(520,2,c),
(539,101,l),
(494,95,o),
(472,107,o),
(482,156,cs),
(534,425,l),
(613,425,l),
(630,513,l),
(64,513,l),
(47,425,l),
(123,425,l),
(41,0,l),
(171,0,l)
);
}
);
width = 601;
}
);
note = pi;
unicode = 960;
},
{
glyphname = integral;
layers = (
{
hints = (
{
horizontal = 1;
place = (-176, 105);
place = (-176, 105);
type = Stem;
},
{
horizontal = 1;
place = (730, -20);
target = down;
type = TopGhost;
},
{
place = (106, 136);
place = (106, 136);
type = Stem;
},
{
horizontal = 1;
place = (636, 105);
place = (636, 105);
type = Stem;
}
);
layerId = m01;
shapes = (
{
closed = 1;
nodes = (
(106,-17,ls),
(106,-59,o),
(85,-71,o),
(45,-71,cs),
(20,-71,o),
(3,-67,o),
(-8,-63,c),
(-11,-63,l),
(-11,-165,l),
(10,-171,o),
(36,-176,o),
(76,-176,cs),
(142,-176,o),
(179,-165,o),
(209,-135,cs),
(230,-113,o),
(242,-83,o),
(242,-30,cs),
(242,582,ls),
(242,624,o),
(263,636,o),
(303,636,cs),
(328,636,o),
(345,632,o),
(356,628,c),
(359,628,l),
(359,730,l),
(338,736,o),
(312,741,o),
(272,741,cs),
(206,741,o),
(169,730,o),
(139,700,cs),
(118,678,o),
(106,648,o),
(106,595,cs)
);
}
);
width = 337;
}
);
note = integral;
unicode = 8747;
},
{
glyphname = ordfeminine;
layers = (
{
hints = (
{
horizontal = 1;
place = (226, 85);
place = (226, 85);
type = Stem;
},
{
horizontal = 1;
place = (611, 88);
place = (611, 88);
type = Stem;
},
{
place = (43, 123);
place = (43, 123);
type = Stem;
},
{
place = (365, 119);
place = (365, 119);
type = Stem;
},
{
place = (315, 119);
place = (315, 119);
type = Stem;
}
);
layerId = m01;
shapes = (
{
closed = 1;
nodes = (
(246,226,o),
(284,254,o),
(313,286,c),
(315,286,l),
(314,266,o),
(316,245,o),
(322,236,c),
(441,236,l),
(441,241,l),
(433,251,o),
(432,272,o),
(438,304,cs),
(479,517,ls),
(494,593,o),
(472,640,o),
(432,668,cs),
(399,690,o),
(354,699,o),
(304,699,cs),
(182,699,o),
(114,642,o),
(98,550,c),
(212,550,l),
(222,591,o),
(253,611,o),
(299,611,cs),
(341,611,o),
(365,592,o),
(365,562,cs),
(365,518,o),
(328,514,o),
(246,507,cs),
(133,498,o),
(43,473,o),
(43,356,cs),
(43,266,o),
(113,226,o),
(186,226,cs)
);
},
{
closed = 1;
nodes = (
(193,311,o),
(166,329,o),
(166,368,cs),
(166,425,o),
(223,428,o),
(264,435,cs),
(301,441,o),
(327,446,o),
(349,456,c),
(335,387,ls),
(325,343,o),
(286,311,o),
(230,311,cs)
);
}
);
width = 474;
}
);
note = ordfeminine;
unicode = 170;
},
{
glyphname = ordmasculine;
layers = (
{
hints = (
{
horizontal = 1;
place = (222, 94);
place = (222, 94);
type = Stem;
},
{
horizontal = 1;
place = (606, 93);
place = (606, 93);
type = Stem;
},
{
place = (56, 127);
place = (56, 127);
type = Stem;
},
{
place = (396, 128);
place = (396, 128);
type = Stem;
}
);
layerId = m01;
shapes = (
{
closed = 1;
nodes = (
(426,222,o),
(525,347,o),
(524,494,cs),
(524,630,o),
(422,699,o),
(308,699,cs),
(157,699,o),
(56,575,o),
(56,430,cs),
(55,292,o),
(153,222,o),
(271,222,cs)
);
},
{
closed = 1;
nodes = (
(208,316,o),
(183,365,o),
(183,422,cs),
(183,505,o),
(219,606,o),
(306,606,cs),
(370,606,o),
(396,553,o),
(396,498,cs),
(396,416,o),
(361,316,o),
(273,316,cs)
);
}
);
width = 504;
}
);
note = ordmasculine;
unicode = 186;
},
{
glyphname = Omega;
layers = (
{
hints = (
{
horizontal = 1;
place = (0, 109);
place = (0, 109);
type = Stem;
},
{
horizontal = 1;
place = (611, 118);
place = (611, 118);
type = Stem;
},
{
place = (38, 139);
place = (38, 139);
type = Stem;
},
{
place = (578, 147);
place = (578, 147);
type = Stem;
}
);
layerId = m01;
shapes = (
{
closed = 1;
nodes = (
(578,284,o),
(516,129,o),
(370,107,c),
(350,0,l),
(648,0,l),
(669,109,l),
(570,109,l),
(570,111,l),
(671,177,o),
(725,296,o),
(725,430,cs),
(725,620,o),
(595,729,o),
(420,729,cs),
(173,729,o),
(38,520,o),
(38,309,cs),
(38,227,o),
(68,150,o),
(121,111,c),
(121,109,l),
(5,109,l),
(-16,0,l),
(268,0,l),
(289,106,l),
(212,129,o),
(177,195,o),
(177,292,cs),
(177,441,o),
(240,611,o),
(411,611,cs),
(531,611,o),
(578,531,o),
(578,427,cs)
);
}
);
width = 725;
}
);
note = Omega;
unicode = 8486;
},
{
glyphname = ae;
kernLeft = a;
kernRight = e;
layers = (
{
hints = (
{
horizontal = 1;
place = (-12, 93);
place = (-12, 93);
type = Stem;
},
{
horizontal = 1;
place = (219, 93);
place = (219, 93);
type = Stem;
},
{
horizontal = 1;
place = (430, 96);
place = (430, 96);
type = Stem;
},
{
place = (-2, 129);
place = (-2, 129);
type = Stem;
},
{
place = (705, 129);
place = (705, 129);
type = Stem;
},
{
horizontal = 1;
place = (-15, 104);
place = (-15, 104);
type = Stem;
},
{
horizontal = 1;
place = (423, 104);
place = (423, 104);
type = Stem;
}
);
layerId = m01;
shapes = (
{
closed = 1;
nodes = (
(157,526,o),
(76,462,o),
(59,357,c),
(179,357,l),
(191,408,o),
(228,430,o),
(284,430,cs),
(335,430,o),
(364,410,o),
(364,373,cs),
(364,322,o),
(327,316,o),
(231,308,cs),
(106,298,o),
(-2,275,o),
(-2,139,cs),
(-2,33,o),
(78,-12,o),
(178,-12,cs),
(283,-12,o),
(339,29,o),
(378,84,c),
(417,16,o),
(488,-15,o),
(575,-15,cs),
(637,-14,o),
(692,4,o),
(735,38,cs),
(771,66,o),
(798,105,o),
(814,153,c),
(682,153,l),
(663,109,o),
(624,89,o),
(577,89,cs),
(499,89,o),
(472,138,o),
(472,219,c),
(829,219,l),
(848,342,o),
(820,444,o),
(743,494,cs),
(709,516,o),
(670,527,o),
(614,527,cs),
(550,527,o),
(495,503,o),
(452,465,c),
(420,508,o),
(361,526,o),
(289,526,cs)
);
},
{
closed = 1;
nodes = (
(127,221,o),
(198,216,o),
(247,225,cs),
(291,233,o),
(319,239,o),
(345,251,c),
(331,181,ls),
(319,123,o),
(274,81,o),
(204,81,cs),
(159,81,o),
(127,105,o),
(127,151,cs)
);
},
{
closed = 1;
nodes = (
(680,423,o),
(707,372,o),
(705,312,c),
(484,312,l),
(502,372,o),
(540,423,o),
(611,423,cs)
);
}
);
width = 855;
}
);
note = ae;
unicode = 230;
},
{
glyphname = oslash;
kernLeft = c;
kernRight = o;
layers = (
{
hints = (
{
horizontal = 1;
place = (-15, 101);
place = (-15, 101);
type = Stem;
},
{
horizontal = 1;
place = (426, 101);
place = (426, 101);
type = Stem;
},
{
place = (17, 132);
place = (17, 132);
type = Stem;
},
{
place = (411, 132);
place = (411, 132);
type = Stem;
},
{
horizontal = 1;
place = (1, 21);
target = up;
type = BottomGhost;
}
);
layerId = m01;
shapes = (
{
closed = 1;
nodes = (
(432,-15,o),
(543,129,o),
(543,293,cs),
(543,354,o),
(526,404,o),
(496,442,c),
(555,504,l),
(516,541,l),
(458,480,l),
(417,511,o),
(364,527,o),
(306,527,cs),
(131,527,o),
(17,386,o),
(17,224,cs),
(17,158,o),
(36,105,o),
(68,66,c),
(6,1,l),
(45,-36,l),
(107,29,l),
(148,0,o),
(201,-15,o),
(259,-15,cs)
);
},
{
closed = 1;
nodes = (
(149,315,o),
(196,426,o),
(299,426,cs),
(334,426,o),
(360,415,o),
(379,396,c),
(156,160,l),
(151,176,o),
(149,195,o),
(149,216,cs)
);
},
{
closed = 1;
nodes = (
(411,199,o),
(365,86,o),
(261,86,cs),
(227,86,o),
(202,95,o),
(184,111,c),
(405,345,l),
(409,331,o),
(411,314,o),
(411,297,cs)
);
}
);
width = 561;
}
);
note = oslash;
unicode = 248;
},
{
glyphname = questiondown;
kernRight = questiondown;
layers = (
{
hints = (
{
horizontal = 1;
place = (-140, 114);
place = (-140, 114);
type = Stem;
},
{
horizontal = 1;
place = (443, 145);
place = (443, 145);
type = Stem;
},
{
place = (-25, 136);
place = (-25, 136);
type = Stem;
}
);
layerId = m01;
shapes = (
{
closed = 1;
nodes = (
(235,379,l),
(221,307,o),
(191,300,o),
(106,249,cs),
(21,197,o),
(-25,142,o),
(-25,50,cs),
(-25,-76,o),
(77,-140,o),
(201,-140,cs),
(347,-140,o),
(451,-46,o),
(477,100,c),
(347,100,l),
(332,14,o),
(275,-26,o),
(207,-26,cs),
(149,-26,o),
(111,3,o),
(111,60,cs),
(111,132,o),
(166,158,o),
(216,185,cs),
(284,225,o),
(332,254,o),
(356,379,c)
);
},
{
closed = 1;
nodes = (
(407,588,l),
(263,588,l),
(235,443,l),
(379,443,l)
);
}
);
width = 517;
}
);
note = questiondown;
unicode = 191;
},
{
glyphname = exclamdown;
kernRight = exclamdown;
layers = (
{
hints = (
{
horizontal = 1;
place = (443, 145);
place = (443, 145);
type = Stem;
},
{
place = (-20, 279);
place = (-20, 279);
type = Stem;
}
);
layerId = m01;
shapes = (
{
closed = 1;
nodes = (
(181,379,l),
(116,379,l),
(12,41,l),
(-20,-127,l),
(120,-127,l),
(150,31,l)
);
},
{
closed = 1;
nodes = (
(259,588,l),
(115,588,l),
(87,443,l),
(231,443,l)
);
}
);
width = 250;
}
);
note = exclamdown;
unicode = 161;
},
{
glyphname = logicalnot;
layers = (
{
hints = (
{
horizontal = 1;
place = (320, 98);
place = (320, 98);
type = Stem;
},
{
place = (45, 437);
place = (45, 437);
type = Stem;
}
);
layerId = m01;
shapes = (
{
closed = 1;
nodes = (
(45,320,l),
(359,320,l),
(326,145,l),
(429,145,l),
(482,418,l),
(65,418,l)
);
}
);
width = 505;
}
);
note = logicalnot;
unicode = 172;
},
{
glyphname = radical;
layers = (
{
hints = (
{
horizontal = 1;
place = (215, 118);
place = (215, 118);
type = Stem;
},
{
horizontal = 1;
place = (715, -20);
target = down;
type = TopGhost;
},
{
place = (19, 599);
place = (19, 599);
type = Stem;
}
);
layerId = m01;
shapes = (
{
closed = 1;
nodes = (
(19,215,l),
(104,215,l),
(235,-100,l),
(354,-100,l),
(618,715,l),
(488,715,l),
(321,195,ls),
(302,137,o),
(290,81,o),
(290,81,c),
(288,81,l),
(288,81,o),
(271,136,o),
(248,194,cs),
(193,333,l),
(19,333,l)
);
}
);
width = 591;
}
);
note = radical;
unicode = 8730;
},
{
glyphname = florin;
layers = (
{
hints = (
{
horizontal = 1;
place = (-155, 98);
place = (-155, 98);
type = Stem;
},
{
horizontal = 1;
place = (323, 90);
place = (323, 90);
type = Stem;
},
{
horizontal = 1;
place = (595, 104);
place = (595, 104);
type = Stem;
},
{
place = (-46, 482);
place = (-46, 482);
type = Stem;
},
{
horizontal = 1;
place = (595, 99);
place = (595, 99);
type = Stem;
}
);
layerId = m01;
shapes = (
{
closed = 1;
nodes = (
(62,413,l),
(44,323,l),
(129,323,l),
(57,-4,ls),
(45,-59,o),
(18,-60,o),
(-28,-57,c),
(-46,-150,l),
(36,-161,o),
(104,-156,o),
(147,-108,cs),
(166,-87,o),
(180,-58,o),
(189,-18,cs),
(264,323,l),
(368,323,l),
(386,413,l),
(284,413,l),
(313,542,ls),
(325,596,o),
(354,601,o),
(417,595,c),
(436,694,l),
(354,705,o),
(287,701,o),
(241,664,cs),
(213,641,o),
(192,607,o),
(181,556,cs),
(149,413,l)
);
}
);
width = 392;
}
);
note = florin;
unicode = 402;
},
{
glyphname = approxequal;
layers = (
{
hints = (
{
horizontal = 1;
place = (148, 138);
place = (148, 138);
type = Stem;
},
{
horizontal = 1;
place = (339, 142);
place = (339, 142);
type = Stem;
},
{
place = (36, 510);
place = (36, 510);
type = Stem;
},
{
horizontal = 1;
place = (342, 138);
place = (342, 138);
type = Stem;
},
{
horizontal = 1;
place = (145, 142);
place = (145, 142);
type = Stem;
}
);
layerId = m01;
shapes = (
{
closed = 1;
nodes = (
(159,339,l),
(165,362,o),
(176,374,o),
(197,374,cs),
(238,374,o),
(337,342,o),
(411,342,cs),
(494,342,o),
(536,399,o),
(546,480,c),
(452,480,l),
(448,459,o),
(438,448,o),
(415,448,cs),
(371,448,o),
(269,481,o),
(206,481,cs),
(130,481,o),
(76,434,o),
(65,339,c)
);
},
{
closed = 1;
nodes = (
(130,145,l),
(135,168,o),
(146,180,o),
(167,180,cs),
(208,180,o),
(307,148,o),
(381,148,cs),
(464,148,o),
(506,205,o),
(516,286,c),
(422,286,l),
(418,265,o),
(408,254,o),
(385,254,cs),
(341,254,o),
(239,287,o),
(176,287,cs),
(100,287,o),
(46,240,o),
(36,145,c)
);
}
);
width = 553;
}
);
note = approxequal;
unicode = 8776;
},
{
glyphname = Delta;
layers = (
{
hints = (
{
horizontal = 1;
place = (0, 111);
place = (0, 111);
type = Stem;
},
{
horizontal = 1;
place = (715, -20);
target = down;
type = TopGhost;
},
{
place = (-29, 624);
place = (-29, 624);
type = Stem;
},
{
horizontal = 1;
place = (583, 132);
place = (583, 132);
type = Stem;
}
);
layerId = m01;
shapes = (
{
closed = 1;
nodes = (
(-29,0,l),
(577,0,l),
(595,99,l),
(472,715,l),
(326,715,l),
(-10,98,l)
);
},
{
closed = 1;
nodes = (
(319,461,ls),
(340,498,o),
(374,583,o),
(374,583,c),
(376,583,l),
(376,583,o),
(382,494,o),
(390,452,cs),
(452,111,l),
(137,111,l)
);
}
);
width = 647;
}
);
note = Delta;
unicode = 8710;
},
{
glyphname = guillemotleft;
kernLeft = guillemotleft;
kernRight = guillemotleft;
layers = (
{
hints = (
{
horizontal = 1;
place = (59, 398);
place = (59, 398);
type = Stem;
},
{
place = (41, 379);
place = (41, 379);
type = Stem;
}
);
layerId = m01;
shapes = (
{
closed = 1;
nodes = (
(343,59,l),
(366,181,l),
(301,252,l),
(301,254,l),
(394,325,l),
(420,457,l),
(253,328,l),
(228,196,l)
);
},
{
closed = 1;
nodes = (
(156,59,l),
(179,181,l),
(114,252,l),
(114,254,l),
(207,325,l),
(233,457,l),
(66,328,l),
(41,196,l)
);
}
);
width = 440;
}
);
note = guillemotleft;
unicode = 171;
},
{
glyphname = guillemotright;
kernLeft = guillemotright;
kernRight = guillemotright;
layers = (
{
hints = (
{
horizontal = 1;
place = (59, 398);
place = (59, 398);
type = Stem;
},
{
place = (19, 379);
place = (19, 379);
type = Stem;
}
);
layerId = m01;
shapes = (
{
closed = 1;
nodes = (
(96,457,l),
(73,335,l),
(138,264,l),
(138,262,l),
(45,191,l),
(19,59,l),
(186,188,l),
(211,320,l)
);
},
{
closed = 1;
nodes = (
(283,457,l),
(260,335,l),
(325,264,l),
(325,262,l),
(232,191,l),
(206,59,l),
(373,188,l),
(398,320,l)
);
}
);
width = 440;
}
);
note = guillemotright;
unicode = 187;
},
{
glyphname = ellipsis;
kernLeft = comma;
kernRight = comma;
layers = (
{
hints = (
{
horizontal = 1;
place = (0, 145);
place = (0, 145);
type = Stem;
},
{
place = (-15, 172);
place = (-15, 172);
type = Stem;
},
{
place = (233, 172);
place = (233, 172);
type = Stem;
},
{
place = (481, 172);
place = (481, 172);
type = Stem;
}
);
layerId = m01;
shapes = (
{
closed = 1;
nodes = (
(481,0,l),
(625,0,l),
(653,145,l),
(509,145,l)
);
},
{
closed = 1;
nodes = (
(-15,0,l),
(129,0,l),
(157,145,l),
(13,145,l)
);
},
{
closed = 1;
nodes = (
(233,0,l),
(377,0,l),
(405,145,l),
(261,145,l)
);
}
);
width = 711;
}
);
note = ellipsis;
unicode = 8230;
},
{
glyphname = Agrave;
kernLeft = A;
kernRight = A;
layers = (
{
hints = (
{
horizontal = 1;
place = (0, 21);
target = up;
type = BottomGhost;
},
{
horizontal = 1;
place = (153, 110);
place = (153, 110);
type = Stem;
},
{
horizontal = 1;
place = (715, -20);
target = down;
type = TopGhost;
},
{
horizontal = 1;
place = (753, 125);
place = (753, 125);
type = Stem;
},
{
place = (-49, 632);
place = (-49, 632);
type = Stem;
},
{
horizontal = 1;
place = (578, 137);
place = (578, 137);
type = Stem;
}
);
layerId = m01;
shapes = (
{
closed = 1;
nodes = (
(435,0,l),
(583,0,l),
(465,715,l),
(317,715,l),
(-49,0,l),
(96,0,l),
(168,153,l),
(415,153,l)
);
},
{
closed = 1;
nodes = (
(317,466,ls),
(335,504,o),
(365,578,o),
(365,578,c),
(367,578,l),
(367,578,o),
(371,505,o),
(376,464,cs),
(401,263,l),
(220,263,l)
);
},
{
closed = 1;
nodes = (
(349,753,l),
(451,753,l),
(422,878,l),
(277,878,l)
);
}
);
width = 634;
}
);
note = Agrave;
unicode = 192;
},
{
glyphname = Atilde;
kernLeft = A;
kernRight = A;
layers = (
{
hints = (
{
horizontal = 1;
place = (0, 21);
target = up;
type = BottomGhost;
},
{
horizontal = 1;
place = (153, 110);
place = (153, 110);
type = Stem;
},
{
horizontal = 1;
place = (715, -20);
target = down;
type = TopGhost;
},
{
place = (-49, 632);
place = (-49, 632);
type = Stem;
},
{
horizontal = 1;
place = (578, 137);
place = (578, 137);
type = Stem;
},
{
horizontal = 1;
place = (755, 116);
place = (755, 116);
type = Stem;
},
{
horizontal = 1;
place = (757, 118);
place = (757, 118);
type = Stem;
}
);
layerId = m01;
shapes = (
{
closed = 1;
nodes = (
(435,0,l),
(583,0,l),
(465,715,l),
(317,715,l),
(-49,0,l),
(96,0,l),
(168,153,l),
(415,153,l)
);
},
{
closed = 1;
nodes = (
(317,466,ls),
(335,504,o),
(365,578,o),
(365,578,c),
(367,578,l),
(367,578,o),
(371,505,o),
(376,464,cs),
(401,263,l),
(220,263,l)
);
},
{
closed = 1;
nodes = (
(514,755,o),
(549,803,o),
(560,871,c),
(489,871,l),
(483,852,o),
(475,840,o),
(456,840,cs),
(430,840,o),
(395,875,o),
(347,875,cs),
(298,875,o),
(259,835,o),
(247,757,c),
(318,757,l),
(322,776,o),
(334,788,o),
(348,788,cs),
(374,788,o),
(410,755,o),
(457,755,cs)
);
}
);
width = 634;
}
);
note = Atilde;
unicode = 195;
},
{
glyphname = Otilde;
kernLeft = C;
kernRight = O;
layers = (
{
hints = (
{
horizontal = 1;
place = (-16, 118);
place = (-16, 118);
type = Stem;
},
{
horizontal = 1;
place = (611, 118);
place = (611, 118);
type = Stem;
},
{
place = (35, 146);
place = (35, 146);
type = Stem;
},
{
place = (570, 146);
place = (570, 146);
type = Stem;
},
{
horizontal = 1;
place = (755, 116);
place = (755, 116);
type = Stem;
},
{
horizontal = 1;
place = (757, 118);
place = (757, 118);
type = Stem;
}
);
layerId = m01;
shapes = (
{
closed = 1;
nodes = (
(590,-16,o),
(716,192,o),
(716,417,cs),
(716,606,o),
(593,729,o),
(408,729,cs),
(168,729,o),
(35,521,o),
(35,291,cs),
(35,99,o),
(162,-16,o),
(346,-16,cs)
);
},
{
closed = 1;
nodes = (
(181,438,o),
(241,611,o),
(399,611,cs),
(518,611,o),
(570,524,o),
(570,413,cs),
(570,275,o),
(513,102,o),
(352,102,cs),
(229,102,o),
(181,187,o),
(181,294,cs)
);
},
{
closed = 1;
nodes = (
(538,755,o),
(573,803,o),
(584,871,c),
(513,871,l),
(507,852,o),
(499,840,o),
(480,840,cs),
(454,840,o),
(419,875,o),
(371,875,cs),
(322,875,o),
(283,835,o),
(271,757,c),
(342,757,l),
(346,776,o),
(358,788,o),
(372,788,cs),
(398,788,o),
(434,755,o),
(481,755,cs)
);
}
);
width = 713;
}
);
note = Otilde;
unicode = 213;
},
{
glyphname = OE;
kernLeft = C;
kernRight = E;
layers = (
{
hints = (
{
horizontal = 1;
place = (-16, 118);
place = (-16, 118);
type = Stem;
},
{
horizontal = 1;
place = (315, 118);
place = (315, 118);
type = Stem;
},
{
horizontal = 1;
place = (594, 121);
place = (594, 121);
type = Stem;
},
{
place = (35, 146);
place = (35, 146);
type = Stem;
},
{
horizontal = 1;
place = (0, 120);
place = (0, 120);
type = Stem;
},
{
horizontal = 1;
place = (611, 118);
place = (611, 118);
type = Stem;
}
);
layerId = m01;
shapes = (
{
closed = 1;
nodes = (
(363,-16,o),
(423,10,o),
(474,52,c),
(464,0,l),
(950,0,l),
(973,120,l),
(620,120,l),
(658,315,l),
(960,315,l),
(983,433,l),
(681,433,l),
(712,594,l),
(1057,594,l),
(1080,715,l),
(592,715,l),
(579,649,l),
(536,707,o),
(470,729,o),
(393,729,cs),
(169,729,o),
(35,514,o),
(35,291,cs),
(35,92,o),
(151,-16,o),
(298,-16,cs)
);
},
{
closed = 1;
nodes = (
(181,442,o),
(243,611,o),
(396,611,cs),
(473,611,o),
(528,576,o),
(553,515,c),
(488,177,l),
(451,132,o),
(398,102,o),
(328,102,cs),
(234,102,o),
(181,169,o),
(181,294,cs)
);
}
);
width = 1033;
}
);
note = OE;
unicode = 338;
},
{
glyphname = oe;
kernLeft = c;
kernRight = e;
layers = (
{
hints = (
{
horizontal = 1;
place = (-15, 101);
place = (-15, 101);
type = Stem;
},
{
horizontal = 1;
place = (219, 93);
place = (219, 93);
type = Stem;
},
{
horizontal = 1;
place = (426, 101);
place = (426, 101);
type = Stem;
},
{
place = (17, 134);
place = (17, 134);
type = Stem;
},
{
place = (409, 125);
place = (409, 125);
type = Stem;
},
{
place = (767, 129);
place = (767, 129);
type = Stem;
},
{
horizontal = 1;
place = (-15, 104);
place = (-15, 104);
type = Stem;
},
{
horizontal = 1;
place = (423, 104);
place = (423, 104);
type = Stem;
}
);
layerId = m01;
shapes = (
{
closed = 1;
nodes = (
(347,-15,o),
(412,23,o),
(454,81,c),
(487,15,o),
(550,-15,o),
(637,-15,cs),
(699,-14,o),
(754,4,o),
(797,38,cs),
(833,66,o),
(860,105,o),
(876,153,c),
(744,153,l),
(725,109,o),
(686,89,o),
(639,89,cs),
(561,89,o),
(534,138,o),
(534,219,c),
(891,219,l),
(910,342,o),
(882,444,o),
(805,494,cs),
(771,516,o),
(732,527,o),
(676,527,cs),
(591,527,o),
(528,485,o),
(487,425,c),
(452,492,o),
(386,527,o),
(300,527,cs),
(131,527,o),
(18,386,o),
(17,224,cs),
(16,68,o),
(124,-15,o),
(260,-15,cs)
);
},
{
closed = 1;
nodes = (
(151,315,o),
(196,426,o),
(299,426,cs),
(376,426,o),
(409,364,o),
(409,297,cs),
(409,199,o),
(365,86,o),
(261,86,cs),
(182,86,o),
(151,146,o),
(151,216,cs)
);
},
{
closed = 1;
nodes = (
(742,423,o),
(769,372,o),
(767,312,c),
(546,312,l),
(564,372,o),
(602,423,o),
(673,423,cs)
);
}
);
width = 917;
}
);
note = oe;
unicode = 339;
},
{
glyphname = endash;
kernLeft = hyphen;
kernRight = hyphen;
layers = (
{
hints = (
{
horizontal = 1;
place = (197, 115);
place = (197, 115);
type = Stem;
},
{
place = (31, 480);
place = (31, 480);
type = Stem;
}
);
layerId = m01;
shapes = (
{
closed = 1;
nodes = (
(31,197,l),
(489,197,l),
(511,312,l),
(53,312,l)
);
}
);
width = 544;
}
);
note = endash;
unicode = 8211;
},
{
glyphname = emdash;
kernLeft = hyphen;
kernRight = hyphen;
layers = (
{
hints = (
{
horizontal = 1;
place = (197, 115);
place = (197, 115);
type = Stem;
},
{
place = (31, 809);
place = (31, 809);
type = Stem;
}
);
layerId = m01;
shapes = (
{
closed = 1;
nodes = (
(31,197,l),
(818,197,l),
(840,312,l),
(53,312,l)
);
}
);
width = 874;
}
);
note = emdash;
unicode = 8212;
},
{
glyphname = quotedblleft;
kernLeft = quotedblleft;
kernRight = quotedblleft;
layers = (
{
hints = (
{
horizontal = 1;
place = (450, 130);
place = (450, 130);
type = Stem;
},
{
horizontal = 1;
place = (718, -20);
target = down;
type = TopGhost;
},
{
place = (68, 382);
place = (68, 382);
type = Stem;
}
);
layerId = m01;
shapes = (
{
closed = 1;
nodes = (
(450,718,l),
(379,711,o),
(305,672,o),
(287,577,cs),
(263,450,l),
(396,450,l),
(421,580,l),
(357,580,l),
(365,635,o),
(402,662,o),
(440,671,c)
);
},
{
closed = 1;
nodes = (
(255,718,l),
(184,711,o),
(110,672,o),
(92,577,cs),
(68,450,l),
(201,450,l),
(226,580,l),
(162,580,l),
(170,635,o),
(207,662,o),
(245,671,c)
);
}
);
width = 393;
}
);
note = quotedblleft;
unicode = 8220;
},
{
glyphname = quotedblright;
kernLeft = quotedblright;
kernRight = quotedblright;
layers = (
{
hints = (
{
horizontal = 1;
place = (585, 130);
place = (585, 130);
type = Stem;
},
{
place = (67, 382);
place = (67, 382);
type = Stem;
}
);
layerId = m01;
shapes = (
{
closed = 1;
nodes = (
(67,447,l),
(138,454,o),
(212,493,o),
(230,588,cs),
(254,715,l),
(121,715,l),
(96,585,l),
(160,585,l),
(152,530,o),
(115,503,o),
(77,494,c)
);
},
{
closed = 1;
nodes = (
(262,447,l),
(333,454,o),
(407,493,o),
(425,588,cs),
(449,715,l),
(316,715,l),
(291,585,l),
(355,585,l),
(347,530,o),
(310,503,o),
(272,494,c)
);
}
);
width = 393;
}
);
note = quotedblright;
unicode = 8221;
},
{
glyphname = quoteleft;
kernLeft = quotedblleft;
kernRight = quotedblleft;
layers = (
{
hints = (
{
horizontal = 1;
place = (450, 130);
place = (450, 130);
type = Stem;
},
{
horizontal = 1;
place = (718, -20);
target = down;
type = TopGhost;
},
{
place = (68, 187);
place = (68, 187);
type = Stem;
}
);
layerId = m01;
shapes = (
{
closed = 1;
nodes = (
(255,718,l),
(184,711,o),
(110,672,o),
(92,577,cs),
(68,450,l),
(201,450,l),
(226,580,l),
(162,580,l),
(170,635,o),
(207,662,o),
(245,671,c)
);
}
);
width = 198;
}
);
note = quoteleft;
unicode = 8216;
},
{
glyphname = quoteright;
kernLeft = quotedblright;
kernRight = quotedblright;
layers = (
{
hints = (
{
horizontal = 1;
place = (585, 130);
place = (585, 130);
type = Stem;
},
{
place = (67, 187);
place = (67, 187);
type = Stem;
}
);
layerId = m01;
shapes = (
{
closed = 1;
nodes = (
(67,447,l),
(138,454,o),
(212,493,o),
(230,588,cs),
(254,715,l),
(121,715,l),
(96,585,l),
(160,585,l),
(152,530,o),
(115,503,o),
(77,494,c)
);
}
);
width = 198;
}
);
note = quoteright;
unicode = 8217;
},
{
glyphname = divide;
kernLeft = minus;
kernRight = minus;
layers = (
{
hints = (
{
horizontal = 1;
place = (74, 133);
place = (74, 133);
type = Stem;
},
{
horizontal = 1;
place = (279, 98);
place = (279, 98);
type = Stem;
},
{
horizontal = 1;
place = (450, 132);
place = (450, 132);
type = Stem;
},
{
place = (38, 510);
place = (38, 510);
type = Stem;
}
);
layerId = m01;
shapes = (
{
closed = 1;
nodes = (
(172,74,l),
(315,74,l),
(341,207,l),
(198,207,l)
);
},
{
closed = 1;
nodes = (
(245,450,l),
(388,450,l),
(414,582,l),
(271,582,l)
);
},
{
closed = 1;
nodes = (
(38,279,l),
(529,279,l),
(548,377,l),
(57,377,l)
);
}
);
width = 560;
}
);
note = divide;
unicode = 247;
},
{
glyphname = lozenge;
layers = (
{
hints = (
{
horizontal = 1;
place = (0, 21);
target = up;
type = BottomGhost;
},
{
horizontal = 1;
place = (715, -20);
target = down;
type = TopGhost;
},
{
place = (43, 524);
place = (43, 524);
type = Stem;
},
{
horizontal = 1;
place = (0, 122);
place = (0, 122);
type = Stem;
},
{
horizontal = 1;
place = (593, 122);
place = (593, 122);
type = Stem;
}
);
layerId = m01;
shapes = (
{
closed = 1;
nodes = (
(365,715,l),
(244,715,l),
(43,358,l),
(245,0,l),
(366,0,l),
(567,357,l)
);
},
{
closed = 1;
nodes = (
(303,593,l),
(305,593,l),
(428,354,l),
(307,122,l),
(305,122,l),
(181,360,l)
);
}
);
width = 560;
}
);
note = lozenge;
unicode = 9674;
},
{
glyphname = ydieresis;
kernLeft = yacute;
kernRight = yacute;
layers = (
{
hints = (
{
horizontal = 1;
place = (-168, 106);
place = (-168, 106);
type = Stem;
},
{
horizontal = 1;
place = (513, -20);
target = down;
type = TopGhost;
},
{
horizontal = 1;
place = (581, 114);
place = (581, 114);
type = Stem;
},
{
place = (-13, 543);
place = (-13, 543);
type = Stem;
}
);
layerId = m01;
shapes = (
{
closed = 1;
nodes = (
(-13,-168,l),
(71,-168,ls),
(170,-168,o),
(214,-128,o),
(265,-25,cs),
(530,513,l),
(394,513,l),
(288,280,ls),
(266,232,o),
(241,164,o),
(241,164,c),
(239,164,l),
(239,164,o),
(231,233,o),
(224,280,cs),
(189,513,l),
(49,513,l),
(123,148,ls),
(134,96,o),
(140,58,o),
(140,33,cs),
(140,-31,o),
(108,-62,o),
(51,-62,cs),
(8,-62,l)
);
},
{
closed = 1;
nodes = (
(345,581,l),
(469,581,l),
(492,695,l),
(368,695,l)
);
},
{
closed = 1;
nodes = (
(128,581,l),
(252,581,l),
(275,695,l),
(151,695,l)
);
}
);
width = 488;
}
);
note = ydieresis;
unicode = 255;
},
{
glyphname = Ydieresis;
kernLeft = Yacute;
kernRight = Yacute;
layers = (
{
hints = (
{
horizontal = 1;
place = (0, 21);
target = up;
type = BottomGhost;
},
{
horizontal = 1;
place = (715, -20);
target = down;
type = TopGhost;
},
{
horizontal = 1;
place = (753, 114);
place = (753, 114);
type = Stem;
},
{
place = (90, 601);
place = (90, 601);
type = Stem;
}
);
layerId = m01;
shapes = (
{
closed = 1;
nodes = (
(176,0,l),
(319,0,l),
(372,276,l),
(691,715,l),
(536,715,l),
(391,506,ls),
(360,461,o),
(326,403,o),
(326,403,c),
(324,403,l),
(324,403,o),
(311,466,o),
(298,510,cs),
(237,715,l),
(90,715,l),
(230,280,l)
);
},
{
closed = 1;
nodes = (
(426,753,l),
(552,753,l),
(575,867,l),
(449,867,l)
);
},
{
closed = 1;
nodes = (
(227,753,l),
(353,753,l),
(376,867,l),
(250,867,l)
);
}
);
width = 607;
}
);
note = Ydieresis;
unicode = 376;
},
{
glyphname = fraction;
layers = (
{
hints = (
{
horizontal = 1;
place = (0, 21);
target = up;
type = BottomGhost;
},
{
horizontal = 1;
place = (715, -20);
target = down;
type = TopGhost;
},
{
place = (-208, 694);
place = (-208, 694);
type = Stem;
}
);
layerId = m01;
shapes = (
{
closed = 1;
nodes = (
(-208,0,l),
(-118,0,l),
(486,715,l),
(396,715,l)
);
}
);
width = 240;
}
);
note = fraction;
unicode = 8260;
},
{
glyphname = Euro;
layers = (
{
hints = (
{
horizontal = 1;
place = (-16, 114);
place = (-16, 114);
type = Stem;
},
{
horizontal = 1;
place = (248, 58);
place = (248, 58);
type = Stem;
},
{
horizontal = 1;
place = (369, 58);
place = (369, 58);
type = Stem;
},
{
horizontal = 1;
place = (587, 113);
place = (587, 113);
type = Stem;
},
{
place = (71, 141);
place = (71, 141);
type = Stem;
},
{
place = (508, 132);
place = (508, 132);
type = Stem;
}
);
layerId = m01;
shapes = (
{
closed = 1;
nodes = (
(406,369,l),
(417,427,l),
(237,427,l),
(268,521,o),
(326,587,o),
(403,587,cs),
(487,587,o),
(506,528,o),
(508,468,c),
(640,468,l),
(637,616,o),
(561,700,o),
(410,700,cs),
(261,700,o),
(143,584,o),
(95,427,c),
(50,427,l),
(39,369,l),
(81,369,l),
(77,348,o),
(74,327,o),
(72,306,c),
(27,306,l),
(16,248,l),
(71,248,l),
(77,77,o),
(175,-16,o),
(329,-16,cs),
(474,-16,o),
(579,81,o),
(610,238,c),
(479,238,l),
(457,150,o),
(404,97,o),
(333,98,cs),
(243,98,o),
(214,166,o),
(212,248,c),
(383,248,l),
(394,306,l),
(213,306,l),
(215,327,o),
(218,348,o),
(222,369,c)
);
}
);
width = 620;
}
);
note = Euro;
unicode = 8364;
},
{
glyphname = guilsinglleft;
kernLeft = guillemotleft;
kernRight = guillemotleft;
layers = (
{
hints = (
{
horizontal = 1;
place = (55, 406);
place = (55, 406);
type = Stem;
},
{
place = (40, 214);
place = (40, 214);
type = Stem;
}
);
layerId = m01;
shapes = (
{
closed = 1;
nodes = (
(176,55,l),
(200,179,l),
(125,251,l),
(125,253,l),
(228,326,l),
(254,461,l),
(65,324,l),
(40,199,l)
);
}
);
width = 273;
}
);
note = guilsinglleft;
unicode = 8249;
},
{
glyphname = guilsinglright;
kernLeft = guillemotright;
kernRight = guillemotright;
layers = (
{
hints = (
{
horizontal = 1;
place = (55, 406);
place = (55, 406);
type = Stem;
},
{
place = (19, 214);
place = (19, 214);
type = Stem;
}
);
layerId = m01;
shapes = (
{
closed = 1;
nodes = (
(97,461,l),
(73,337,l),
(148,265,l),
(148,263,l),
(45,190,l),
(19,55,l),
(208,192,l),
(233,317,l)
);
}
);
width = 273;
}
);
note = guilsinglright;
unicode = 8250;
},
{
glyphname = fi;
kernLeft = f;
kernRight = d;
layers = (
{
hints = (
{
horizontal = 1;
place = (0, 21);
target = up;
type = BottomGhost;
},
{
horizontal = 1;
place = (419, 94);
place = (419, 94);
type = Stem;
},
{
horizontal = 1;
place = (593, 122);
place = (593, 122);
type = Stem;
},
{
place = (30, 554);
place = (30, 554);
type = Stem;
},
{
horizontal = 1;
place = (610, 107);
place = (610, 107);
type = Stem;
}
);
layerId = m01;
shapes = (
{
closed = 1;
nodes = (
(44,419,l),
(111,419,l),
(30,0,l),
(163,0,l),
(244,419,l),
(333,419,l),
(351,513,l),
(262,513,l),
(271,556,ls),
(279,596,o),
(295,610,o),
(332,610,cs),
(343,610,o),
(356,609,o),
(370,607,c),
(390,711,l),
(365,715,o),
(341,717,o),
(318,717,cs),
(227,716,o),
(161,677,o),
(141,574,cs),
(129,513,l),
(62,513,l)
);
},
{
closed = 1;
nodes = (
(312,0,l),
(446,0,l),
(545,513,l),
(411,513,l)
);
},
{
closed = 1;
nodes = (
(427,593,l),
(561,593,l),
(584,715,l),
(450,715,l)
);
}
);
width = 539;
}
);
note = fi;
unicode = 64257;
},
{
glyphname = fl;
kernLeft = f;
kernRight = d;
layers = (
{
hints = (
{
horizontal = 1;
place = (0, 21);
target = up;
type = BottomGhost;
},
{
horizontal = 1;
place = (419, 94);
place = (419, 94);
type = Stem;
},
{
horizontal = 1;
place = (610, 107);
place = (610, 107);
type = Stem;
},
{
place = (30, 556);
place = (30, 556);
type = Stem;
}
);
layerId = m01;
shapes = (
{
closed = 1;
nodes = (
(44,419,l),
(111,419,l),
(30,0,l),
(163,0,l),
(244,419,l),
(333,419,l),
(351,513,l),
(262,513,l),
(271,556,ls),
(279,596,o),
(295,610,o),
(332,610,cs),
(343,610,o),
(356,609,o),
(370,607,c),
(390,711,l),
(365,715,o),
(341,717,o),
(318,717,cs),
(227,716,o),
(161,677,o),
(141,574,cs),
(129,513,l),
(62,513,l)
);
},
{
closed = 1;
nodes = (
(314,0,l),
(448,0,l),
(586,715,l),
(452,715,l)
);
}
);
width = 543;
}
);
note = fl;
unicode = 64258;
},
{
glyphname = daggerdbl;
layers = (
{
hints = (
{
horizontal = 1;
place = (80, 105);
place = (80, 105);
type = Stem;
},
{
horizontal = 1;
place = (413, 105);
place = (413, 105);
type = Stem;
},
{
horizontal = 1;
place = (715, -20);
target = down;
type = TopGhost;
},
{
place = (-1, 574);
place = (-1, 574);
type = Stem;
}
);
layerId = m01;
shapes = (
{
closed = 1;
nodes = (
(63,413,l),
(244,413,l),
(200,185,l),
(19,185,l),
(-1,80,l),
(179,80,l),
(141,-117,l),
(269,-117,l),
(307,80,l),
(489,80,l),
(509,185,l),
(328,185,l),
(372,413,l),
(553,413,l),
(573,518,l),
(392,518,l),
(430,715,l),
(302,715,l),
(264,518,l),
(83,518,l)
);
}
);
width = 556;
}
);
note = daggerdbl;
unicode = 8225;
},
{
glyphname = periodcentered;
layers = (
{
hints = (
{
horizontal = 1;
place = (243, 145);
place = (243, 145);
type = Stem;
},
{
place = (32, 172);
place = (32, 172);
type = Stem;
}
);
layerId = m01;
shapes = (
{
closed = 1;
nodes = (
(32,243,l),
(176,243,l),
(204,388,l),
(60,388,l)
);
}
);
width = 215;
}
);
note = periodcentered;
unicode = 183;
},
{
glyphname = quotesinglbase;
kernRight = quotesinglbase;
layers = (
{
hints = (
{
horizontal = 1;
place = (0, 130);
place = (0, 130);
type = Stem;
},
{
place = (-46, 187);
place = (-46, 187);
type = Stem;
}
);
layerId = m01;
shapes = (
{
closed = 1;
nodes = (
(-46,-138,l),
(25,-131,o),
(99,-92,o),
(117,3,cs),
(141,130,l),
(8,130,l),
(-17,0,l),
(47,0,l),
(39,-55,o),
(2,-82,o),
(-36,-91,c)
);
}
);
width = 198;
}
);
note = quotesinglbase;
unicode = 8218;
},
{
glyphname = quotedblbase;
kernRight = quotesinglbase;
layers = (
{
hints = (
{
horizontal = 1;
place = (0, 130);
place = (0, 130);
type = Stem;
},
{
place = (-46, 382);
place = (-46, 382);
type = Stem;
}
);
layerId = m01;
shapes = (
{
closed = 1;
nodes = (
(-46,-138,l),
(25,-131,o),
(99,-92,o),
(117,3,cs),
(141,130,l),
(8,130,l),
(-17,0,l),
(47,0,l),
(39,-55,o),
(2,-82,o),
(-36,-91,c)
);
},
{
closed = 1;
nodes = (
(149,-138,l),
(220,-131,o),
(294,-92,o),
(312,3,cs),
(336,130,l),
(203,130,l),
(178,0,l),
(242,0,l),
(234,-55,o),
(197,-82,o),
(159,-91,c)
);
}
);
width = 393;
}
);
note = quotedblbase;
unicode = 8222;
},
{
glyphname = perthousand;
kernLeft = percent;
layers = (
{
hints = (
{
horizontal = 1;
place = (0, 21);
target = up;
type = BottomGhost;
},
{
horizontal = 1;
place = (301, 76);
place = (301, 76);
type = Stem;
},
{
horizontal = 1;
place = (686, -20);
target = down;
type = TopGhost;
},
{
place = (54, 103);
place = (54, 103);
type = Stem;
},
{
place = (301, 103);
place = (301, 103);
type = Stem;
},
{
horizontal = 1;
place = (624, 76);
place = (624, 76);
type = Stem;
},
{
horizontal = 1;
place = (-16, 76);
place = (-16, 76);
type = Stem;
},
{
horizontal = 1;
place = (307, 76);
place = (307, 76);
type = Stem;
},
{
place = (425, 103);
place = (425, 103);
type = Stem;
},
{
place = (672, 103);
place = (672, 103);
type = Stem;
},
{
place = (802, 103);
place = (802, 103);
type = Stem;
},
{
place = (1049, 103);
place = (1049, 103);
type = Stem;
}
);
layerId = m01;
shapes = (
{
closed = 1;
nodes = (
(124,0,l),
(210,0,l),
(706,686,l),
(620,686,l)
);
},
{
closed = 1;
nodes = (
(331,301,o),
(404,410,o),
(404,540,cs),
(404,626,o),
(352,700,o),
(248,700,cs),
(130,700,o),
(54,592,o),
(54,461,cs),
(54,374,o),
(107,301,o),
(209,301,cs)
);
},
{
closed = 1;
nodes = (
(157,535,o),
(185,624,o),
(246,624,cs),
(289,624,o),
(301,583,o),
(301,548,cs),
(301,465,o),
(273,377,o),
(211,377,cs),
(167,377,o),
(157,416,o),
(157,455,cs)
);
},
{
closed = 1;
nodes = (
(702,-16,o),
(775,93,o),
(775,223,cs),
(775,309,o),
(723,383,o),
(619,383,cs),
(501,383,o),
(425,275,o),
(425,144,cs),
(425,57,o),
(478,-16,o),
(580,-16,cs)
);
},
{
closed = 1;
nodes = (
(528,218,o),
(556,307,o),
(617,307,cs),
(660,307,o),
(672,266,o),
(672,231,cs),
(672,148,o),
(644,60,o),
(582,60,cs),
(538,60,o),
(528,99,o),
(528,138,cs)
);
},
{
closed = 1;
nodes = (
(1079,-16,o),
(1152,93,o),
(1152,223,cs),
(1152,309,o),
(1100,383,o),
(996,383,cs),
(878,383,o),
(802,275,o),
(802,144,cs),
(802,57,o),
(855,-16,o),
(957,-16,cs)
);
},
{
closed = 1;
nodes = (
(905,218,o),
(933,307,o),
(994,307,cs),
(1037,307,o),
(1049,266,o),
(1049,231,cs),
(1049,148,o),
(1021,60,o),
(959,60,cs),
(915,60,o),
(905,99,o),
(905,138,cs)
);
}
);
width = 1174;
}
);
note = perthousand;
unicode = 8240;
},
{
glyphname = Acircumflex;
kernLeft = A;
kernRight = A;
layers = (
{
hints = (
{
horizontal = 1;
place = (0, 21);
target = up;
type = BottomGhost;
},
{
horizontal = 1;
place = (153, 110);
place = (153, 110);
type = Stem;
},
{
horizontal = 1;
place = (715, -20);
target = down;
type = TopGhost;
},
{
horizontal = 1;
place = (753, 114);
place = (753, 114);
type = Stem;
},
{
place = (-49, 632);
place = (-49, 632);
type = Stem;
},
{
horizontal = 1;
place = (578, 137);
place = (578, 137);
type = Stem;
}
);
layerId = m01;
shapes = (
{
closed = 1;
nodes = (
(435,0,l),
(583,0,l),
(465,715,l),
(317,715,l),
(-49,0,l),
(96,0,l),
(168,153,l),
(415,153,l)
);
},
{
closed = 1;
nodes = (
(317,466,ls),
(335,504,o),
(365,578,o),
(365,578,c),
(367,578,l),
(367,578,o),
(371,505,o),
(376,464,cs),
(401,263,l),
(220,263,l)
);
},
{
closed = 1;
nodes = (
(229,753,l),
(349,753,l),
(407,812,l),
(409,812,l),
(446,753,l),
(559,753,l),
(484,867,l),
(340,867,l)
);
}
);
width = 634;
}
);
note = Acircumflex;
unicode = 194;
},
{
glyphname = Ecircumflex;
kernRight = E;
layers = (
{
hints = (
{
horizontal = 1;
place = (0, 120);
place = (0, 120);
type = Stem;
},
{
horizontal = 1;
place = (315, 118);
place = (315, 118);
type = Stem;
},
{
horizontal = 1;
place = (594, 121);
place = (594, 121);
type = Stem;
},
{
horizontal = 1;
place = (753, 114);
place = (753, 114);
type = Stem;
},
{
place = (4, 636);
place = (4, 636);
type = Stem;
}
);
layerId = m01;
shapes = (
{
closed = 1;
nodes = (
(4,0,l),
(510,0,l),
(533,120,l),
(170,120,l),
(208,315,l),
(520,315,l),
(543,433,l),
(231,433,l),
(262,594,l),
(617,594,l),
(640,715,l),
(142,715,l)
);
},
{
closed = 1;
nodes = (
(240,753,l),
(360,753,l),
(418,812,l),
(420,812,l),
(457,753,l),
(570,753,l),
(495,867,l),
(351,867,l)
);
}
);
width = 593;
}
);
note = Ecircumflex;
unicode = 202;
},
{
glyphname = Aacute;
kernLeft = A;
kernRight = A;
layers = (
{
hints = (
{
horizontal = 1;
place = (0, 21);
target = up;
type = BottomGhost;
},
{
horizontal = 1;
place = (153, 110);
place = (153, 110);
type = Stem;
},
{
horizontal = 1;
place = (715, -20);
target = down;
type = TopGhost;
},
{
horizontal = 1;
place = (753, 125);
place = (753, 125);
type = Stem;
},
{
place = (-49, 632);
place = (-49, 632);
type = Stem;
},
{
horizontal = 1;
place = (578, 137);
place = (578, 137);
type = Stem;
}
);
layerId = m01;
shapes = (
{
closed = 1;
nodes = (
(435,0,l),
(583,0,l),
(465,715,l),
(317,715,l),
(-49,0,l),
(96,0,l),
(168,153,l),
(415,153,l)
);
},
{
closed = 1;
nodes = (
(317,466,ls),
(335,504,o),
(365,578,o),
(365,578,c),
(367,578,l),
(367,578,o),
(371,505,o),
(376,464,cs),
(401,263,l),
(220,263,l)
);
},
{
closed = 1;
nodes = (
(557,878,l),
(402,878,l),
(342,753,l),
(446,753,l)
);
}
);
width = 634;
}
);
note = Aacute;
unicode = 193;
},
{
glyphname = Edieresis;
kernRight = E;
layers = (
{
hints = (
{
horizontal = 1;
place = (0, 120);
place = (0, 120);
type = Stem;
},
{
horizontal = 1;
place = (315, 118);
place = (315, 118);
type = Stem;
},
{
horizontal = 1;
place = (594, 121);
place = (594, 121);
type = Stem;
},
{
horizontal = 1;
place = (753, 114);
place = (753, 114);
type = Stem;
},
{
place = (4, 636);
place = (4, 636);
type = Stem;
}
);
layerId = m01;
shapes = (
{
closed = 1;
nodes = (
(4,0,l),
(510,0,l),
(533,120,l),
(170,120,l),
(208,315,l),
(520,315,l),
(543,433,l),
(231,433,l),
(262,594,l),
(617,594,l),
(640,715,l),
(142,715,l)
);
},
{
closed = 1;
nodes = (
(437,753,l),
(563,753,l),
(586,867,l),
(460,867,l)
);
},
{
closed = 1;
nodes = (
(238,753,l),
(364,753,l),
(387,867,l),
(261,867,l)
);
}
);
width = 593;
}
);
note = Edieresis;
unicode = 203;
},
{
glyphname = Egrave;
kernRight = E;
layers = (
{
hints = (
{
horizontal = 1;
place = (0, 120);
place = (0, 120);
type = Stem;
},
{
horizontal = 1;
place = (315, 118);
place = (315, 118);
type = Stem;
},
{
horizontal = 1;
place = (594, 121);
place = (594, 121);
type = Stem;
},
{
horizontal = 1;
place = (753, 125);
place = (753, 125);
type = Stem;
},
{
place = (4, 636);
place = (4, 636);
type = Stem;
}
);
layerId = m01;
shapes = (
{
closed = 1;
nodes = (
(4,0,l),
(510,0,l),
(533,120,l),
(170,120,l),
(208,315,l),
(520,315,l),
(543,433,l),
(231,433,l),
(262,594,l),
(617,594,l),
(640,715,l),
(142,715,l)
);
},
{
closed = 1;
nodes = (
(359,753,l),
(461,753,l),
(432,878,l),
(287,878,l)
);
}
);
width = 593;
}
);
note = Egrave;
unicode = 200;
},
{
glyphname = Iacute;
layers = (
{
hints = (
{
horizontal = 1;
place = (0, 21);
target = up;
type = BottomGhost;
},
{
horizontal = 1;
place = (715, -20);
target = down;
type = TopGhost;
},
{
horizontal = 1;
place = (753, 125);
place = (753, 125);
type = Stem;
},
{
place = (5, 368);
place = (5, 368);
type = Stem;
}
);
layerId = m01;
shapes = (
{
closed = 1;
nodes = (
(5,0,l),
(148,0,l),
(286,715,l),
(143,715,l)
);
},
{
closed = 1;
nodes = (
(373,878,l),
(218,878,l),
(158,753,l),
(262,753,l)
);
}
);
width = 253;
}
);
note = Iacute;
unicode = 205;
},
{
glyphname = Icircumflex;
layers = (
{
hints = (
{
horizontal = 1;
place = (0, 21);
target = up;
type = BottomGhost;
},
{
horizontal = 1;
place = (715, -20);
target = down;
type = TopGhost;
},
{
horizontal = 1;
place = (753, 114);
place = (753, 114);
type = Stem;
},
{
place = (5, 373);
place = (5, 373);
type = Stem;
}
);
layerId = m01;
shapes = (
{
closed = 1;
nodes = (
(5,0,l),
(148,0,l),
(286,715,l),
(143,715,l)
);
},
{
closed = 1;
nodes = (
(48,753,l),
(168,753,l),
(226,812,l),
(228,812,l),
(265,753,l),
(378,753,l),
(303,867,l),
(159,867,l)
);
}
);
width = 253;
}
);
note = Icircumflex;
unicode = 206;
},
{
glyphname = Idieresis;
layers = (
{
hints = (
{
horizontal = 1;
place = (0, 21);
target = up;
type = BottomGhost;
},
{
horizontal = 1;
place = (715, -20);
target = down;
type = TopGhost;
},
{
horizontal = 1;
place = (753, 114);
place = (753, 114);
type = Stem;
},
{
place = (5, 399);
place = (5, 399);
type = Stem;
}
);
layerId = m01;
shapes = (
{
closed = 1;
nodes = (
(5,0,l),
(148,0,l),
(286,715,l),
(143,715,l)
);
},
{
closed = 1;
nodes = (
(255,753,l),
(381,753,l),
(404,867,l),
(278,867,l)
);
},
{
closed = 1;
nodes = (
(56,753,l),
(182,753,l),
(205,867,l),
(79,867,l)
);
}
);
width = 253;
}
);
note = Idieresis;
unicode = 207;
},
{
glyphname = Igrave;
layers = (
{
hints = (
{
horizontal = 1;
place = (0, 21);
target = up;
type = BottomGhost;
},
{
horizontal = 1;
place = (715, -20);
target = down;
type = TopGhost;
},
{
horizontal = 1;
place = (753, 125);
place = (753, 125);
type = Stem;
},
{
place = (5, 281);
place = (5, 281);
type = Stem;
}
);
layerId = m01;
shapes = (
{
closed = 1;
nodes = (
(5,0,l),
(148,0,l),
(286,715,l),
(143,715,l)
);
},
{
closed = 1;
nodes = (
(174,753,l),
(276,753,l),
(247,878,l),
(102,878,l)
);
}
);
width = 253;
}
);
note = Igrave;
unicode = 204;
},
{
glyphname = Oacute;
kernLeft = C;
kernRight = O;
layers = (
{
hints = (
{
horizontal = 1;
place = (-16, 118);
place = (-16, 118);
type = Stem;
},
{
horizontal = 1;
place = (611, 118);
place = (611, 118);
type = Stem;
},
{
place = (35, 146);
place = (35, 146);
type = Stem;
},
{
place = (570, 146);
place = (570, 146);
type = Stem;
},
{
horizontal = 1;
place = (753, 125);
place = (753, 125);
type = Stem;
}
);
layerId = m01;
shapes = (
{
closed = 1;
nodes = (
(590,-16,o),
(716,192,o),
(716,417,cs),
(716,606,o),
(593,729,o),
(408,729,cs),
(168,729,o),
(35,521,o),
(35,291,cs),
(35,99,o),
(162,-16,o),
(346,-16,cs)
);
},
{
closed = 1;
nodes = (
(181,438,o),
(241,611,o),
(399,611,cs),
(518,611,o),
(570,524,o),
(570,413,cs),
(570,275,o),
(513,102,o),
(352,102,cs),
(229,102,o),
(181,187,o),
(181,294,cs)
);
},
{
closed = 1;
nodes = (
(583,878,l),
(428,878,l),
(368,753,l),
(472,753,l)
);
}
);
width = 713;
}
);
note = Oacute;
unicode = 211;
},
{
glyphname = Ocircumflex;
kernLeft = C;
kernRight = O;
layers = (
{
hints = (
{
horizontal = 1;
place = (-16, 118);
place = (-16, 118);
type = Stem;
},
{
horizontal = 1;
place = (611, 118);
place = (611, 118);
type = Stem;
},
{
place = (35, 146);
place = (35, 146);
type = Stem;
},
{
place = (570, 146);
place = (570, 146);
type = Stem;
},
{
horizontal = 1;
place = (753, 114);
place = (753, 114);
type = Stem;
}
);
layerId = m01;
shapes = (
{
closed = 1;
nodes = (
(590,-16,o),
(716,192,o),
(716,417,cs),
(716,606,o),
(593,729,o),
(408,729,cs),
(168,729,o),
(35,521,o),
(35,291,cs),
(35,99,o),
(162,-16,o),
(346,-16,cs)
);
},
{
closed = 1;
nodes = (
(181,438,o),
(241,611,o),
(399,611,cs),
(518,611,o),
(570,524,o),
(570,413,cs),
(570,275,o),
(513,102,o),
(352,102,cs),
(229,102,o),
(181,187,o),
(181,294,cs)
);
},
{
closed = 1;
nodes = (
(257,753,l),
(377,753,l),
(435,812,l),
(437,812,l),
(474,753,l),
(587,753,l),
(512,867,l),
(368,867,l)
);
}
);
width = 713;
}
);
note = Ocircumflex;
unicode = 212;
},
{
glyphname = Ograve;
kernLeft = C;
kernRight = O;
layers = (
{
hints = (
{
horizontal = 1;
place = (-16, 118);
place = (-16, 118);
type = Stem;
},
{
horizontal = 1;
place = (611, 118);
place = (611, 118);
type = Stem;
},
{
place = (35, 146);
place = (35, 146);
type = Stem;
},
{
place = (570, 146);
place = (570, 146);
type = Stem;
},
{
horizontal = 1;
place = (753, 125);
place = (753, 125);
type = Stem;
}
);
layerId = m01;
shapes = (
{
closed = 1;
nodes = (
(590,-16,o),
(716,192,o),
(716,417,cs),
(716,606,o),
(593,729,o),
(408,729,cs),
(168,729,o),
(35,521,o),
(35,291,cs),
(35,99,o),
(162,-16,o),
(346,-16,cs)
);
},
{
closed = 1;
nodes = (
(181,438,o),
(241,611,o),
(399,611,cs),
(518,611,o),
(570,524,o),
(570,413,cs),
(570,275,o),
(513,102,o),
(352,102,cs),
(229,102,o),
(181,187,o),
(181,294,cs)
);
},
{
closed = 1;
nodes = (
(377,753,l),
(479,753,l),
(450,878,l),
(305,878,l)
);
}
);
width = 713;
}
);
note = Ograve;
unicode = 210;
},
{
glyphname = Uacute;
kernLeft = U;
kernRight = U;
layers = (
{
hints = (
{
horizontal = 1;
place = (-12, 115);
place = (-12, 115);
type = Stem;
},
{
horizontal = 1;
place = (715, -20);
target = down;
type = TopGhost;
},
{
horizontal = 1;
place = (753, 125);
place = (753, 125);
type = Stem;
},
{
place = (40, 143);
place = (40, 143);
type = Stem;
}
);
layerId = m01;
shapes = (
{
closed = 1;
nodes = (
(463,-12,o),
(556,67,o),
(584,209,cs),
(682,715,l),
(540,715,l),
(445,222,ls),
(431,153,o),
(392,103,o),
(302,103,cs),
(202,103,o),
(170,155,o),
(187,240,cs),
(279,715,l),
(136,715,l),
(46,251,ls),
(12,73,o),
(123,-12,o),
(299,-12,cs)
);
},
{
closed = 1;
nodes = (
(575,878,l),
(420,878,l),
(360,753,l),
(464,753,l)
);
}
);
width = 642;
}
);
note = Uacute;
unicode = 218;
},
{
glyphname = Ucircumflex;
kernLeft = U;
kernRight = U;
layers = (
{
hints = (
{
horizontal = 1;
place = (-12, 115);
place = (-12, 115);
type = Stem;
},
{
horizontal = 1;
place = (715, -20);
target = down;
type = TopGhost;
},
{
horizontal = 1;
place = (753, 114);
place = (753, 114);
type = Stem;
},
{
place = (40, 143);
place = (40, 143);
type = Stem;
}
);
layerId = m01;
shapes = (
{
closed = 1;
nodes = (
(463,-12,o),
(556,67,o),
(584,209,cs),
(682,715,l),
(540,715,l),
(445,222,ls),
(431,153,o),
(392,103,o),
(302,103,cs),
(202,103,o),
(170,155,o),
(187,240,cs),
(279,715,l),
(136,715,l),
(46,251,ls),
(12,73,o),
(123,-12,o),
(299,-12,cs)
);
},
{
closed = 1;
nodes = (
(251,753,l),
(371,753,l),
(429,812,l),
(431,812,l),
(468,753,l),
(581,753,l),
(506,867,l),
(362,867,l)
);
}
);
width = 642;
}
);
note = Ucircumflex;
unicode = 219;
},
{
glyphname = Ugrave;
kernLeft = U;
kernRight = U;
layers = (
{
hints = (
{
horizontal = 1;
place = (-12, 115);
place = (-12, 115);
type = Stem;
},
{
horizontal = 1;
place = (715, -20);
target = down;
type = TopGhost;
},
{
horizontal = 1;
place = (753, 125);
place = (753, 125);
type = Stem;
},
{
place = (40, 143);
place = (40, 143);
type = Stem;
}
);
layerId = m01;
shapes = (
{
closed = 1;
nodes = (
(463,-12,o),
(556,67,o),
(584,209,cs),
(682,715,l),
(540,715,l),
(445,222,ls),
(431,153,o),
(392,103,o),
(302,103,cs),
(202,103,o),
(170,155,o),
(187,240,cs),
(279,715,l),
(136,715,l),
(46,251,ls),
(12,73,o),
(123,-12,o),
(299,-12,cs)
);
},
{
closed = 1;
nodes = (
(370,753,l),
(472,753,l),
(443,878,l),
(298,878,l)
);
}
);
width = 642;
}
);
note = Ugrave;
unicode = 217;
},
{
glyphname = dotlessi;
kernLeft = m;
kernRight = u;
layers = (
{
hints = (
{
horizontal = 1;
place = (0, 21);
target = up;
type = BottomGhost;
},
{
horizontal = 1;
place = (513, -20);
target = down;
type = TopGhost;
},
{
place = (-7, 233);
place = (-7, 233);
type = Stem;
}
);
layerId = m01;
shapes = (
{
closed = 1;
nodes = (
(-7,0,l),
(127,0,l),
(226,513,l),
(92,513,l)
);
}
);
width = 220;
}
);
note = dotlessi;
unicode = 305;
},
{
glyphname = circumflex;
layers = (
{
hints = (
{
horizontal = 1;
place = (581, 126);
place = (581, 126);
type = Stem;
},
{
place = (145, 330);
place = (145, 330);
type = Stem;
}
);
layerId = m01;
shapes = (
{
closed = 1;
nodes = (
(145,581,l),
(265,581,l),
(323,650,l),
(325,650,l),
(362,581,l),
(475,581,l),
(399,707,l),
(257,707,l)
);
}
);
width = 492;
}
);
note = circumflex;
unicode = 710;
},
{
glyphname = tilde;
layers = (
{
hints = (
{
horizontal = 1;
place = (575, 116);
place = (575, 116);
type = Stem;
},
{
place = (165, 308);
place = (165, 308);
type = Stem;
},
{
horizontal = 1;
place = (575, 85);
place = (575, 85);
type = Stem;
},
{
horizontal = 1;
place = (577, 118);
place = (577, 118);
type = Stem;
},
{
horizontal = 1;
place = (608, 87);
place = (608, 87);
type = Stem;
}
);
layerId = m01;
shapes = (
{
closed = 1;
nodes = (
(427,575,o),
(461,623,o),
(473,691,c),
(402,691,l),
(396,672,o),
(388,660,o),
(369,660,cs),
(343,660,o),
(313,695,o),
(265,695,cs),
(216,695,o),
(178,655,o),
(165,577,c),
(236,577,l),
(240,596,o),
(252,608,o),
(266,608,cs),
(292,608,o),
(323,575,o),
(370,575,cs)
);
}
);
width = 492;
}
);
note = tilde;
unicode = 732;
},
{
glyphname = macron;
layers = (
{
hints = (
{
horizontal = 1;
place = (592, 95);
place = (592, 95);
type = Stem;
},
{
place = (178, 298);
place = (178, 298);
type = Stem;
}
);
layerId = m01;
shapes = (
{
closed = 1;
nodes = (
(178,592,l),
(458,592,l),
(476,687,l),
(196,687,l)
);
}
);
width = 492;
}
);
note = macron;
unicode = 175;
},
{
glyphname = breve;
layers = (
{
hints = (
{
horizontal = 1;
place = (573, 85);
place = (573, 85);
type = Stem;
},
{
place = (201, 289);
place = (201, 289);
type = Stem;
}
);
layerId = m01;
shapes = (
{
closed = 1;
nodes = (
(420,573,o),
(475,629,o),
(490,706,c),
(413,706,l),
(404,678,o),
(379,658,o),
(341,658,cs),
(300,658,o),
(279,677,o),
(277,706,c),
(201,706,l),
(202,630,o),
(250,573,o),
(338,573,cs)
);
}
);
width = 492;
}
);
note = breve;
unicode = 728;
},
{
glyphname = dotaccent;
layers = (
{
hints = (
{
horizontal = 1;
place = (593, 122);
place = (593, 122);
type = Stem;
},
{
place = (244, 157);
place = (244, 157);
type = Stem;
}
);
layerId = m01;
shapes = (
{
closed = 1;
nodes = (
(244,593,l),
(378,593,l),
(401,715,l),
(267,715,l)
);
}
);
width = 492;
}
);
note = dotaccent;
unicode = 729;
},
{
glyphname = ring;
layers = (
{
hints = (
{
horizontal = 1;
place = (561, 47);
place = (561, 47);
type = Stem;
},
{
horizontal = 1;
place = (702, 47);
place = (702, 47);
type = Stem;
},
{
place = (226, 52);
place = (226, 52);
type = Stem;
},
{
place = (368, 52);
place = (368, 52);
type = Stem;
}
);
layerId = m01;
shapes = (
{
closed = 1;
nodes = (
(376,561,o),
(420,602,o),
(420,655,cs),
(420,707,o),
(376,749,o),
(323,749,cs),
(270,749,o),
(226,707,o),
(226,655,cs),
(226,602,o),
(270,561,o),
(323,561,cs)
);
},
{
closed = 1;
nodes = (
(297,608,o),
(278,629,o),
(278,655,cs),
(278,681,o),
(297,702,o),
(323,702,cs),
(349,702,o),
(368,681,o),
(368,655,cs),
(368,629,o),
(349,608,o),
(323,608,cs)
);
}
);
width = 492;
}
);
note = ring;
unicode = 730;
},
{
glyphname = cedilla;
layers = (
{
hints = (
{
horizontal = 1;
place = (-192, 46);
place = (-192, 46);
type = Stem;
},
{
horizontal = 1;
place = (-86, 86);
place = (-86, 86);
type = Stem;
},
{
place = (185, 80);
place = (185, 80);
type = Stem;
}
);
layerId = m01;
shapes = (
{
closed = 1;
nodes = (
(204,-192,o),
(265,-170,o),
(265,-111,cs),
(264,-65,o),
(218,-45,o),
(169,-52,c),
(169,-50,l),
(230,0,l),
(172,0,l),
(99,-71,l),
(111,-93,l),
(123,-89,o),
(135,-86,o),
(149,-86,cs),
(169,-86,o),
(185,-95,o),
(185,-111,cs),
(185,-141,o),
(148,-146,o),
(127,-146,cs),
(103,-146,o),
(77,-140,o),
(59,-131,c),
(38,-163,l),
(64,-181,o),
(93,-192,o),
(146,-192,cs)
);
}
);
width = 492;
}
);
note = cedilla;
unicode = 184;
},
{
glyphname = hungarumlaut;
layers = (
{
hints = (
{
horizontal = 1;
place = (577, 141);
place = (577, 141);
type = Stem;
},
{
place = (174, 354);
place = (174, 354);
type = Stem;
}
);
layerId = m01;
shapes = (
{
closed = 1;
nodes = (
(345,577,l),
(427,577,l),
(528,718,l),
(401,718,l)
);
},
{
closed = 1;
nodes = (
(174,577,l),
(256,577,l),
(356,718,l),
(230,718,l)
);
}
);
width = 492;
}
);
note = hungarumlaut;
unicode = 733;
},
{
glyphname = ogonek;
layers = (
{
hints = (
{
horizontal = 1;
place = (-174, 174);
place = (-174, 174);
type = Stem;
},
{
place = (132, 106);
place = (132, 106);
type = Stem;
},
{
horizontal = 1;
place = (-174, 78);
place = (-174, 78);
type = Stem;
}
);
layerId = m01;
shapes = (
{
closed = 1;
nodes = (
(258,-174,o),
(274,-170,o),
(284,-166,c),
(299,-90,l),
(297,-90,l),
(289,-93,o),
(280,-96,o),
(269,-96,cs),
(248,-96,o),
(238,-87,o),
(238,-73,cs),
(238,-43,o),
(288,-11,o),
(305,0,c),
(217,0,l),
(174,-20,o),
(132,-48,o),
(132,-97,cs),
(132,-151,o),
(183,-174,o),
(235,-174,cs)
);
}
);
width = 492;
}
);
note = ogonek;
unicode = 731;
},
{
glyphname = caron;
layers = (
{
hints = (
{
horizontal = 1;
place = (576, 126);
place = (576, 126);
type = Stem;
},
{
place = (164, 330);
place = (164, 330);
type = Stem;
}
);
layerId = m01;
shapes = (
{
closed = 1;
nodes = (
(494,702,l),
(374,702,l),
(316,633,l),
(314,633,l),
(277,702,l),
(164,702,l),
(240,576,l),
(382,576,l)
);
}
);
width = 492;
}
);
note = caron;
unicode = 711;
},
{
glyphname = Amacron;
kernLeft = A;
kernRight = A;
layers = (
{
hints = (
{
horizontal = 1;
place = (0, 21);
target = up;
type = BottomGhost;
},
{
horizontal = 1;
place = (153, 110);
place = (153, 110);
type = Stem;
},
{
horizontal = 1;
place = (715, -20);
target = down;
type = TopGhost;
},
{
horizontal = 1;
place = (762, 95);
place = (762, 95);
type = Stem;
},
{
place = (-49, 632);
place = (-49, 632);
type = Stem;
},
{
horizontal = 1;
place = (578, 137);
place = (578, 137);
type = Stem;
}
);
layerId = m01;
shapes = (
{
closed = 1;
nodes = (
(435,0,l),
(583,0,l),
(465,715,l),
(317,715,l),
(-49,0,l),
(96,0,l),
(168,153,l),
(415,153,l)
);
},
{
closed = 1;
nodes = (
(317,466,ls),
(335,504,o),
(365,578,o),
(365,578,c),
(367,578,l),
(367,578,o),
(371,505,o),
(376,464,cs),
(401,263,l),
(220,263,l)
);
},
{
closed = 1;
nodes = (
(257,762,l),
(537,762,l),
(555,857,l),
(275,857,l)
);
}
);
width = 634;
}
);
note = Amacron;
unicode = 256;
},
{
glyphname = Abreve;
kernLeft = A;
kernRight = A;
layers = (
{
hints = (
{
horizontal = 1;
place = (0, 21);
target = up;
type = BottomGhost;
},
{
horizontal = 1;
place = (153, 110);
place = (153, 110);
type = Stem;
},
{
horizontal = 1;
place = (715, -20);
target = down;
type = TopGhost;
},
{
horizontal = 1;
place = (749, 85);
place = (749, 85);
type = Stem;
},
{
place = (-49, 632);
place = (-49, 632);
type = Stem;
},
{
horizontal = 1;
place = (578, 137);
place = (578, 137);
type = Stem;
}
);
layerId = m01;
shapes = (
{
closed = 1;
nodes = (
(435,0,l),
(583,0,l),
(465,715,l),
(317,715,l),
(-49,0,l),
(96,0,l),
(168,153,l),
(415,153,l)
);
},
{
closed = 1;
nodes = (
(317,466,ls),
(335,504,o),
(365,578,o),
(365,578,c),
(367,578,l),
(367,578,o),
(371,505,o),
(376,464,cs),
(401,263,l),
(220,263,l)
);
},
{
closed = 1;
nodes = (
(485,749,o),
(540,805,o),
(555,882,c),
(478,882,l),
(469,854,o),
(444,834,o),
(406,834,cs),
(365,834,o),
(344,853,o),
(342,882,c),
(266,882,l),
(267,806,o),
(315,749,o),
(403,749,cs)
);
}
);
width = 634;
}
);
note = Abreve;
unicode = 258;
},
